<?xml version="1.0" encoding="UTF-8"?>
<svg id="Layer_1" data-name="Layer 1" xmlns="http://www.w3.org/2000/svg" viewBox="0 0 311.25 294.06">
  <defs>
    <style>
      .cls-1 {
        fill: #46b1da;
        stroke-width: 0px;
      }
    </style>
  </defs>
  <path class="cls-1" d="m27.9,143.33c0-30.75,0-61.51,0-92.26,0-18.29,11.94-30.2,30.26-30.2,61.61,0,123.21,0,184.82,0,18.18,0,30.15,11.91,30.16,30.01.01,30.26.01,60.53-.02,90.79,0,1.55-.07,3.17-.51,4.64-1.28,4.35-5.55,7.07-9.97,6.56-4.39-.51-7.96-4.18-8.33-8.62-.08-.98-.04-1.96-.04-2.95,0-30.07,0-60.13,0-90.2,0-7.85-3.49-11.37-11.26-11.37-61.71,0-123.41,0-185.12,0-7.63,0-11.14,3.52-11.14,11.19,0,61.71,0,123.41,0,185.12,0,7.62,3.56,11.21,11.13,11.21,30.56,0,61.12,0,91.67,0,7.45,0,12.21,6.28,9.76,12.76-1.45,3.83-4.9,6.09-9.5,6.09-18.96.02-37.93,0-56.89,0-11.89,0-23.78.02-35.67,0-17.14-.04-29.34-12.21-29.36-29.33-.03-31.15,0-62.3,0-93.44Z"/>
  <path class="cls-1" d="m120.74,134.09c-17.51-19.67-12.43-46.02,3.01-59.25,15.8-13.53,39.09-13.24,54.58.96,15.07,13.81,18.78,39.34,1.96,58.24,1.05.57,2.06,1.13,3.06,1.67,17.1,9.2,28.54,22.77,32.3,42.15.63,3.25.85,6.63.83,9.95-.03,5.08-4.31,9.1-9.3,9.15-4.82.05-9.51-3.85-9.38-8.74.48-17.04-12.79-35.65-35.73-40.28-18.36-3.7-34.99.16-48.33,14.11-6.69,6.99-10.19,15.48-10.4,25.26-.12,5.55-4.23,9.67-9.45,9.65-5.31-.02-9.53-4.35-9.37-10.01.65-22.03,11.44-38,29.8-49.36,1.99-1.23,4.11-2.25,6.41-3.5Zm29.57-6.49c12.48.02,22.12-9.46,22.15-21.79.03-12.29-9.72-22.04-22.02-22-12.16.04-21.82,9.71-21.85,21.87-.03,12.22,9.56,21.89,21.73,21.91Z"/>
  <path class="cls-1" d="m235.76,221.83c0-2.09,0-3.93,0-5.77,0-5.3-.09-10.61.05-15.91.14-5.5,4.07-9.42,9.24-9.48,5.14-.06,9.29,3.79,9.49,9.25.21,5.99.07,11.98.08,17.98,0,1.17,0,2.33,0,3.94,3.44,0,6.65,0,9.86,0,3.83,0,7.66-.04,11.49.01,5.62.08,9.64,3.98,9.68,9.31.03,5.32-3.94,9.4-9.54,9.51-6.38.13-12.77.03-19.16.04-.67,0-1.34.09-2.33.16,0,5.31,0,10.49,0,15.66,0,2.26.09,4.53-.07,6.78-.37,5.26-4.4,9.12-9.37,9.13-5.07.01-9.24-4.02-9.37-9.4-.15-6.28-.05-12.57-.06-18.86,0-1.06,0-2.12,0-3.48-6.99,0-13.64.02-20.3-.02-1.46,0-2.97-.06-4.37-.41-4.71-1.17-7.46-5.28-6.98-10.19.44-4.53,4.2-8.11,8.91-8.2,6.38-.12,12.77-.04,19.16-.05,1.06,0,2.12,0,3.58,0Z"/>
</svg>