<?xml version="1.0" encoding="UTF-8"?>
<svg id="Layer_1" data-name="Layer 1" xmlns="http://www.w3.org/2000/svg" viewBox="0 0 315.13 299.49">
  <defs>
    <style>
      .cls-1 {
        fill: #46b1da;
        stroke-width: 0px;
      }
    </style>
  </defs>
  <path class="cls-1" d="m246.02,152.53v3.66c0,30.05,0,60.1,0,90.15,0,22.33-15.42,37.77-37.73,37.77-33.82,0-67.65,0-101.47,0-21.88,0-37.41-15.56-37.42-37.47,0-30.15,0-60.3,0-90.46,0-1.2,0-2.4,0-3.66-13.76-2.48-25.54-8.28-34.85-18.34-17.12-18.51-22.11-40.19-13.71-63.86,8.4-23.67,25.98-37.2,50.92-40.87,2.52-.37,5.09-.51,7.63-.51,52.22-.03,104.44-.08,156.65,0,29.61.05,55.01,20.57,60.9,48.97,7.17,34.55-14.43,67.19-49.15,74.26-.49.1-.97.19-1.76.35Zm-157-51.52c0,1.29,0,2.2,0,3.12,0,47.62,0,95.24,0,142.86,0,10.62,6.83,17.49,17.41,17.49,34.02.02,68.04.01,102.06,0,11.19,0,17.9-6.72,17.9-17.93,0-47.42,0-94.83,0-142.25,0-1.08,0-2.15,0-3.3H89.01Zm157,31.42c1.36-.38,2.44-.64,3.49-.98,19.5-6.41,31.93-26.35,28.83-46.24-3.29-21.12-20.62-36.57-41.58-36.61-52.64-.11-105.28-.09-157.92,0-19.85.03-37.07,14.15-41.21,33.41-4.23,19.71,5.72,39.52,24.1,47.81,2.36,1.06,4.87,1.79,7.66,2.8,0-13.56,0-26.54,0-39.51,0-8.3,3.62-11.88,12.01-11.88,25.04,0,50.08,0,75.12,0,26.06,0,52.13-.01,78.19,0,7.5,0,11.28,3.85,11.3,11.37.01,6.13,0,12.27,0,18.4,0,7.04,0,14.08,0,21.43Z"/>
  <path class="cls-1" d="m147.12,162.16c-2.76,2.86-5.45,5.79-8.28,8.58-4.26,4.18-10.32,4.28-14.23.35-3.97-3.99-3.82-9.91.42-14.21,5.38-5.45,10.77-10.9,16.25-16.25,9.64-9.41,23.26-9.39,32.9.04,5.4,5.29,10.73,10.65,16.04,16.03,4.42,4.48,4.6,10.4.54,14.44-4,3.97-10.06,3.73-14.45-.66-2.73-2.73-5.34-5.57-8-8.37-.26.11-.52.22-.79.34,0,1.06,0,2.11,0,3.17,0,16.86,0,33.71,0,50.57,0,4.29-1.94,7.47-5.84,9.27-3.7,1.71-7.2,1.06-10.3-1.49-2.62-2.17-3.52-5.08-3.51-8.45.05-16.55.02-33.1.02-49.65,0-1.1,0-2.2,0-3.29-.26-.14-.52-.27-.77-.41Z"/>
</svg>