<?xml version="1.0" encoding="UTF-8"?>
<svg id="Layer_1" data-name="Layer 1" xmlns="http://www.w3.org/2000/svg" viewBox="0 0 332.43 316.49">
  <defs>
    <style>
      .cls-1 {
        fill: #46b1da;
        stroke-width: 0px;
      }
    </style>
  </defs>
  <path class="cls-1" d="m258.26,204.88c-1.07,15.25-5.4,20.06-19.4,21.52.52,5.66-.66,10.9-4.49,15.29-3.85,4.4-8.78,6.49-15.04,6.47.56,5.52-.57,10.58-4.45,14.68-3.85,4.07-8.72,5.55-14.43,5.28.12,7.48-2.44,13.63-9.14,17.35-6.55,3.64-13.06,3.04-19.24-1.03-10.26,15.08-29.37,9.22-33.1-5.28-5.33,2.23-10.66,2.37-15.82-.47-5.13-2.83-8.21-7.19-9.22-12.97-11.81,4.42-25-2.49-25.98-17.51-10.05,1.28-17.77-2.21-21.71-10.03-3.37-6.7-2.94-13.33,1.03-19.7.69-1.1,1.43-2.23,2.36-3.12,4.85-4.64,6.39-10.18,5.91-16.86-.31-4.29-1.45-7.39-5.53-9.36-.37.31-.85.69-1.31,1.11-3.63,3.33-8.41,3.94-12.3,1.01-7.01-5.28-13.91-10.7-20.65-16.31-4.03-3.35-4.26-8.84-.93-13.38,9.22-12.57,18.49-25.1,27.74-37.64,6.15-8.34,12.29-16.68,18.45-25.01,4.38-5.92,9.91-6.7,15.67-2.19,5.95,4.66,11.85,9.39,17.81,14.05,3.55,2.77,5.26,6.15,4.23,10.74-.47,2.1,2.42,4.38,5.61,4.41,7,.05,14.01-.14,21,.09,3.23.11,5.54-.84,7.84-3.13,7.5-7.45,16.66-8.59,26.72-6.92,14.17,2.36,28.4,4.28,42.61,6.39,5.52.82,9.55-2.56,13.88-5.03.39-.22.35-1.34.38-2.04.17-4.2,2-7.34,5.88-9.09,8.41-3.79,16.82-7.6,25.29-11.25,5.8-2.5,10.95-.11,13.47,6.11,9.04,22.28,18.05,44.58,27.07,66.87,1.64,4.06,3.34,8.1,4.93,12.18,2.26,5.78.21,10.89-5.44,13.42-8.08,3.63-16.21,7.13-24.29,10.76-3.43,1.54-6.66,1.41-9.89-.49-.68-.4-1.56-.79-2.28-.7-4.43.52-8.85,1.17-13.22,1.77Zm-82.19,73.22c3.22,2.4,6.58,2.79,10.14,1.49,3.53-1.29,5.68-3.88,6.31-7.57.78-4.51-1.01-7.95-4.57-10.7-7.83-6.05-15.62-12.16-23.39-18.28-2.09-1.65-2.46-3.87-1.11-5.61,1.37-1.76,3.51-1.92,5.7-.31,2.18,1.61,4.28,3.31,6.42,4.97,7,5.45,13.93,10.98,21.01,16.32,6.21,4.68,14.41,1.31,15.21-6.18.42-3.9-1.42-6.79-4.55-9.01-9.13-6.49-18.24-13-27.34-19.54-2.21-1.59-2.7-3.68-1.44-5.52,1.26-1.84,3.44-2.1,5.67-.61,1.32.88,2.59,1.83,3.88,2.76,8.5,6.08,16.97,12.21,25.52,18.22,4.06,2.86,8.42,3.02,12.62.37,4.12-2.59,5.68-6.54,5-11.33-.49-3.47-2.58-5.88-5.31-7.9-10-7.36-19.97-14.75-29.93-22.16-2.24-1.66-2.7-3.72-1.45-5.54,1.32-1.93,3.54-2.15,5.89-.49,1.83,1.29,3.61,2.66,5.41,3.99,9.46,6.99,18.89,14.01,28.38,20.97,3.65,2.68,7.62,2.97,11.58.77,3.7-2.06,5.24-5.41,5.05-9.6-.07-1.63-.42-2.6-2.51-2.85-6.12-.73-11.71-3.08-16.64-6.81-3.43-2.59-6.75-5.31-10.1-8-11.37-9.1-22.76-18.17-34.09-27.33-4.92-3.98-10.01-4.6-15.54-1.46-1.62.92-3.29,1.76-4.99,2.52-9.96,4.47-20.05,4.74-30.17.67-10.13-4.07-12-14.29-4.24-21.95,2.89-2.86,5.47-6.03,8.16-9.03-3.62,0-7.68-.07-11.74.02-5.37.11-10.72.25-14.81-4.45-13.41,18.15-26.57,35.97-39.87,53.97,5.83,3.4,8.92,8.16,8.56,15.25,6.9-6.23,14.28-8.17,22.38-4.65,8.13,3.53,11.57,10.37,11.74,19.05,6.42-1.06,11.9.5,16.47,4.81,4.55,4.29,6.24,9.76,5.88,16.09,5.31-.35,9.84.96,13.63,4.42,3.88,3.54,5.42,8.12,5.59,13.23,15.2-1.88,25.32,13.04,17.61,26.98Zm92.6-82.21c-9.72-23.97-19.33-47.69-29.03-71.61-1.98,1.08-3.7,1.97-5.37,2.95-4.3,2.52-8.93,3.11-13.78,2.39-15.04-2.21-30.09-4.38-45.12-6.66-6.79-1.03-12.52.89-17.42,5.57-6.75,6.45-13.51,12.89-20.22,19.38-3.89,3.76-3.16,7.39,1.91,9.44,9.81,3.96,19.17,2.62,28.19-2.53,8.82-5.04,16.99-4.09,24.86,2.32,13.9,11.32,27.96,22.44,41.93,33.66,6.16,4.94,13.15,7.39,21.05,6.77,4.26-.33,8.49-1.08,13.01-1.68Zm3.79-94.57c-1.42.54-2.3.84-3.14,1.21-7.32,3.25-14.64,6.51-21.95,9.77-3.59,1.6-3.72,1.88-2.28,5.43,10.42,25.72,20.85,51.44,31.28,77.16,1.32,3.25,2.05,3.55,5.27,2.13,7.42-3.26,14.83-6.54,22.23-9.83,3.25-1.44,3.47-2.01,2.13-5.32-5.62-13.9-11.26-27.79-16.88-41.69-4.82-11.91-9.61-23.84-14.48-35.73-.47-1.15-1.44-2.09-2.16-3.12Zm-160.67,17.67c-.67-.81-1.18-1.7-1.93-2.29-5.9-4.72-11.84-9.39-17.78-14.05-2.52-1.97-3.23-1.86-5.18.78-15.21,20.65-30.38,41.32-45.63,61.95-1.56,2.12-1.39,3.54.68,5.14,5.84,4.49,11.58,9.11,17.37,13.67,2.49,1.96,3.34,1.86,5.22-.68,15.29-20.71,30.56-41.42,45.83-62.14.48-.66.84-1.41,1.42-2.37Zm-14.21,80.29c-3.59.08-6.62,1.15-8.7,3.73-5.27,6.52-10.51,13.09-15.4,19.89-3.55,4.92-2.22,11.8,2.45,15.59,4.73,3.84,11.74,3.83,15.71-.8,5.64-6.56,10.91-13.47,15.95-20.51,2.63-3.66,2.4-7.98.13-11.93-2.27-3.97-5.87-5.82-10.14-5.96Zm34.89,31.93c-.5-4.96-3.54-9.16-8.21-10.87-4.28-1.57-9-.29-12.04,3.53-4.71,5.9-9.34,11.87-13.89,17.9-3.95,5.23-3.23,11.61,1.56,15.46,4.73,3.8,11.54,2.96,15.67-2.07,4.67-5.69,9.35-11.39,13.77-17.27,1.45-1.92,2.11-4.43,3.13-6.67Zm-.74,42.8c2.18-1.24,4.91-2.02,6.45-3.82,3.99-4.67,7.62-9.68,11.1-14.76,2.91-4.24,1.76-9.77-2.24-12.72-3.97-2.93-9.32-2.46-12.63,1.4-3.83,4.46-7.51,9.05-11.09,13.72-2.36,3.07-2.65,6.58-.8,10.01,1.86,3.44,4.8,5.38,9.21,6.17Zm23.94,11.77c3.96-.02,6.59-1.05,8.31-3.43,2.35-3.23,4.62-6.57,6.47-10.1,2.31-4.39.45-9.92-3.76-12.43-4.2-2.51-9.44-1.57-12.52,2.29-1.97,2.48-3.92,4.98-5.82,7.51-2.46,3.28-2.87,6.9-.99,10.51,1.9,3.66,5.11,5.55,8.31,5.64Z"/>
  <path class="cls-1" d="m128.67,60.18c.06-24.55,20.29-44.66,44.87-44.61,24.55.06,44.68,20.3,44.61,44.87-.07,24.56-20.34,44.73-44.86,44.62-24.57-.11-44.68-20.33-44.62-44.88Zm7.6-.1c-.16,20.44,16.28,37.17,36.7,37.36,20.69.18,37.39-16.15,37.57-36.75.17-20.66-16.23-37.37-36.82-37.5-20.64-.13-37.28,16.27-37.45,36.9Z"/>
  <path class="cls-1" d="m166.89,66.17c6.11-6.15,11.9-11.98,17.69-17.8.53-.53,1.04-1.08,1.6-1.56,1.76-1.5,3.63-1.59,5.25.05,1.63,1.65,1.56,3.63-.04,5.25-7.22,7.3-14.47,14.57-21.79,21.77-1.73,1.7-3.75,1.54-5.49-.15-2.88-2.8-5.73-5.62-8.51-8.52-1.71-1.78-1.69-4-.07-5.45,1.75-1.57,3.61-1.45,5.25.13,2.01,1.94,3.9,4.01,6.09,6.29Z"/>
</svg>