<?xml version="1.0" encoding="UTF-8"?>
<svg id="Layer_1" data-name="Layer 1" xmlns="http://www.w3.org/2000/svg" viewBox="0 0 311.25 294.06">
  <defs>
    <style>
      .cls-1 {
        fill: #46b1da;
        stroke-width: 0px;
      }
    </style>
  </defs>
  <path class="cls-1" d="m197.09,43.34c5.29,1.71,10.57,3.44,15.86,5.13,3.75,1.2,7.52,2.33,11.27,3.53,3.31,1.06,4.5,3.12,3.71,6.47-2.12,8.94-4.26,17.87-6.43,26.79-.88,3.61-3.93,5.14-7,3.6-2.09-1.05-2.88-3-2.24-5.7,1.18-4.98,2.39-9.95,3.58-14.93.1-.44.15-.88.29-1.68-.97.54-1.68.93-2.38,1.34-43.98,25.69-87.97,51.39-131.95,77.08-.51.3-1.02.6-1.54.88-2.79,1.51-5.29.89-6.76-1.68-1.43-2.49-.74-4.9,1.97-6.5,7.01-4.13,14.06-8.21,21.09-12.32,37.81-22.08,75.62-44.16,113.43-66.24.51-.3,1-.61,1.83-1.11-2.69-.87-5.08-1.65-7.47-2.41-2.81-.89-5.63-1.79-8.46-2.61-2.26-.65-4.26-1.58-4.61-4.22-.34-2.54,1.03-4.21,3.08-5.45.92,0,1.84,0,2.76,0Z"/>
  <path class="cls-1" d="m232.96,235.82c2.67,0,5.1-.03,7.52,0,3.05.04,4.96,1.83,5.01,4.65.05,2.87-1.91,4.8-5.05,4.8-10.78.02-21.56,0-32.34,0-48.58,0-97.15,0-145.73,0-.59,0-1.18,0-1.77,0-3.15-.07-5.11-1.92-5.08-4.79.03-2.81,1.94-4.61,5-4.66,2.43-.04,4.86,0,7.62,0,0-.82,0-1.57,0-2.32,0-21.89,0-43.78,0-65.67,0-4.56,1.6-6.17,6.15-6.18,11.77,0,23.53,0,35.3,0,4.19,0,5.88,1.67,5.88,5.82,0,21.89,0,43.78,0,65.67v2.51h11.39v-2.32c0-29.32,0-58.63,0-87.95,0-4.71,1.52-6.22,6.27-6.22,11.7,0,23.4,0,35.1,0,4.26,0,5.95,1.7,5.95,5.99,0,29.38,0,58.77,0,88.15,0,.77,0,1.54,0,2.41h11.46c0-.81,0-1.63,0-2.46,0-39.51,0-79.01,0-118.52,0-4.86,1.48-6.32,6.36-6.32,11.7,0,23.4,0,35.1,0,4.13,0,5.86,1.72,5.86,5.87,0,39.57,0,79.14,0,118.71v2.82Zm-9.6-.1v-117.69h-28.16v117.69h28.16Zm-86.91-86.98v86.91h28.16v-86.91h-28.16Zm-58.76,86.97h28.18v-64.43h-28.18v64.43Z"/>
</svg>