<?xml version="1.0" encoding="UTF-8"?>
<svg id="Layer_1" data-name="Layer 1" xmlns="http://www.w3.org/2000/svg" viewBox="0 0 315.13 299.49">
  <defs>
    <style>
      .cls-1 {
        fill: #46b1da;
        stroke-width: 0px;
      }
    </style>
  </defs>
  <path class="cls-1" d="m92.47,264.17c-1.89-1.31-2.38-3.11-2.36-5.37.09-11.35.04-22.7.04-34.05,0-8.04,4.4-12.44,12.45-12.47.69,0,1.37,0,2.39,0-.17-4.13-.05-8.12,2.99-11.3,3.04-3.17,6.87-3.85,11.2-3.48-1.28-8.39-2.51-16.46-3.75-24.53-3.17-20.58-6.34-41.16-9.51-61.75-2.71-17.61-5.4-35.22-8.13-52.83-.58-3.74.74-5.46,4.47-5.49,35.11-.3,68.23-8.62,99.43-24.69.41-.21.82-.59,1.24-.6,1.45-.04,3.24-.44,4.26.24.93.62,1.56,2.53,1.43,3.78-.64,6.29-1.57,12.55-2.39,18.82-2.25,17.21-4.5,34.42-6.74,51.63-2.23,17.06-4.45,34.12-6.68,51.18-.4,3.06-.8,6.12-1.21,9.18-.09.69-.17,1.38-.32,2.06-.5,2.24-2.09,3.5-4.06,3.26-2.09-.25-3.46-2-3.19-4.33.54-4.67,1.17-9.34,1.78-14,2.39-18.36,4.79-36.72,7.19-55.08,2.25-17.21,4.49-34.42,6.74-51.63.23-1.75.43-3.5.69-5.59-30,14.64-61.44,22.3-94.85,23.16,7.05,45.82,14.06,91.43,21.08,137.07h52.89c.79-6.1,1.57-12.13,2.36-18.16.32-2.43,1.79-3.93,3.79-3.92,1.94.01,3.5,1.5,3.61,3.49.04.69-.02,1.39-.11,2.08-.68,5.2-1.38,10.4-2.07,15.6-.03.23,0,.46,0,1,4.05-.23,7.96.21,11.03,3.35,3.09,3.16,3.39,7.1,3.14,11.48,1.45,0,2.73-.04,4.01,0,5.95.2,10.75,4.87,10.8,10.83.1,12.28.11,24.55-.07,36.83-.02,1.42-1.44,2.81-2.21,4.22h-121.39Zm116.29-7.51v-2.47c0-9.73,0-19.45,0-29.18,0-4.24-1.08-5.32-5.34-5.32-21.08,0-42.15,0-63.23,0-.77,0-1.56.08-2.31-.06-1.99-.36-3.2-1.59-3.2-3.64,0-2.05,1.2-3.28,3.2-3.65.75-.14,1.54-.06,2.31-.06,17.06,0,34.12,0,51.18,0h2.42c.51-6.52-.29-7.41-6.4-7.41-17.06,0-34.12,0-51.18,0-6.48,0-12.97.02-19.45,0-2.21,0-3.83.84-4.24,3.07-.25,1.38-.05,2.84-.05,4.35,3.54,0,6.77-.01,10.01,0,3,.01,4.65,1.28,4.73,3.59.08,2.37-1.69,3.81-4.74,3.81-6.72.01-13.43,0-20.15,0-3.48,0-4.74,1.26-4.74,4.75-.01,10.19,0,20.38,0,30.57,0,.52.05,1.04.09,1.64h111.11Z"/>
  <path class="cls-1" d="m135.09,115.22c.66-3.86,1.31-8.05,2.13-12.21.27-1.38,0-2.29-1.03-3.24-2.88-2.68-5.63-5.5-8.49-8.2-1.31-1.24-2.15-2.81-1.27-4.3.67-1.14,2.17-2.21,3.47-2.49,3.84-.82,7.78-1.12,11.64-1.86,1.01-.19,2.22-1.04,2.72-1.93,1.76-3.16,3.29-6.45,4.85-9.72.84-1.75,1.83-3.3,4.01-3.33,2.3-.03,3.31,1.6,4.18,3.43,1.52,3.2,3.18,6.34,4.65,9.56.62,1.36,1.49,1.93,2.96,2.1,3.9.47,7.78,1.13,11.67,1.67,1.67.23,3.24.94,3.36,2.62.09,1.35-.4,3.11-1.29,4.09-2.68,2.98-5.74,5.6-8.5,8.51-.65.69-1.07,2.01-.94,2.96.5,3.82,1.25,7.6,1.92,11.4.31,1.75.27,3.42-1.34,4.59-1.6,1.17-3.16.73-4.76-.14-3.39-1.84-6.85-3.53-10.21-5.42-1.26-.71-2.19-.57-3.39.09-3.58,1.97-7.19,3.88-10.85,5.68-2.9,1.42-5.59-.38-5.49-3.87Zm33.31-24.2c-2.55-.38-4.79-.83-7.05-1.03-2.41-.21-3.98-1.29-4.93-3.53-.91-2.13-2.05-4.15-3.27-6.57-1.27,2.56-2.38,4.59-3.29,6.71-.93,2.16-2.49,3.16-4.79,3.38-2.3.23-4.58.67-7.08,1.06,2.06,2.09,4.03,3.75,5.55,5.76.87,1.15,1.4,2.87,1.36,4.31-.07,2.53-.71,5.05-1.17,7.99,2.37-1.25,4.34-2.13,6.15-3.27,2.31-1.45,4.42-1.35,6.7.04,1.82,1.11,3.78,2,6.05,3.18-.45-2.81-.71-5.26-1.25-7.64-.47-2.07.16-3.56,1.64-4.95,1.78-1.67,3.44-3.46,5.39-5.43Z"/>
  <path class="cls-1" d="m153.02,145.56c-5.79,0-11.58,0-17.37,0-2.96,0-4.64-1.32-4.7-3.62-.06-2.38,1.68-3.78,4.76-3.79,11.66,0,23.32,0,34.98,0,2.96,0,4.65,1.32,4.7,3.61.06,2.37-1.7,3.78-4.76,3.79-5.87.01-11.74,0-17.6,0Z"/>
  <path class="cls-1" d="m153.02,160.39c-3.47,0-6.95.03-10.42,0-2.57-.03-4.18-1.45-4.24-3.61-.05-2.25,1.61-3.77,4.3-3.78,7.03-.03,14.05-.03,21.08,0,2.57.01,4.19,1.44,4.24,3.61.05,2.25-1.62,3.76-4.3,3.78-3.55.03-7.1,0-10.65,0Z"/>
  <path class="cls-1" d="m153.31,234.52c7.03,0,14.05,0,21.08,0,2.96,0,4.65,1.32,4.7,3.62.06,2.37-1.7,3.79-4.77,3.79-14.13,0-28.26,0-42.39,0-2.96,0-4.64-1.33-4.7-3.62-.05-2.38,1.68-3.78,4.76-3.78,7.1-.01,14.21,0,21.31,0Z"/>
</svg>