<?xml version="1.0" encoding="UTF-8"?>
<svg id="Layer_1" data-name="Layer 1" xmlns="http://www.w3.org/2000/svg" viewBox="0 0 332.43 316.49">
  <defs>
    <style>
      .cls-1 {
        fill: #46b1da;
        stroke-width: 0px;
      }
    </style>
  </defs>
  <path class="cls-1" d="m135.02,31.25c3.56,1.25,7.26,2.21,10.64,3.84,2.4,1.15,4.69,2.92,6.44,4.93,1.73,1.98,3.49,2.27,5.84,2.09,19.23-1.53,37.69,1.71,55.47,9.06.53.22,1.07.44,1.59.69,2.23,1.1,3.11,3.09,2.25,5.07-.84,1.92-2.89,2.53-5.28,1.71-6.16-2.11-12.26-4.45-18.54-6.17-10.35-2.83-20.98-3.64-31.7-3.27-.9.03-1.8.15-2.9.24.53,2.44,1.18,4.71,1.49,7.03,1.26,9.47-1.37,18.17-5.53,26.51-3.45,6.93-8,13.12-13.23,18.79-5.52,5.98-14.21,6.27-19.82.37-8.84-9.29-15.51-19.91-18.52-32.57-.07-.3-.21-.59-.42-1.18-1.61,1.13-3.19,2.03-4.52,3.2-5.5,4.87-10.92,9.83-16.4,14.72-1.15,1.03-1.11,2.09-.82,3.52,1.5,7.59,5.59,13.07,12.6,16.43,2,.96,3.91,2.17,5.72,3.46,6.6,4.66,13.77,7.54,21.89,8.49,6.67.78,12.13,6.36,13.27,12.43.95,5.02-.98,9.23-5.47,11.65-3.56,1.92-7.27,3.58-10.74,5.64-1.27.75-2.57,2.18-2.97,3.56-1.98,6.81-3.67,13.71-5.46,20.58-.47,1.81-.6,3.58,1.48,4.41,1.89.75,3.12-.33,4.03-1.93.65-1.15,1.36-2.27,2.08-3.37,4.57-7,13.65-6.93,17.97.21,3.59,5.94,7.06,11.95,10.45,18,1,1.79,2.28,2.86,4.23,3.46,4.73,1.45,9.43,3.04,14.12,4.6,10.65,3.54,14.31,14.11,8.11,23.41-3.42,5.14-3.2,7.76,1.06,12.28.85.9,1.63,1.88,2.57,2.69,5.73,4.97,6.44,11.47,5.53,18.37-.48,3.65-2.44,6.61-5.28,8.99-4.3,3.6-4.93,9.38-1.33,13.54.54.62,2.11.6,3.16.49,9.81-1.05,19.38-3.21,28.6-6.78,26.31-10.19,46.3-27.64,60.01-52.29.39-.71.75-1.43,1.2-2.31-5.37-4.14-10.66-8.21-16.12-12.42-.31.57-.62,1-.81,1.49-3.61,9.3-9.17,17.36-15.87,24.66-5.31,5.78-13.99,6.33-19.26.85-9.72-10.11-17.13-21.6-19.55-35.76-.14-.81-.19-1.64-.28-2.46-.09-.82-.17-1.63-.3-2.79-5.91,2.21-10.3-.62-14.54-4.04-1.54-1.24-3.23-2.3-4.8-3.51-4.88-3.78-5.86-9.94-2.28-14.97,2.97-4.17,5.97-8.35,9.21-12.31,3.54-4.33,4.31-9.55,5.34-14.72,2.45-12.4,11.05-20.43,23.22-21.55,1.87-.17,3.79.08,5.68.18,4.02.21,7.04-1.23,8.85-5.01,1.25-2.6,2.67-5.13,4.12-7.63,2.47-4.28,6.21-6.94,11.09-7.48,3.82-.42,6.22-2.34,7.91-5.54.84-1.6,1.69-3.2,2.59-4.9-7-8.03-15.02-14.86-23.96-20.64-.69-.45-1.41-.87-2.08-1.34-2.1-1.48-2.64-3.45-1.47-5.31,1.14-1.82,3.37-2.35,5.42-.93,4.82,3.33,9.8,6.51,14.26,10.29,25.15,21.35,39.9,48.45,43.06,81.31,3.74,38.91-8.69,72.41-36.37,99.86-19.23,19.07-42.94,29.78-69.73,33.06-33.6,4.12-63.82-4.71-90.61-25.37-.59-.45-1.2-.89-1.71-1.43-1.44-1.54-1.6-3.29-.3-4.93,1.31-1.64,3.1-1.97,4.86-.78,2.25,1.53,4.34,3.31,6.57,4.88,19.69,13.9,41.61,20.89,65.68,21.21.33,0,.65-.03,1.24-.05-.43-1.48-.89-2.84-1.22-4.23-1.47-6.18-.07-11.43,5.05-15.49,4.51-3.58,5.15-11.21,1.31-15.49-1.71-1.91-3.51-3.74-5.24-5.62-5.07-5.53-5.63-12.58-1.5-18.9.45-.69.95-1.35,1.38-2.06,2.68-4.37,1.02-9.4-3.81-11.11-5.21-1.85-10.47-3.56-15.75-5.21-3.16-.99-5.5-2.82-7.15-5.72-3.43-6.03-6.95-12.01-10.46-18-1.93-3.3-4.11-3.34-6.14-.16-.8,1.25-1.53,2.55-2.38,3.78-2.93,4.24-8.11,5.77-12.69,3.79-4.54-1.96-7.14-6.87-5.93-11.84,1.9-7.78,3.99-15.51,6.07-23.24.82-3.04,2.79-5.18,5.59-6.6,3.68-1.87,7.35-3.76,11.01-5.68,2.31-1.22,2.78-2.48,1.82-4.87-1.19-2.97-3.39-4.85-6.51-5.55-1.85-.42-3.73-.73-5.61-1-4.72-.68-9.11-2.17-13.16-4.76-4.8-3.07-9.68-6.03-14.61-8.89-5.77-3.35-9.78-8.03-11.67-14.47-.11-.38-.33-.74-.63-1.4-.84,1.16-1.58,2.13-2.28,3.13-30.19,42.88-26.64,102.3,8.42,141.29.72.8,1.45,1.59,2.14,2.41,1.64,1.97,1.64,4.03.02,5.51-1.61,1.46-3.9,1.41-5.47-.55-4.85-6.06-10.04-11.92-14.2-18.43-14.39-22.52-20.67-47.36-18.42-73.94,3.32-39.29,21.62-70.16,54.18-92.47,2.01-1.38,3.18-2.72,3.58-5.31,2.06-13.29,10.88-22.31,24.03-25.04.31-.06.58-.27.87-.4,2.48,0,4.96,0,7.44,0Zm136.09,177.64c16.12-35.64,11.76-81.65-13.86-114.45-.38.57-.79,1.08-1.08,1.66-2.85,5.65-7.18,9.1-13.68,9.67-2.62.23-4.52,1.87-5.78,4.2-1.57,2.91-3.09,5.84-4.75,8.7-2.35,4.03-5.87,6.47-10.55,6.94-2.12.22-4.29.23-6.42.08-7.57-.53-14.76,3.76-17.57,10.81-.88,2.2-1.45,4.57-1.85,6.91-1.1,6.57-3.46,12.51-7.81,17.67-2.61,3.09-4.92,6.43-7.31,9.7-1.52,2.08-1.4,3.76.49,5.19,2.76,2.1,5.55,4.17,8.44,6.09,2.53,1.67,7.07-.05,8.03-2.88,4.78-14.14,19.1-22.58,33.19-19.58,15.8,3.37,25.67,17.67,23.36,33.75-.12.85-.04,2.19.49,2.62,5.47,4.38,11.06,8.61,16.66,12.92ZM131.34,38.17c-3.13.93-6.45,1.47-9.36,2.86-9.61,4.58-14.13,15.19-11.56,26.65,2.57,11.48,8.92,20.86,16.72,29.35,2.58,2.81,6.56,2.54,9.14-.55,2.96-3.54,5.86-7.17,8.42-11.01,4.68-7.02,7.86-14.66,8.5-23.22.94-12.63-9.09-23.56-21.85-24.09Zm115.43,148.28c.12-12.19-13.13-22.78-26.97-19.29-11.46,2.89-18.41,14.41-16.11,26.73,2.26,12.14,8.83,21.94,16.93,30.85,2.62,2.88,6.68,2.81,9.1-.37,4.19-5.5,8.33-11.09,11.87-17.01,3.37-5.64,5.12-11.97,5.17-20.91Z"/>
  <path class="cls-1" d="m131.54,47.48c7.28.05,12.99,5.86,12.93,13.16-.06,7.22-5.95,12.94-13.25,12.85-7.12-.08-12.86-5.92-12.83-13.05.03-7.25,5.87-13.02,13.15-12.97Zm-.22,7.46c-3.08.05-5.45,2.46-5.45,5.54,0,3.16,2.51,5.61,5.69,5.56,3.06-.06,5.45-2.49,5.46-5.54,0-3.15-2.51-5.61-5.69-5.55Z"/>
  <path class="cls-1" d="m211.95,188.2c.04-7.17,6.04-13.09,13.2-13.01,7.06.08,12.92,5.97,12.95,13.03.04,7.13-5.96,13.15-13.1,13.14-7.16,0-13.09-5.99-13.05-13.17Zm18.69.11c.02-2.95-2.51-5.56-5.48-5.66-3.05-.1-5.75,2.52-5.77,5.59-.02,3.07,2.66,5.73,5.7,5.67,2.95-.06,5.52-2.65,5.54-5.6Z"/>
</svg>