<?xml version="1.0" encoding="UTF-8"?>
<svg id="Layer_1" data-name="Layer 1" xmlns="http://www.w3.org/2000/svg" viewBox="0 0 332.43 316.49">
  <defs>
    <style>
      .cls-1 {
        fill: #46b1da;
        stroke-width: 0px;
      }
    </style>
  </defs>
  <path class="cls-1" d="m104.5,165.01c-14.55-13.12-20.78-29.63-18.93-48.99,1.46-15.21,8.19-27.96,19.87-37.9,23.05-19.64,58.42-17.81,79.45,3.94,21.74,22.49,21.89,61.26-3.37,83.12.99.51,1.91.97,2.82,1.45,29.97,15.83,46.83,40.65,50.76,74.27.35,2.95.48,5.95.46,8.92-.05,6.47-4.22,10.9-10.41,11.27-7.14.42-11.78-3.26-12.61-10.11-.67-5.55-.72-11.21-1.92-16.64-7.54-34.22-39.95-57.41-74.76-53.72-34.61,3.66-60.77,31.92-62.21,67.16-.07,1.71-.05,3.47-.43,5.12-1.34,5.73-6.24,8.77-12.87,8.15-5.65-.54-9.65-4.79-9.74-10.75-.27-17.41,4.25-33.58,13.16-48.49,9.43-15.78,22.49-27.65,39.03-35.67.41-.2.82-.38,1.21-.6.14-.08.23-.24.5-.52Zm38.33-8c19.7.12,34.72-14.7,34.85-34.39.13-19.79-14.87-34.98-34.58-35.02-19.54-.03-34.71,15.05-34.8,34.61-.09,19.6,14.87,34.68,34.53,34.8Z"/>
  <path class="cls-1" d="m238.85,152.65c7.87-7.87,15.16-15.39,22.75-22.6,1.98-1.88,4.76-3.45,7.4-3.96,5.14-1,9.35,1.84,11.61,6.85,2.28,5.05,1.4,8.98-2.61,12.95-9.94,9.86-19.81,19.79-29.71,29.68-6.24,6.24-12.27,6.22-18.54-.04-4.48-4.46-8.96-8.92-13.39-13.43-5.07-5.16-5.22-11.84-.43-16.61,4.77-4.74,11.55-4.59,16.61.46,2.11,2.1,4.08,4.32,6.31,6.69Z"/>
</svg>