<?xml version="1.0" encoding="UTF-8"?>
<svg id="Layer_1" data-name="Layer 1" xmlns="http://www.w3.org/2000/svg" viewBox="0 0 311.25 264.1">
  <defs>
    <style>
      .cls-1 {
        fill: #46b1da;
        stroke-width: 0px;
      }
    </style>
  </defs>
  <path class="cls-1" d="m241.9,171.47c-.88,2.07-2.43,2.82-4.67,2.81-12.3-.06-24.6,0-36.9-.04-11.34-.04-20.32-8.94-20.38-20.11-.06-11.11,8.9-20.13,20.24-20.3,5-.08,10,0,15-.02,2.38,0,2.79-.4,2.79-2.7,0-6.68.01-13.37,0-20.05-.01-5.12-3.2-8.34-8.28-8.34-41.56,0-83.13,0-124.69,0-5,0-8.24,3.23-8.24,8.21,0,30.61,0,61.21,0,91.82,0,4.88,3.25,8.15,8.14,8.15,41.62.01,83.24.01,124.86,0,4.99,0,8.2-3.24,8.22-8.24.02-5,0-10,0-14.99,0-2.64,1.43-4.33,3.64-4.37,2.27-.04,3.75,1.68,3.76,4.41.01,5.05.03,10.11,0,15.16-.07,8.84-6.64,15.42-15.49,15.43-41.68.02-83.35.02-125.03,0-8.92,0-15.5-6.63-15.5-15.59-.02-30.61-.02-61.21,0-91.82,0-8.96,6.52-15.54,15.52-15.52,2.16,0,3.46-.72,4.75-2.39,11.45-14.85,22.98-29.64,34.52-44.42.81-1.03,1.88-1.86,2.83-2.78.79,0,1.57,0,2.36,0,.7.53,1.4,1.06,2.1,1.58,5.73,4.3,11.48,8.58,17.2,12.9,1.03.78,1.95,1.15,3.19.4,8.22-4.98,16.46-9.92,24.69-14.88.67,0,1.35,0,2.02,0,.96.9,2.14,1.66,2.86,2.72,10.16,15.13,20.24,30.31,30.39,45.45.52.77,1.36,1.56,2.22,1.84,7.39,2.42,11.37,7.8,11.38,15.6,0,6.56,0,13.13,0,19.69,0,2.32.41,2.72,2.77,2.72,2.86,0,5.73.08,8.59-.02,2.27-.09,4.05.56,5.16,2.64v35.04Zm-69.01-76.15c1.35,0,2.71.14,4.03-.05.82-.12,1.87-.54,2.29-1.18.68-1.05-.22-1.83-1.08-2.47-15.81-11.84-31.61-23.7-47.41-35.54-1.53-1.15-2.26-1.06-3.4.4-9.17,11.78-18.35,23.55-27.46,35.37-.47.61-.87,1.86-.56,2.34.39.62,1.52,1.05,2.35,1.07,3.81.11,7.63-.01,11.45.08,1.51.04,2.49-.45,3.39-1.67,4.43-6.01,8.93-11.96,13.41-17.92,2.2-2.93,3.72-3.19,6.81-1.13,8.87,5.91,17.78,11.76,26.57,17.79,2.97,2.04,5.87,3.73,9.62,2.9Zm42.55,71.49s0,.03,0,.05c5.5,0,11.01.01,16.51,0,1.96,0,2.53-.52,2.53-2.3.02-7.02,0-14.04.01-21.06,0-1.56-.75-2.27-2.26-2.27-10.95,0-21.91-.14-32.85.06-8.47.15-14.22,8.05-12.08,16.13,1.41,5.3,6.1,9.21,11.63,9.36,5.5.15,11.01.03,16.51.03Zm-17.66-71.49c.69,0,1.11.09,1.47-.02.91-.27,2.22-.39,2.56-1.01.34-.62-.08-1.93-.57-2.67-7.7-11.66-15.46-23.28-23.22-34.9-1.27-1.9-1.88-2.03-3.86-.84-4.76,2.86-9.52,5.72-14.28,8.58-2.22,1.34-2.3,2.5-.23,4.05,11.17,8.4,22.36,16.77,33.52,25.19,1.49,1.12,2.96,2.03,4.62,1.62Zm-59.59,0c3.19,0,6.39-.02,9.58.01,1.11.01,2.24-.21,2.31-1.39.04-.74-.57-1.81-1.21-2.27-4.09-2.85-8.26-5.58-12.42-8.33-1.58-1.04-2.28-.92-3.4.55-2,2.63-4.02,5.25-5.92,7.95-.45.64-.85,1.86-.54,2.35.39.62,1.52,1.04,2.35,1.07,3.08.12,6.16.05,9.25.05Z"/>
  <path class="cls-1" d="m118.89,159.64c0-5.28,0-10.56,0-15.83,0-2.03-.55-2.56-2.62-2.58-1.57-.02-3.15.03-4.72-.03-2.16-.08-3.69-1.55-3.76-3.53-.07-1.97,1.37-3.6,3.52-3.79,1.56-.13,3.14-.06,4.71-.07,2.47-.01,2.86-.39,2.87-2.8,0-1.46-.03-2.92.01-4.38.06-2.25,1.55-3.83,3.61-3.88,2.11-.05,3.71,1.57,3.78,3.89.04,1.63.04,3.26,0,4.88-.03,1.53.64,2.31,2.21,2.29,1.57-.02,3.14-.02,4.72,0,1.58.02,2.22-.79,2.2-2.31-.03-1.63-.04-3.26,0-4.88.06-2.25,1.56-3.83,3.62-3.87,2.11-.05,3.71,1.58,3.77,3.9.05,1.91.06,3.82,0,5.73-.05,1.3.48,2.07,1.66,2.6,8.44,3.79,11.53,12.04,7.6,20.34-.65,1.36-.44,2.25.78,3.16,5.51,4.09,7.64,10.13,5.83,16.28-1.79,6.11-6.84,9.99-13.74,10.52-1.45.11-2.13.81-2.11,2.25.02,1.63.04,3.26,0,4.88-.06,2.24-1.58,3.83-3.63,3.87-2.11.05-3.71-1.59-3.77-3.9-.04-1.57,0-3.14-.01-4.72-.02-1.75-.6-2.35-2.29-2.38-1.57-.03-3.14-.01-4.72,0-1.37,0-2.08.7-2.09,2.07,0,1.35,0,2.69,0,4.04,0,3.09-1.32,4.75-3.75,4.73-2.35-.02-3.65-1.68-3.66-4.65,0-1.35,0-2.7,0-4.04,0-1.46-.73-2.17-2.18-2.16-1.63,0-3.26.03-4.89,0-2.33-.06-3.96-1.62-3.94-3.73.02-2.11,1.65-3.61,4.01-3.66,1.46-.03,2.92,0,4.38,0,2.07-.02,2.6-.54,2.61-2.57.01-5.22,0-10.44,0-15.66Zm18.08,3.66c-2.75,0-5.5-.02-8.25,0-1.89.01-2.41.52-2.42,2.39-.02,3.25-.02,6.51,0,9.76,0,1.84.58,2.42,2.41,2.42,5.33.01,10.66.04,15.99-.01,4.24-.05,7.18-3.08,7.18-7.28,0-4.22-2.89-7.18-7.17-7.27-2.58-.05-5.16,0-7.74-.01Zm-2.98-21.9c0-.05,0-.11,0-.16-1.85,0-3.7-.02-5.55,0-1.32.02-2.14.62-2.14,2.03,0,3.53,0,7.06,0,10.59,0,1.22.66,1.99,1.82,2,4.14.02,8.31.14,12.43-.21,3.57-.3,5.81-3.36,5.8-7.1,0-3.73-2.26-6.67-5.81-7.11-2.15-.27-4.36-.05-6.54-.05Z"/>
</svg>