<?xml version="1.0" encoding="UTF-8"?>
<svg id="Layer_1" data-name="Layer 1" xmlns="http://www.w3.org/2000/svg" viewBox="0 0 311.25 264.1">
  <defs>
    <style>
      .cls-1 {
        fill: #46b1da;
        stroke-width: 0px;
      }
    </style>
  </defs>
  <path class="cls-1" d="m111.62,56.94c2.25,0,4.5,0,6.75,0,.33.09.65.21.98.25,8.86.91,16.32,4.7,22.54,11,5.91,5.98,9.86,13.15,12.86,20.92.25.65.5,1.29.87,2.25.39-1,.64-1.62.88-2.25,2.04-5.36,4.59-10.45,7.95-15.11,5.54-7.67,12.53-13.36,21.84-15.79,2.16-.56,4.39-.86,6.59-1.28,2.25,0,4.5,0,6.75,0,.52.1,1.04.22,1.57.29,3.22.43,6.34,1.22,9.16,2.89,5.34,3.16,8.12,7.79,7.78,14.07-.28,5.05-2.61,9.25-5.76,13.04-4.76,5.73-10.87,9.6-17.6,12.6-.45.2-.89.44-1.34.66.03.08.06.16.08.24.53,0,1.07,0,1.6,0,8.51,0,17.01,0,25.52,0,5.15,0,8.44,2.52,9.87,7.47.04.13.14.25.22.37v22c-.08.12-.2.22-.24.35-1.49,4.94-4.66,7.32-9.79,7.35-.81,0-1.61,0-2.51,0,0,.89,0,1.52,0,2.15,0,18.87,0,37.74,0,56.6,0,6.28-3.88,10.11-10.17,10.11-34.95,0-69.9,0-104.85,0-.73,0-1.47,0-2.19-.13-4.9-.86-7.9-4.61-7.9-9.91,0-18.97,0-37.93,0-56.9,0-.61,0-1.22,0-1.93-1.04,0-1.81,0-2.59,0-6.06-.04-9.94-3.95-9.95-10.04,0-5.72,0-11.44,0-17.16,0-6.52,3.86-10.35,10.42-10.35,8.46,0,16.91,0,25.37,0,.49,0,.97,0,1.73,0-.33-.3-.35-.34-.39-.36-.89-.41-1.78-.79-2.66-1.22-7.14-3.45-13.53-7.83-18.05-14.52-2.84-4.22-4.56-8.82-3.67-13.96,1.12-6.47,5.43-10.19,11.39-12.16,2.25-.74,4.63-1.06,6.96-1.57Zm-12.32,81.5v1.74c0,18.81,0,37.63,0,56.44,0,3.27,1.02,4.29,4.28,4.29,15.74,0,31.47,0,47.21,0,.52,0,1.04,0,1.58,0v-62.48h-53.06Zm112.66.05h-53.06v62.43h1.7c15.69,0,31.37,0,47.06,0,3.28,0,4.3-1.02,4.3-4.27,0-18.81,0-37.63,0-56.44v-1.72Zm-59.56-31.34c-.5-.03-.93-.07-1.36-.07-20.19-.01-40.38-.03-60.57-.03-2.59,0-3.69,1.15-3.7,3.82-.01,5.72-.01,11.44,0,17.16,0,2.94,1.11,4.02,4.11,4.02,20,0,39.99,0,59.99,0h1.53v-24.9Zm6.45,24.83c.33.03.52.07.71.07,20.48,0,40.97,0,61.45,0,2.31,0,3.47-1.28,3.48-3.76.02-5.82.02-11.64,0-17.45,0-2.64-1.13-3.78-3.74-3.78-20.14,0-40.28.02-60.43.03-.47,0-.95.05-1.48.08v24.82Zm-7-31.29c-2.34-9.55-5.78-18.35-12.08-25.79-6.38-7.54-14.5-11.54-24.43-11.68-3.64-.05-7.23.35-10.56,1.97-4.68,2.27-6.48,6.34-4.92,11.3.45,1.43,1.11,2.83,1.89,4.1,2.09,3.44,5.03,6.09,8.3,8.37,7.17,5.01,15.23,7.83,23.7,9.64,5.89,1.26,11.85,1.9,18.11,2.08Zm7.58-.09c1.11,0,1.99.09,2.86-.02,5.13-.64,10.31-1.06,15.38-2.05,8.6-1.68,16.73-4.67,23.93-9.84,3.69-2.65,6.91-5.75,8.94-9.91,1.09-2.24,1.75-4.59,1.29-7.09-.77-4.2-3.77-6.36-7.53-7.35-10.15-2.67-19.54-.85-27.71,5.79-9.64,7.83-14.04,18.72-17.16,30.46Z"/>
</svg>