<?xml version="1.0" encoding="UTF-8"?>
<svg id="Layer_1" data-name="Layer 1" xmlns="http://www.w3.org/2000/svg" viewBox="0 0 311.25 264.1">
  <defs>
    <style>
      .cls-1 {
        fill: #46b1da;
        stroke-width: 0px;
      }
    </style>
  </defs>
  <path class="cls-1" d="m108.81,93.16c-2.16,0-3.86,1.66-3.9,3.81-.04,2.2,1.75,4.05,3.92,4.04,2.15,0,3.99-1.91,3.94-4.06-.06-2.12-1.8-3.79-3.95-3.79Z"/>
  <path class="cls-1" d="m101.93,232.38c-.44-.36-.91-.69-1.32-1.09-1.19-1.15-1.58-2.55-1.04-4.11.53-1.55,1.66-2.47,3.32-2.64.7-.07,1.41-.08,2.35-.13,0-.8,0-1.5,0-2.2,0-6.99,0-13.98,0-20.97,0-3.94,1.35-5.24,5.33-5.25,2.08,0,4.17,0,6.56,0v-8.66c0-6.6.5-7.1,7.13-7.1,5.75,0,11.49,0,17.24,0,.63,0,1.26,0,2.07,0-.22-.85-.36-1.48-.56-2.08-4.58-14.07-9.18-28.14-13.72-42.22-.44-1.37-1.15-2.14-2.5-2.66-14.4-5.6-28.77-11.28-43.16-16.9-1.75-.68-3.19-1.51-3.41-3.58-.22-2.13.96-3.37,2.65-4.38,2.8-1.67,5.54-3.45,8.33-5.13,2.34-1.41,4.49-.97,5.75,1.1,1.29,2.12.71,4.1-1.64,5.64-.7.46-1.41.9-2.36,1.51,4.54,1.79,8.82,3.5,13.12,5.18,8.68,3.41,17.34,6.86,26.04,10.19,2.1.8,3.23,2.14,3.91,4.23,5.06,15.7,10.21,31.37,15.26,47.07.5,1.57,1.16,2.2,2.84,2.07,2.01-.16,4.05-.15,6.07,0,1.47.11,2.02-.51,2.47-1.8,4.3-12.24,8.66-24.46,13.01-36.68,1.29-3.61,2.17-4.24,5.91-3.91,12.03,1.05,24.06,2.14,36.09,3.21.5.04,1.01,0,1.72,0-.41-.74-.73-1.35-1.09-1.95-6.62-10.94-13.2-21.91-19.92-32.79-1.48-2.39-1.72-4.47-.68-7.13,4.79-12.27,9.4-24.61,14.06-36.92.23-.6.44-1.2.78-2.15-2.94.8-5.62,1.51-8.29,2.25-10.43,2.9-20.86,5.78-31.26,8.76-2.26.65-3.98.19-5.76-1.27-10.29-8.45-20.65-16.83-30.98-25.23-.34-.28-.71-.53-1.35-1.01-.29,4.34-.57,8.4-.82,12.46-.57,9.32-1.15,18.64-1.68,27.96-.12,2.21-.94,3.86-2.97,4.9-1.27.65-2.42,1.54-3.69,2.21-2.02,1.05-4.1.4-5.22-1.53-1.08-1.87-.79-4.11,1.2-5.1,2.61-1.29,2.94-3.24,3.08-5.81.77-14.21,1.73-28.42,2.6-42.62.11-1.86.8-3.27,2.54-4.06,1.73-.79,3.14-.16,4.5.94,11.8,9.61,23.62,19.18,35.39,28.83,1.28,1.05,2.36,1.38,4.03.91,14.24-4.04,28.5-7.98,42.76-11.94.31-.09.63-.18.94-.27,1.7-.47,3.26-.28,4.5,1.07,1.27,1.38,1.15,2.93.53,4.57-3.44,9.01-6.86,18.04-10.29,27.06-2.13,5.61-4.22,11.23-6.44,16.8-.59,1.48-.5,2.6.34,3.97,7.93,12.97,15.78,25.99,23.68,38.98.97,1.59,1.7,3.14.59,4.91-1.11,1.78-2.79,2.08-4.77,1.9-13.85-1.28-27.7-2.49-41.54-3.75-.91-.08-1.55-.16-1.95.98-3.83,10.89-7.72,21.75-11.59,32.62-.04.11,0,.25.02.61,1.13,0,2.27,0,3.42,0,5.81,0,11.63-.01,17.44,0,3.13.01,4.54,1.42,4.57,4.55.03,3.64,0,7.29,0,11.21,2.31,0,4.44,0,6.57,0,3.97,0,5.32,1.33,5.33,5.25.01,6.99,0,13.98,0,20.97,0,.7,0,1.39,0,2.21.75.03,1.26.07,1.76.08,2,.02,3.38.93,3.94,2.87.54,1.86-.15,3.31-1.7,4.41-.25.18-.47.4-.71.6h-109.35Zm35.75-8.03h37.8v-20.29h-37.8v20.29Zm-12.57-28.49h62.93v-7.62h-62.93v7.62Zm-11.76,8.16v20.33h16.29v-20.33h-16.29Zm70.24,0v20.36h16.35v-20.36h-16.35Z"/>
  <path class="cls-1" d="m108.81,93.16c2.15,0,3.89,1.67,3.95,3.79.06,2.15-1.79,4.05-3.94,4.06-2.16,0-3.96-1.85-3.92-4.04.04-2.15,1.74-3.8,3.9-3.81Z"/>
</svg>