<?xml version="1.0" encoding="UTF-8"?>
<svg id="Layer_1" data-name="Layer 1" xmlns="http://www.w3.org/2000/svg" viewBox="0 0 435.72 350.68">
  <defs>
    <style>
      .cls-1 {
        fill: #3ab0dd;
        stroke-width: 0px;
      }
    </style>
  </defs>
  <path class="cls-1" d="m187.23,180.81c-5.01-9.79-9.91-19.38-14.88-29.11-11.59,4.26-22.93,8.42-34.26,12.59-.89.33-1.76.73-2.67.98-3.51.99-6.59-.42-7.55-3.42-1.01-3.17.38-5.96,3.89-7.29,7.54-2.86,15.11-5.61,22.67-8.41,4.1-1.52,8.21-3.04,12.63-4.68-.65-1.34-1.2-2.48-1.77-3.61-5.65-11.09-11.32-22.18-16.95-33.28-2.65-5.21-1.44-8.07,4.04-10.15,20.28-7.69,40.55-15.39,60.81-23.11,4.04-1.54,7.16-.7,8.53,2.41,1.44,3.29-.1,6.42-4.12,8.11-5.35,2.24-10.73,4.4-16.52,6.76,26.1,51.14,52.08,102.07,78.33,153.49,15.24-6.77,30.33-13.47,45.85-20.38-26-50.79-51.88-101.35-77.86-152.09-2.52,1.01-4.68,1.94-6.89,2.75-3.52,1.28-6.56.19-7.84-2.74-1.35-3.09.01-6.18,3.54-7.74,3.59-1.57,7.19-3.08,10.83-4.51,4.06-1.59,6.47-.7,8.51,3.21,4.47,8.63,8.77,17.35,13.39,25.9.89,1.68,2.69,3.33,4.46,4.01,22.74,8.87,45.53,17.62,68.36,26.28,2.98,1.13,4.98,2.84,6.3,5.76,7.85,17.26,15.82,34.46,23.73,51.71,2.11,4.62,1.13,7.27-3.58,9.38-13.3,5.94-26.63,11.83-40.37,17.92,1.53,3.05,2.83,6.06,4.48,8.86,4.46,7.57,7.42,15.51,7.66,24.45.13,5.08.9,10.16,1.54,15.22.48,3.88-1.11,6.26-4.6,7.85-27.51,12.53-54.99,25.12-82.49,37.67-5.52,2.52-7.68,1.73-10.51-3.78-6.81-13.3-13.59-26.6-20.4-39.9-.54-1.03-1.11-2.06-1.81-3.37-6.4,2.81-12.65,5.56-18.91,8.33-15.16,6.72-30.35,13.41-45.48,20.24-3.14,1.42-5.9,1.52-9.13.11-29.81-12.89-59.68-25.64-89.53-38.45-5-2.14-6.07-5.06-3.53-9.88,9.52-18.03,19.02-36.08,28.71-54.02,1.02-1.88,3.09-3.63,5.08-4.47,6.33-2.66,12.85-4.89,19.32-7.21,3.73-1.35,6.88-.17,8.06,2.84,1.28,3.3-.25,6.25-4.14,7.82-1.97.8-3.97,1.5-6.69,2.52,8.56,3.51,16.48,6.76,24.38,9.99,6.81,2.79,13.58,5.62,20.43,8.29,1.21.46,2.88.71,4.01.26,10.66-4.31,21.25-8.79,31.85-13.24.3-.13.54-.42,1.1-.87m-26.63-77.23c30.04,58.84,59.9,117.33,90,176.28,6.14-9.59,11.8-18.62,17.68-27.52,1.49-2.24,1.66-3.91.4-6.37-25.58-49.89-51.04-99.81-76.54-149.74-.58-1.13-1.21-2.25-1.85-3.45-9.93,3.61-19.6,7.13-29.69,10.79m-68.42,79.69c-8.35,15.76-16.52,31.18-24.81,46.85,26.63,11.42,52.88,22.66,79.58,34.11,0-19.42.02-38.02-.08-56.63-.01-.88-.93-2.24-1.76-2.58-17.48-7.26-35-14.4-52.93-21.74m66.16,80.84c19.83-8.78,38.91-17.24,58.25-25.8-8.14-15.92-16.04-31.37-24-46.92-10.72,4.47-20.94,8.86-31.28,12.98-2.43.97-3.05,2.25-3.03,4.7.1,15.42.04,30.84.04,46.27v8.79Zm141.38-117.33c7.72,15.07,15.24,29.77,22.85,44.63,12.57-5.59,24.74-11,37.09-16.48-6.99-15.1-13.77-29.77-20.61-44.55-13.27,5.52-26.12,10.89-39.33,16.4m28.46,86.1c-14.54,6.47-28.53,12.82-42.65,18.9-3.42,1.48-5.89,3.51-7.8,6.72-3.72,6.23-7.74,12.26-11.67,18.43.51.22.64.32.71.29,20.45-9.28,40.91-18.57,61.35-27.93.67-.3,1.46-1.39,1.42-2.06-.32-4.69-.86-9.36-1.36-14.36m-1.59-109.68c-16.42-6.3-31.98-12.27-48.43-18.58,5.72,11.17,10.97,21.42,16.36,31.95,10.63-4.44,20.94-8.73,32.07-13.38"/>
</svg>