<?xml version="1.0" encoding="UTF-8"?>
<svg id="Layer_1" data-name="Layer 1" xmlns="http://www.w3.org/2000/svg" viewBox="0 0 469.67 350.68">
  <defs>
    <style>
      .cls-1 {
        fill: #3ab0dd;
        stroke-width: 0px;
      }
    </style>
  </defs>
  <path class="cls-1" d="m305.54,253.51c-9.96-1.1-15.01-6.73-15.01-16.42,0-36.48.15-72.96-.11-109.43-.06-8.38,3.9-16.55,15.11-17.55v-3.04c0-4.59-.06-9.19.02-13.78.06-3.74,2.47-6.18,5.83-6.09,3.3.09,5.42,2.44,5.44,6.19.04,5.5,0,11,0,16.68.64.12,1.2.26,1.77.31,7.07.69,12.56,6.22,13.18,13.28.09.97.12,1.95.12,2.93,0,36.85-.02,73.71.03,110.56,0,5.94-1.83,10.9-7.07,13.97-2.26,1.33-4.98,1.89-8.02,2.99v1.77c0,4.82.03,9.65,0,14.46-.03,3.71-2.2,6.08-5.5,6.14-3.37.05-5.73-2.38-5.77-6.14-.07-5.57-.02-11.13-.02-16.82m15.06-71.63v-27.36c0-9.34,0-18.69,0-28.04,0-3.91-.92-4.85-4.75-4.86-3.32,0-6.63-.03-9.95,0-2.82.03-4.05,1.2-4.05,3.96,0,37.46,0,74.93,0,112.39,0,2.88,1.24,4.05,4.18,4.08,3.09.03,6.18,0,9.27,0,4.47,0,5.3-.82,5.3-5.25v-54.95"/>
  <path class="cls-1" d="m140.27,247.52c-1.56-.27-2.85-.4-4.07-.71-6.04-1.56-10.36-6.73-10.89-12.97-.07-.75-.11-1.51-.11-2.25,0-34.3,0-68.59,0-102.87,0-6.37,2.46-11.31,8.23-14.18,2.03-1.02,4.39-1.36,6.85-2.09,0-3.88,0-7.93,0-11.98,0-2.72-.07-5.43.06-8.14.15-2.84,2.31-4.92,5.09-5.12,2.84-.2,5.22,1.46,5.87,4.22.24,1.01.27,2.09.27,3.14.03,6.02.02,12.04.02,18.19,1.31.2,2.51.3,3.65.58,6.74,1.61,11.3,7.39,11.33,14.49.06,11.84.02,23.67.02,35.5v67.38c0,9.83-4.4,15-14.15,16.61-.21.04-.42.14-.85.27,0,3.48,0,7,0,10.53,0,3.17.11,6.34-.06,9.5-.18,3.26-2.76,5.58-5.78,5.47-3.08-.1-5.39-2.47-5.43-5.77-.07-5.73-.03-11.46-.03-17.18v-2.62m15-67.46v-51.32c0-3.35-1.12-4.47-4.47-4.5-3.39-.03-6.78-.04-10.17,0-2.99.05-4.1,1.14-4.1,4.16-.02,34.43-.02,68.88,0,103.31,0,3.18,1.19,4.28,4.46,4.31,3.16.03,6.32.02,9.49,0,3.75,0,4.8-1.09,4.8-4.89v-51.09"/>
  <path class="cls-1" d="m261.74,279.72c0,2.61.03,5.17,0,7.72-.07,3.9-2.2,6.27-5.57,6.3-3.36.03-5.61-2.37-5.71-6.2-.07-2.55,0-5.11,0-7.81-.83-.15-1.53-.28-2.25-.4-7.67-1.29-12.72-7.09-12.77-14.89-.07-11.07-.02-22.15-.02-33.22,0-16.27.23-32.55-.1-48.82-.17-8.36,3.87-16.43,15.16-17.51,0-2.81-.13-5.65.04-8.48.23-4.16,3.91-6.67,7.58-5.25,2.43.94,3.62,2.84,3.64,5.44.02,2.77,0,5.55,0,7.94,2.64.83,5.07,1.22,7.15,2.3,5.56,2.88,7.96,7.76,7.96,13.91v81.58c0,10.52-4.4,15.7-15.08,17.38m3.78-57.58c0-13.71,0-27.41,0-41.12,0-3.51-1.11-4.59-4.58-4.6-3.31,0-6.62-.02-9.94,0-3.06.03-4.27,1.18-4.27,4.23,0,27.78,0,55.57,0,83.36,0,2.97,1.28,4.17,4.35,4.19,3.09.03,6.18,0,9.26,0,4.23,0,5.2-.95,5.2-5.18v-40.89"/>
  <path class="cls-1" d="m195.44,146.31c0-4.08-.1-8.05.03-12.03.08-2.46,1.68-4.25,3.97-4.92,2.25-.66,4.77,0,5.97,2.02.73,1.21,1.11,2.79,1.2,4.23.18,2.78.06,5.58.06,8.36v2.36c1.2.16,2.24.22,3.24.44,6.77,1.44,11.69,7.13,11.73,14.16.13,17.47.13,34.95,0,52.42-.05,7.43-5.19,13.12-12.52,14.4-.73.13-1.47.22-2.47.38,0,3.54,0,7.06,0,10.58,0,2.12-.44,4.06-2.24,5.41-1.7,1.27-3.58,1.53-5.55.74-2.06-.84-3.32-2.4-3.42-4.63-.13-3.01-.07-6.02-.1-9.03v-3.03c-.8-.12-1.45-.21-2.1-.31-7.62-1.21-12.85-6.79-12.92-14.51-.16-17.4-.17-34.8,0-52.2.08-8.33,5.39-13.43,15.08-14.83m14.97,41c0-8.44.02-16.88,0-25.32,0-2.95-1.2-4.13-4.1-4.15-3.55-.03-7.09-.03-10.63,0-2.83.02-4.05,1.15-4.06,3.96-.03,16.95-.03,33.91,0,50.87,0,2.74,1.33,3.95,4.1,3.99,3.31.04,6.63.02,9.95,0,3.62,0,4.74-1.12,4.75-4.72,0-8.21,0-16.43,0-24.64"/>
</svg>