<?xml version="1.0" encoding="UTF-8"?>
<svg id="Layer_1" data-name="Layer 1" xmlns="http://www.w3.org/2000/svg" viewBox="0 0 482.22 350.47">
  <defs>
    <style>
      .cls-1 {
        fill: #3ab0dd;
        stroke-width: 0px;
      }
    </style>
  </defs>
  <path class="cls-1" d="m88.66,275.92c1.31-1.81,2.41-3.85,3.99-5.4,11.96-11.67,24.03-23.22,36-34.86,2.67-2.59,5.55-4.03,9.2-2.48,3.65,1.56,4.66,4.65,4.53,8.37-.1,2.87-.01,5.73-.01,8.74h29.69c-19.29-16.7-29.61-37.4-29.58-62.57.02-25.1,10.25-45.78,29.82-62.65h-49.93c-.87,0-1.75.04-2.62-.07-2.54-.3-4.28-2.18-4.22-4.51.06-2.25,1.7-4,4.15-4.31.95-.12,1.92-.08,2.88-.1,20.3,0,40.59.04,60.87-.05,1.76-.01,3.65-.44,5.26-1.17,22.93-10.32,45.82-10.33,68.74.04,1.54.69,3.33,1.12,4.99,1.13,14.52.08,29.05.05,43.57.05,5.36.01,6.62,1.29,6.63,6.7,0,2.62.01,5.24.04,7.87,0,.17.08.33.27.97,11.66-11.17,23.16-22.17,34.81-33.3-11.61-11.2-23.06-22.24-35.12-33.88v5.1c-.01,2.01.07,4.03-.05,6.04-.17,3.03-1.84,4.54-4.89,4.65-.61.01-1.22,0-1.84,0H122.17c-4.48,0-6.67-1.47-6.64-4.47.02-2.98,2.25-4.47,6.71-4.47h181.42c0-2.85.17-5.54-.04-8.2-.37-4.53,1.29-7.78,5.46-9.69h3.67c1.69,1.22,3.55,2.24,5.03,3.66,12.01,11.48,23.96,23.03,35.93,34.57,4.86,4.7,4.86,8.71-.01,13.39-12.13,11.61-24.26,23.22-36.39,34.83-.69.67-1.41,1.33-2.19,1.86-4.66,3.11-10.95.17-11.34-5.41-.25-3.56-.05-7.15-.05-10.97h-29.67c19.23,16.68,29.48,37.34,29.48,62.42s-10.19,45.68-29.05,62.7h49.3c4.52,0,6.69,1.45,6.7,4.47.01,3.02-2.18,4.51-6.65,4.51-20.47.01-40.93-.02-61.4.06-1.67,0-3.47.44-4.99,1.13-22.92,10.36-45.81,10.37-68.74.04-1.61-.73-3.49-1.16-5.26-1.17-14.52-.1-29.04-.05-43.55-.06-5.19,0-6.47-1.31-6.48-6.54-.01-2.72-.02-5.42-.05-8.14-.01-.14-.15-.27-.41-.72-11.54,11.12-23,22.17-34.66,33.42,11.63,11.13,23.09,22.1,35.12,33.6,0-3.78-.02-6.87,0-9.95.04-4.35,1.49-5.8,5.86-5.8,61.76-.01,123.5,0,185.24,0,.62,0,1.23-.02,1.84.04,2.25.23,3.93,1.9,4.12,4.05.18,2.09-1.29,4.17-3.46,4.65-1.1.24-2.25.19-3.39.19-59.22.01-118.42.01-177.64.01h-3.62c0,3.31-.06,6.35.01,9.39.07,3.56-1.13,6.4-4.53,7.85-3.41,1.45-6.23.29-8.8-2.18-12.29-11.82-24.65-23.58-36.9-35.42-1.41-1.36-2.35-3.18-3.49-4.79v-3.15m134.26-16.51c39.38.15,71.41-31.75,71.73-71.43.31-39.35-31.96-71.74-71.59-71.88-39.39-.12-71.42,31.78-71.71,71.45-.27,39.41,31.88,71.71,71.57,71.86"/>
  <path class="cls-1" d="m88.66,96.95c1.18-2.37,3.04-3.27,5.72-3.25,15.57.08,31.13.04,46.7.04.43.01.87,0,1.3.02,2.57.17,4.37,1.88,4.48,4.24.11,2.41-1.74,4.51-4.36,4.64-2.88.13-5.78.05-8.67.05-12.93,0-25.88-.06-38.82.05-2.8.02-4.93-.69-6.35-3.16v-2.62Z"/>
  <path class="cls-1" d="m302.12,277.44c1.18-2.37,3.04-3.27,5.72-3.25,15.57.08,31.13.04,46.7.04.43.01.87,0,1.3.02,2.57.17,4.37,1.88,4.48,4.24.11,2.41-1.74,4.51-4.36,4.64-2.88.13-5.78.05-8.67.05-12.93,0-25.88-.06-38.82.05-2.8.02-4.93-.69-6.35-3.16v-2.62Z"/>
  <path class="cls-1" d="m247.72,177.66c3.55-7.12,6.85-13.74,10.16-20.36.46-.94.89-1.9,1.42-2.8,1.39-2.38,3.79-3.18,6.03-2.05,2.22,1.11,3.08,3.54,1.92,6.04-1.45,3.17-3.09,6.26-4.65,9.38-2.92,5.86-5.79,11.75-8.82,17.56-.86,1.63-.89,2.93-.04,4.6,4.48,8.78,8.83,17.64,13.24,26.46.92,1.86,1.29,3.92-.33,5.34-1.1.95-3.05,1.73-4.36,1.43-1.33-.31-2.74-1.81-3.44-3.15-3.58-6.79-6.93-13.71-10.36-20.59-.19-.38-.42-.74-.85-1.48-.57,1.03-1.04,1.78-1.44,2.57-3.28,6.56-6.46,13.17-9.89,19.66-.69,1.31-2.19,2.75-3.53,3-1.32.24-3.58-.56-4.21-1.62-.76-1.31-.88-3.65-.23-5.05,3.53-7.59,7.03-15.25,11.25-22.47,2.71-4.65,2.54-8.32-.06-12.89-4.1-7.19-7.6-14.73-11.1-22.25-.66-1.43-.61-3.74.14-5.08.6-1.07,2.9-1.98,4.17-1.7,1.42.32,2.97,1.8,3.71,3.18,3.36,6.32,6.46,12.78,9.65,19.18.43.86.88,1.69,1.61,3.08"/>
  <path class="cls-1" d="m187.31,160.91v22.18c.98.06,1.9.15,2.81.15,7.6.01,15.22.01,22.83,0,2.46,0,4.57.61,5.33,3.27.91,3.13-1.23,5.66-4.92,5.7-6.83.07-13.65.02-20.47.02h-5.66v2.91c0,7.44.01,14.86-.02,22.3,0,1.04-.05,2.12-.37,3.09-.73,2.19-2.4,3.18-4.68,2.92-2.16-.25-3.46-1.55-3.79-3.72-.12-.86-.08-1.74-.08-2.61v-58.76c0-5.24,1.17-6.4,6.51-6.4,9.54,0,19.06-.02,28.6.02,3.66.01,5.83,2.55,4.9,5.67-.75,2.48-2.68,3.27-5.09,3.25-7.6-.01-15.21,0-22.81,0h-3.06Z"/>
</svg>