<?xml version="1.0" encoding="UTF-8"?>
<svg id="Layer_1" data-name="Layer 1" xmlns="http://www.w3.org/2000/svg" viewBox="0 0 460.94 379.14">
  <defs>
    <style>
      .cls-1 {
        fill: #3ab0dd;
        stroke-width: 0px;
      }
    </style>
  </defs>
  <path class="cls-1" d="m223.49,287.03c-7.88,8.76-17.72,15.46-29.32,19.65-41.12,14.84-87.16-12.34-93.94-55.5-2.99-19.13.68-36.78,11.32-53.03,16.1-24.56,32.08-49.18,48.13-73.78,6-9.21,15.78-9.2,21.82.03,11.08,16.96,22.14,33.96,33.21,50.94.5.77,1.06,1.51,1.94,2.4-1.84-15.86,9.34-21.35,20.92-26.81-11.68-16.6-15.44-34.74-10.09-54.4,3.92-14.43,12.23-25.99,24.45-34.63,24.24-17.1,57.29-14.81,78.82,5.15,22.02,20.42,28.23,55.65,7.91,83.88,1.56.73,3.17,1.34,4.6,2.21,3.26,2.01,6.63,3.91,9.6,6.3,4.59,3.72,6.68,8.63,6.65,14.7-.13,32.28-.13,64.54,0,96.81.02,6.41-2.41,11.32-7.18,15.29-5.82,4.84-12.59,7.86-19.79,9.86-30.82,8.59-61.61,8.68-92.15-1.2-5.74-1.86-11.02-5.09-16.91-7.88m-6.74-52.66c0-12.77.03-25.53-.05-38.3-.01-1.31-.38-2.8-1.09-3.88-13.73-21.2-27.53-42.34-41.34-63.48-2.31-3.54-5.06-3.6-7.32-.13-16.57,25.38-33.23,50.71-49.62,76.22-9.33,14.51-11.88,30.53-8.35,47.29,5.93,28.03,28.71,48,57.34,50,20.13,1.39,37.13-5.82,50.89-20.61.93-1.01,1.15-1.81.69-3.22-.68-2.03-1.09-4.24-1.11-6.39-.09-12.5-.05-25-.05-37.51m8.4,19.77c0,5.22.36,10.32-.09,15.35-.52,5.72,2.19,9.3,6.6,12.1,1.69,1.08,3.45,2.06,5.26,2.91,10.99,5.12,22.7,7.36,34.66,8.53,19.12,1.88,38.03.85,56.62-4.37,6.4-1.8,12.73-4.03,17.92-8.32,2.04-1.7,4.43-4.23,4.66-6.6.64-6.45.23-13.01.23-19.47-4.24,2.09-8.26,4.38-12.5,6.08-12.78,5.13-26.21,7.31-39.88,7.94-25.5,1.19-50.41-.84-73.47-14.17m125.91-33.29c-5.21,2.4-10.13,5.04-15.31,6.95-12.31,4.57-25.2,6.33-38.23,7.04-17.31.94-34.39-.47-51.15-5.09-7.41-2.04-14.48-4.91-21.22-9.61,0,6.03.16,11.6-.06,17.14-.16,3.9,1.26,6.96,4.34,8.99,3.46,2.32,7.09,4.51,10.92,6.1,9.99,4.15,20.55,6.03,31.29,7.08,19.14,1.86,38.05.83,56.62-4.39,6.49-1.82,12.78-4.21,18.18-8.42,2.45-1.92,4.6-4.14,4.61-7.55.05-6.13.01-12.24.01-18.24m-125.91-34.3c0,5.56.32,10.58-.09,15.52-.49,5.87,2.14,9.67,6.84,12.5,1.56.94,3.14,1.89,4.81,2.66,11.07,5.15,22.85,7.4,34.9,8.61,17.97,1.82,35.79.89,53.34-3.44,7.48-1.85,14.88-4.21,20.99-9.1,2.12-1.7,4.59-4.34,4.84-6.76.68-6.45.23-13,.23-19.66-3.03,1.65-5.77,3.34-8.66,4.68-10.4,4.85-21.48,7.18-32.78,8.6-19.43,2.43-38.72,1.7-57.82-2.64-9.3-2.11-18.25-5.18-26.59-10.99m117.52-73.06c.05-30.09-24.4-54.64-54.45-54.69-30.07-.05-54.63,24.41-54.68,54.46-.05,30.07,24.4,54.63,54.45,54.69,30.06.05,54.62-24.41,54.68-54.46m-55.73,79.68c14.65-.14,28.09-1.42,41.19-5.24,6.81-2,13.49-4.38,19.01-9.06,5.24-4.45,5.39-9.16-.06-13.31-3.62-2.75-7.98-4.57-11.97-6.85-1.72-.97-2.86-.49-4.3.8-15.23,13.68-33,19.11-53.27,15.86-12.42-1.98-23.14-7.55-32.4-16-.67-.61-2.01-1.36-2.53-1.1-4.78,2.47-9.82,4.67-14.06,7.88-4.79,3.64-4.7,8.33.07,12.12,3.56,2.83,7.67,5.21,11.89,6.93,15.2,6.21,31.27,7.65,46.44,7.96"/>
  <path class="cls-1" d="m170.45,285.58v8.05c-28.87,1.03-55.17-24.78-54.19-54.17h8.03c.38,12.49,4.67,23.46,13.57,32.39,8.91,8.95,19.83,13.35,32.59,13.73"/>
  <path class="cls-1" d="m124.74,231.52c-2.8-.44-5.36-.84-8.21-1.3.7-3.01,1.35-5.84,2.1-9.05,2.82.93,5.32,1.77,7.97,2.64-.64,2.67-1.24,5.16-1.86,7.71"/>
  <path class="cls-1" d="m334.27,113.25c.06,25.48-20.66,46.28-46.11,46.3-25.46.02-46.22-20.73-46.22-46.19s20.65-46.1,45.97-46.17c25.51-.07,46.3,20.6,46.36,46.05m-46.2-37.66c-20.75.01-37.7,16.94-37.74,37.68-.03,20.89,16.94,37.9,37.81,37.89,20.74-.01,37.7-16.95,37.74-37.69.05-20.88-16.94-37.89-37.81-37.87"/>
  <path class="cls-1" d="m283.91,84.11h8.4c0,2.25.08,4.49-.03,6.72-.07,1.55.31,2.43,1.82,3.23,4.18,2.2,6.29,5.86,6.61,10.76h-8.2c-.21-.5-.38-1.09-.65-1.62-1.02-1.96-2.67-2.82-4.78-2.25-2.08.56-3.26,2.09-3.1,4.29.15,2.18,1.49,3.48,3.62,3.88,1.11.21,2.27.18,3.37.44,5.16,1.24,8.89,5.35,9.63,10.54.7,4.85-1.69,9.93-6.15,12.38-1.72.94-2.36,1.93-2.19,3.83.18,1.98.05,4.01.05,6.24h-8.4c0-2.08-.08-4.22.02-6.37.08-1.71-.32-2.73-2.03-3.65-4.06-2.17-6.1-5.82-6.4-10.61h8.21c.2.5.38,1.08.65,1.62,1.01,1.95,2.66,2.81,4.77,2.25,2.09-.56,3.26-2.1,3.11-4.3-.16-2.18-1.5-3.48-3.64-3.87-1.19-.23-2.44-.22-3.61-.52-5-1.25-8.67-5.39-9.39-10.47-.69-4.86,1.69-9.93,6.16-12.36,1.73-.94,2.35-1.94,2.18-3.83-.17-2-.03-4.01-.03-6.33"/>
</svg>