<?xml version="1.0" encoding="UTF-8"?>
<svg id="Layer_1" data-name="Layer 1" xmlns="http://www.w3.org/2000/svg" viewBox="0 0 460.94 379.14">
  <defs>
    <style>
      .cls-1 {
        fill: #3ab0dd;
        stroke-width: 0px;
      }
    </style>
  </defs>
  <path class="cls-1" d="m127.16,217.5c.79-4.34,1.33-8.74,2.43-13,7.02-27.38,30.88-48.19,58.99-51.6,37.25-4.52,70.86,19.91,78.04,56.74,7.4,37.93-18.59,75.57-56.71,82.14-2.43.42-4.88.78-7.31,1.16h-10.49c-1.51-.25-3.01-.52-4.52-.73-28.22-3.82-51.94-25.3-58.4-52.98-.86-3.7-1.36-7.49-2.03-11.24v-10.49Zm131.83,5.24c-.04-34.08-27.7-61.69-61.75-61.61-33.84.07-61.25,27.69-61.21,61.68.04,33.68,27.66,61.33,61.19,61.26,34.22-.07,61.81-27.47,61.77-61.33"/>
  <path class="cls-1" d="m276.53,86.2c28.68.23,52.73,21.26,56.71,49.79,4.2,30.11-16.86,58.83-46.83,63.79-3.04.5-6.14.7-9.22.83-3,.13-4.99-1.67-5.03-4.28-.05-2.54,1.91-4.47,4.9-4.51,5.5-.09,10.81-1,15.98-2.88,20.4-7.45,33.59-27.81,31.74-49-1.96-22.37-18.03-40.07-39.86-43.92-26.92-4.75-52.58,13.94-56.12,40.91-.26,2.06-.32,4.14-.46,6.22-.2,2.96-2.06,4.92-4.6,4.83-2.61-.1-4.23-2.06-4.24-5.1-.08-27.24,20.93-51.71,47.85-55.67,3.05-.45,6.13-.68,9.2-1"/>
  <path class="cls-1" d="m277.7,121.86c-5.9,0-9.54,2.99-9.82,7.33-.15,2.36.7,4.33,2.57,5.59,2.59,1.77,5.38,3.26,8.1,4.84,2.95,1.72,6.06,3.21,8.86,5.15,4.89,3.4,7.4,8.15,6.65,14.19-.79,6.43-4.23,11.13-10.22,13.66-2.04.86-2.97,1.88-2.95,4.12.02,2.37-1.82,4.02-4.1,4.12-2.33.09-4.38-1.32-4.47-3.7-.1-2.64-1.42-3.62-3.65-4.49-4.09-1.61-7.04-4.6-8.92-8.61-1.35-2.88-.69-5.39,1.72-6.57,2.33-1.14,4.63-.19,6.12,2.51,2.9,5.23,8.95,6.88,13.97,3.81,4.3-2.62,5.19-7.36,1.61-10.85-2.11-2.05-4.82-3.62-7.5-4.91-4.01-1.92-8.04-3.74-11.25-6.93-8.8-8.7-6.63-21.4,4.63-26.49,2.1-.95,3.17-1.97,3.19-4.41.03-2.43,2.13-4.1,4.42-4.04,2.32.05,4.16,1.75,4.24,4.24.06,1.98.9,2.98,2.75,3.64,4.66,1.67,7.94,4.92,9.97,9.41,1.15,2.56.29,5.05-2.02,6.13-2.34,1.09-4.75.17-5.97-2.44-1.76-3.75-4.84-5.19-7.94-5.32"/>
  <path class="cls-1" d="m324.79,210.59c0-1.34,0-2.69,0-4.03.04-2.69,1.77-4.61,4.22-4.72,2.39-.1,4.52,1.73,4.56,4.41.05,4.49.15,9.03-.38,13.47-2.7,22.7-12.84,41.33-31.04,55.33-11.2,8.61-23.96,13.35-38.03,14.57-2.66.24-4.79-1.39-5.06-3.81-.3-2.63,1.32-4.77,4.08-4.98,31.01-2.28,57.08-28.67,61.2-61.6.35-2.87.44-5.76.65-8.64h-.2Z"/>
  <path class="cls-1" d="m213.71,95.6c-10.3-.93-20.1.13-29.43,3.74-24.35,9.4-39.18,26.94-44.25,52.61-.33,1.71-.49,3.45-.77,5.18-.41,2.57-2.55,4.22-4.99,3.89-2.42-.34-4.03-2.53-3.77-5.11,3.55-34.6,30.27-63.04,64.75-68.46,6.11-.96,12.44-.59,18.66-.64,2.68-.02,4.49,2.08,4.4,4.52-.11,2.52-2.18,4.32-4.6,4.27"/>
  <path class="cls-1" d="m221.75,210.6c-.46,1.52-1.09,4.18-2.1,6.7-.72,1.78-.68,2.91.99,4.11,6.39,4.6,9.01,12.14,6.88,19.38-2.12,7.21-8.43,12.14-16.27,12.58-1.96.12-2.77,1.01-2.72,2.91.05,1.82.06,3.63,0,5.45-.1,2.93-2.02,4.94-4.56,4.85-2.53-.09-4.21-2-4.26-4.9-.03-1.82.02-3.63-.02-5.45-.05-2.08-.77-2.8-2.8-2.83-1.82-.03-3.63.02-5.45,0-1.87-.03-2.7.89-2.67,2.72.02,1.88.04,3.77,0,5.65-.1,2.98-1.92,4.95-4.48,4.93-2.57-.03-4.3-2-4.35-5.01-.03-1.75.02-3.49,0-5.24-.04-2.33-.72-3.01-3-3.03-1.88-.02-3.77.03-5.64-.02-2.82-.07-4.67-1.91-4.62-4.5.04-2.49,1.88-4.26,4.6-4.33,1.81-.05,3.63,0,5.45,0,2.56-.02,3.22-.66,3.22-3.22,0-11.77,0-23.53,0-35.3q0-5.37-5.35-5.37c-1.22,0-2.42.03-3.63-.05-2.42-.16-4.19-1.97-4.23-4.28-.04-2.23,1.55-4.16,3.89-4.41,1.8-.19,3.62-.1,5.44-.11,3.48-.02,3.88-.41,3.89-3.98,0-1.55-.05-3.09.02-4.64.1-2.47,1.81-4.26,4.11-4.41,2.36-.14,4.41,1.55,4.62,4.09.18,2.07.1,4.16.09,6.24-.02,1.86.84,2.72,2.7,2.67,1.82-.04,3.63.02,5.45,0,2.05-.04,2.72-.72,2.77-2.84.04-1.88-.02-3.77.03-5.65.07-2.76,1.79-4.55,4.31-4.58,2.52-.03,4.34,1.68,4.48,4.45.12,2.15.13,4.31,0,6.45-.11,1.96.66,2.99,2.48,3.8,6.89,3.03,10.28,8.51,10.76,17.19m-20.15,16.49c-3.36,0-6.71-.02-10.07,0-2.19.02-2.74.58-2.76,2.79-.03,3.95-.03,7.92,0,11.88.02,2.13.67,2.77,2.79,2.78,6.38.02,12.76.05,19.14-.02,5.15-.05,8.59-3.54,8.64-8.64.05-5.15-3.42-8.69-8.66-8.78-3.02-.06-6.05,0-9.07-.02m-3.62-26.21v-.21c-2.22,0-4.43-.02-6.64,0-1.58,0-2.55.74-2.56,2.42v12.67c0,1.45.76,2.4,2.15,2.4,4.96.02,9.94.18,14.87-.25,4.27-.35,6.94-3.99,6.94-8.48s-2.68-7.99-6.93-8.52c-2.57-.32-5.21-.06-7.82-.06"/>
</svg>