<?xml version="1.0" encoding="UTF-8"?>
<svg xmlns="http://www.w3.org/2000/svg" viewBox="0 0 451.34 282.62">
  <defs>
    <style>
      .cls-1 {
        mix-blend-mode: multiply;
      }

      .cls-2 {
        isolation: isolate;
      }

      .cls-3 {
        fill: #fff;
      }

      .cls-3, .cls-4 {
        stroke-width: 0px;
      }

      .cls-4 {
        fill: #ea861a;
      }
    </style>
  </defs>
  <g class="cls-2">
    <g id="Layer_1" data-name="Layer 1">
      <g class="cls-1">
        <path class="cls-4" d="m320.14,174.06c-14.88,59.66-75.31,95.97-134.99,81.09-59.65-14.87-95.97-75.31-81.08-134.97,14.87-59.67,75.31-95.98,134.96-81.11,59.67,14.87,95.98,75.31,81.11,134.98h0Z"/>
        <path class="cls-3" d="m261.21,131.25c2.22-14.82-9.07-22.79-24.5-28.1l5.01-20.08-12.22-3.05-4.87,19.55c-3.21-.8-6.51-1.56-9.79-2.3l4.91-19.68-12.21-3.05-5.01,20.07c-2.66-.61-5.27-1.2-7.8-1.83v-.06s-16.84-4.21-16.84-4.21l-3.25,13.05s9.07,2.08,8.88,2.21c4.95,1.24,5.84,4.51,5.7,7.11l-5.7,22.87c.34.09.78.21,1.27.41-.41-.1-.84-.21-1.29-.32l-7.99,32.04c-.61,1.5-2.14,3.76-5.6,2.9.12.18-8.88-2.22-8.88-2.22l-6.07,13.99,15.91,3.96c2.96.74,5.86,1.52,8.71,2.25l-5.06,20.31,12.21,3.05,5.01-20.09c3.34.91,6.57,1.74,9.74,2.53l-4.99,20,12.22,3.05,5.06-20.27c20.84,3.94,36.51,2.35,43.11-16.5,5.32-15.18-.26-23.93-11.23-29.64,7.99-1.84,14-7.09,15.61-17.94h0s0,0,0,0Zm-27.92,39.15c-3.78,15.18-29.33,6.97-37.62,4.92l6.71-26.9c8.28,2.07,34.85,6.16,30.9,21.99h0Zm3.78-39.37c-3.45,13.8-24.71,6.79-31.61,5.07l6.09-24.4c6.9,1.72,29.12,4.93,25.53,19.33h0Z"/>
      </g>
    </g>
  </g>
</svg>