<?xml version="1.0" encoding="UTF-8"?>
<svg xmlns="http://www.w3.org/2000/svg" viewBox="0 0 427.06 282.62">
  <defs>
    <style>
      .cls-1 {
        mix-blend-mode: multiply;
      }

      .cls-2 {
        fill: #50a288;
      }

      .cls-2, .cls-3 {
        fill-rule: evenodd;
        stroke-width: 0px;
      }

      .cls-3 {
        fill: #fff;
      }

      .cls-4 {
        isolation: isolate;
      }
    </style>
  </defs>
  <g class="cls-4">
    <g id="Layer_1" data-name="Layer 1">
      <g class="cls-1">
        <path class="cls-2" d="m140.31,46.63l-42.54,89.36c-.16.33-.21.71-.15,1.07.07.36.25.7.52.95l114.9,110.1c.33.31.76.49,1.21.49s.89-.18,1.21-.49l114.9-110.09c.27-.25.45-.59.52-.95.07-.36.02-.74-.15-1.07l-42.54-89.36c-.14-.3-.36-.55-.64-.73-.28-.18-.6-.27-.93-.27h-144.73c-.33,0-.66.09-.94.26-.28.18-.5.43-.64.73Z"/>
        <path class="cls-3" d="m229.02,145.16c-.82.06-5.09.32-14.59.32-7.56,0-12.93-.23-14.81-.32-29.22-1.29-51.03-6.37-51.03-12.46s21.81-11.17,51.03-12.48v19.87c1.91.14,7.38.46,14.94.46,9.07,0,13.62-.38,14.44-.45v-19.87c29.16,1.3,50.92,6.39,50.92,12.46s-21.76,11.16-50.92,12.46h.03Zm0-26.98v-17.78h40.69v-27.12h-110.79v27.12h40.69v17.78c-33.07,1.52-57.94,8.07-57.94,15.92s24.87,14.39,57.94,15.92v56.98h29.41v-57c33-1.52,57.82-8.06,57.82-15.91s-24.81-14.39-57.82-15.91h0Z"/>
      </g>
    </g>
  </g>
</svg>