<?xml version="1.0" encoding="UTF-8"?>
<svg id="Layer_1" data-name="Layer 1" xmlns="http://www.w3.org/2000/svg" viewBox="0 0 345.3 352.27">
  <defs>
    <style>
      .cls-1 {
        fill: #46bfe8;
        stroke-width: 0px;
      }
    </style>
  </defs>
  <path class="cls-1" d="m129.64,169.01c-34.6-30.34-33.15-82.81-1.99-112,29.36-27.52,74.79-27.42,104.01.19,31.01,29.3,32.25,81.59-2.18,111.79,1.76.79,3.42,1.5,5.05,2.28,41.11,19.9,66.38,52.15,75.09,97.03,3.14,16.2-9.63,31.71-26.19,32.63-.98.05-1.97.06-2.95.06-67.28,0-134.56.01-201.83,0-14,0-25.07-8.19-28.64-21-1.64-5.9-.88-11.7.55-17.48,10.71-43.43,36.42-74.35,77.28-92.62.54-.24,1.06-.51,1.82-.87Zm72.18,15.62c.35.93.67,1.85,1.03,2.75,3.79,9.48,7.69,18.92,11.35,28.45,3,7.81,1.59,14.9-4.29,20.92-5.5,5.63-11.07,11.19-16.69,16.69-8.07,7.91-19.31,7.86-27.41-.09-5.47-5.38-10.88-10.82-16.3-16.25-6.22-6.23-7.67-13.48-4.47-21.64,2.55-6.49,5.19-12.94,7.77-19.41,1.52-3.81,3.01-7.63,4.5-11.41-3.88-2.24-7.56-3.01-11.66-1.19-3.22,1.43-6.71,2.25-9.93,3.68-36.77,16.32-59.27,44.23-67.6,83.56-.7,3.29.19,6.24,2.62,8.65,2.34,2.32,5.24,2.8,8.41,2.8,62.75-.03,125.5-.02,188.25-.02,4.72,0,9.44.07,14.16-.02,6.36-.13,10.71-5.36,9.36-11.54-9.5-43.31-35.17-72.31-77.05-87.02-4.21-1.48-7.98-1.4-12.06,1.11Zm-22.3-15.87c31.21-.07,56.69-25.4,56.69-56.34,0-31.82-25.31-57.02-57.22-56.98-30.85.04-56.13,25.68-56.1,56.92.03,30.96,25.65,56.48,56.63,56.4Zm-.02,71.7c5.55-5.56,10.8-10.73,15.91-16.04.6-.63.92-2.15.61-2.96-4.16-10.7-8.52-21.32-12.65-32.03-.75-1.96-2-1.88-3.46-1.76-1.51.13-3.2-.72-4.12,1.66-4.17,10.8-8.57,21.51-12.79,32.29-.28.7-.12,2.01.37,2.51,5.25,5.43,10.6,10.76,16.13,16.33Z"/>
</svg>