<?xml version="1.0" encoding="UTF-8"?>
<svg id="Layer_1" data-name="Layer 1" xmlns="http://www.w3.org/2000/svg" viewBox="0 0 94.61 91.75">
  <defs>
    <style>
      .cls-1 {
        fill: #46bfe8;
        stroke-width: 0px;
      }
    </style>
  </defs>
  <path class="cls-1" d="m52.65,33.8c-4.02-2.35-7.99-4.67-12.02-7.03-1.62,1.83-3.6,2.9-6.05,2.9-2.45,0-4.45-1.01-6.09-2.91-.63.37-1.22.72-1.82,1.07-3.16,1.85-6.32,3.7-9.49,5.53-.5.29-.75.53-.6,1.21.85,3.87-1.26,7.66-4.93,8.97-3.58,1.27-7.6-.29-9.4-3.65-1.8-3.36-.85-7.55,2.22-9.84,3.11-2.32,7.34-1.98,10.11.82.17.17.31.38.49.61,2.27-1.33,4.47-2.61,6.66-3.89,1.14-.67,2.26-1.4,3.44-1.99,1.36-.68,2.01-1.34,1.76-3.19-.43-3.12,1.11-5.65,3.88-7.19,2.81-1.56,5.67-1.39,8.28.51,2.53,1.84,3.59,4.43,3.05,7.52-.16.94.04,1.33.83,1.78,3.67,2.08,7.29,4.24,10.97,6.39,3.02-3.13,6.45-3.8,10.41-1.65,4.95-5.78,9.92-11.58,14.94-17.44-1.43-2.11-1.86-4.41-1.15-6.85.53-1.81,1.64-3.22,3.23-4.24,3.12-2.01,7.21-1.51,9.76,1.19,2.59,2.74,2.84,6.87.6,9.9-2.41,3.26-6.26,3.98-10.43,1.94-.14.12-.31.24-.44.39-4.66,5.43-9.3,10.88-13.97,16.3-.45.52-.55.86-.17,1.51,1.76,3,1.27,6.69-1.13,9.17-2.39,2.47-6.12,3.07-9.15,1.47-3.09-1.64-4.66-5.01-3.95-8.47.05-.24.09-.48.15-.82Zm2.38,2.45c0,2.81,2.24,5.05,5.04,5.04,2.74-.01,4.99-2.25,5.01-4.98.03-2.79-2.22-5.06-5.01-5.07-2.83,0-5.04,2.19-5.04,5.02Zm-15.47-14.3c0-2.83-2.21-5.02-5.04-5-2.78.02-4.98,2.2-5.01,4.96-.03,2.78,2.23,5.06,5.01,5.09,2.78.02,5.04-2.24,5.04-5.04Zm-25.49,14.35c.02-2.78-2.14-5.02-4.89-5.06-2.88-.04-5.14,2.16-5.14,5.02,0,2.76,2.19,4.99,4.95,5.03,2.8.04,5.06-2.18,5.09-4.99ZM80.51,7.57c-.1,2.78,2.08,5.09,4.89,5.19,2.75.1,5.08-2.13,5.15-4.94.07-2.71-2.05-4.99-4.75-5.1-2.91-.12-5.2,1.97-5.3,4.85Z"/>
  <path class="cls-1" d="m94.61,91.73h-18.17V24.77h18.17v66.95Zm-2.7-2.69V27.5h-12.75v61.53h12.75Z"/>
  <path class="cls-1" d="m43.67,91.72h-18.22v-52.71h18.22v52.71Zm-2.74-2.69v-47.3h-12.79v47.3h12.79Z"/>
  <path class="cls-1" d="m69.15,91.75h-18.2v-38.44h18.2v38.44Zm-15.5-35.77v33.01h12.79v-33.01h-12.79Z"/>
  <path class="cls-1" d="m18.17,53.3v38.4H0v-38.4h18.17Zm-15.47,2.69v33.02h12.75v-33.02H2.7Z"/>
</svg>