<?xml version="1.0" encoding="UTF-8"?>
<svg id="Layer_1" data-name="Layer 1" xmlns="http://www.w3.org/2000/svg" viewBox="0 0 78.72 107.18">
  <defs>
    <style>
      .cls-1 {
        fill: #46bfe8;
        stroke-width: 0px;
      }
    </style>
  </defs>
  <g id="oCGoTI.tif">
    <g>
      <path class="cls-1" d="m78.72,49.41c-.66,2.21-2.05,3.94-3.96,5.12-3.11,1.93-4.55,4.68-4.66,8.25-.01.44-.13.87-.21,1.31-.7,3.5-2.46,5.23-5.98,5.9-.36.07-.71.15-1.2.25.17.42.3.78.45,1.13,3.74,8.49,7.49,16.98,11.23,25.47.07.17.23.34.21.5-.05.65.07,1.52-.3,1.88-.37.35-1.34.42-1.87.2-3.28-1.4-6.51-2.92-9.76-4.41-.57-.26-1.14-.51-1.81-.81-.39.91-.76,1.78-1.12,2.66-1.21,2.97-2.42,5.93-3.62,8.9-.3.75-.67,1.42-1.61,1.43-.94,0-1.32-.65-1.64-1.4-4.14-9.4-8.27-18.8-12.44-28.19-.23-.51-.72-.89-1.1-1.33-.36.46-.84.87-1.07,1.38-4.11,9.25-8.18,18.52-12.26,27.79-.06.13-.12.27-.18.4-.32.75-.73,1.38-1.67,1.35-.88-.03-1.25-.65-1.54-1.37-1.2-2.97-2.41-5.94-3.62-8.9-.36-.88-.73-1.75-1.14-2.72-2.51,1.14-4.95,2.25-7.38,3.36-1.34.61-2.68,1.22-4.01,1.84-.75.34-1.48.52-2.14-.15-.66-.67-.45-1.4-.12-2.15,3.8-8.59,7.59-17.17,11.38-25.76.15-.33.27-.67.43-1.05-.36-.09-.64-.18-.92-.24-4.13-.84-5.85-2.68-6.44-6.86-.13-.91-.27-1.82-.37-2.74-.25-2.17-1.43-3.72-3.13-4.99-1.09-.81-2.16-1.67-3.13-2.62-1.85-1.8-2.43-4-1.67-6.48.37-1.19.8-2.38,1.32-3.51,1.06-2.33,1.03-4.6-.01-6.94-.61-1.37-1.07-2.82-1.46-4.27-.49-1.83,0-3.53,1.2-4.96.73-.87,1.53-1.75,2.48-2.34,3.13-1.93,4.65-4.7,4.74-8.33,0-.36.1-.73.17-1.09.8-3.92,2.69-5.69,6.67-6.24.73-.1,1.46-.21,2.19-.28,2.47-.22,4.37-1.37,5.79-3.4.69-.99,1.48-1.94,2.31-2.82,1.93-2.05,4.27-2.66,6.95-1.76,1.11.37,2.22.78,3.3,1.26,2.25,1.01,4.46,1,6.73,0,1.38-.6,2.81-1.11,4.26-1.49,1.9-.5,3.71-.1,5.16,1.23,1.11,1.01,2.16,2.13,3.01,3.37,1.61,2.35,3.79,3.51,6.58,3.66.7.04,1.39.16,2.08.3,3.98.81,5.7,2.7,6.29,6.89.1.73.19,1.46.27,2.19.25,2.25,1.24,4.06,3.09,5.37.51.36,1,.76,1.5,1.13,1.78,1.33,3.21,2.92,3.78,5.14v1.99c-.69,1.88-1.39,3.76-2.08,5.64-.6,1.63-.5,3.23.09,4.84.67,1.81,1.33,3.64,1.99,5.45v1.99Zm-30.31,26.46c.7-.35,1.43-.55,1.94-1.01.81-.73,1.58-1.57,2.19-2.47,2.22-3.32,5.3-4.81,9.27-5.14,3.99-.33,4.62-1.34,5.35-4.7.07-.32.06-.66.07-.99.2-3.59,1.61-6.53,4.64-8.62.82-.56,1.57-1.22,2.33-1.86,1.16-.99,1.71-2.21,1.25-3.74-.27-.91-.51-1.85-.93-2.7-1.68-3.4-1.78-6.79-.1-10.2.18-.36.38-.72.51-1.1,1.23-3.58.8-4.37-1.61-6.36-.31-.26-.61-.54-.95-.75-3.46-2.21-5.01-5.42-5.18-9.46-.12-3.06-1.55-4.61-4.44-5.14-.36-.07-.73-.08-1.1-.1-3.76-.21-6.82-1.67-8.93-4.89-.32-.49-.71-.94-1.08-1.4-1.85-2.26-3.05-2.59-5.8-1.61-.35.12-.69.27-1.01.44-3.5,1.85-7.02,1.98-10.58.19-.26-.13-.53-.25-.8-.36-3.31-1.38-4.44-1.08-6.66,1.74-.18.23-.38.45-.54.7-2.22,3.51-5.5,4.92-9.55,5.27-3.82.33-4.42,1.42-5.13,4.67-.07.32-.05.66-.07.99-.22,3.59-1.6,6.53-4.64,8.62-.88.6-1.68,1.32-2.49,2.02-1.07.92-1.51,2.08-1.11,3.47.29.98.56,1.99.99,2.91,1.33,2.86,1.78,5.76.59,8.77-.28.72-.64,1.41-.92,2.13-1.52,3.91-.88,4.72,1.56,6.72.31.26.62.53.96.75,3.42,2.2,4.78,5.42,5.12,9.4.31,3.62,1.24,4.5,4.63,5.15.5.1,1.02.1,1.54.15,2.81.27,5.31,1.18,7.16,3.44.77.94,1.49,1.92,2.27,2.86,1.8,2.16,2.86,2.47,5.52,1.59.38-.13.77-.27,1.12-.47,3.65-1.97,7.28-1.98,10.98-.1,1.09.55,2.34.79,3.63,1.2Zm-13.53,1.83c-.67.22-1.12.34-1.55.5-3.36,1.23-6.13.39-8.35-2.39-.62-.78-1.2-1.59-1.83-2.35-1.03-1.25-2.11-2.47-3.98-2.67-3.54,8.02-7.08,16.03-10.74,24.34,3.28-1.5,6.24-2.86,9.21-4.2,1.41-.64,2.08-.36,2.67,1.08,1.19,2.89,2.36,5.79,3.55,8.69.11.28.25.54.46.99,3.55-8.06,7.01-15.92,10.57-23.99Zm19.57,24.06c1.39-3.41,2.67-6.57,3.96-9.72.61-1.5,1.26-1.75,2.75-1.07,2.41,1.09,4.82,2.2,7.23,3.29.54.25,1.09.47,1.88.8-3.65-8.26-7.18-16.26-10.72-24.29-1.94.24-3.02,1.54-4.11,2.85-.96,1.16-1.88,2.38-2.95,3.43-1.45,1.43-3.25,2.01-5.28,1.58-1.06-.22-2.1-.56-3.35-.91,3.54,8.03,7.01,15.92,10.59,24.03Z"/>
      <path class="cls-1" d="m39.47,13.28c14.49.09,26.08,11.8,25.99,26.28-.08,14.42-11.91,26.09-26.32,25.98-14.44-.11-25.99-11.95-25.88-26.53.11-14.23,11.92-25.82,26.2-25.73Zm-23.13,26.01c.03,12.99,10.27,23.19,23.27,23.18,12.57-.02,22.83-10.48,22.77-23.23-.05-12.63-10.43-22.96-23-22.89-12.78.07-23.08,10.32-23.05,22.95Z"/>
      <path class="cls-1" d="m54.43,35.86c-.18.27-.42.77-.79,1.13-1.74,1.74-3.55,3.43-5.27,5.2-.29.3-.47.89-.41,1.31.35,2.44.84,4.86,1.16,7.3.08.6-.1,1.56-.51,1.82-.48.31-1.43.24-2-.03-2.13-1-4.2-2.12-6.26-3.26-.69-.38-1.22-.41-1.92-.02-2.06,1.14-4.13,2.26-6.26,3.27-.58.27-1.45.32-2.03.09-.77-.31-.69-1.17-.55-1.94.43-2.39.78-4.8,1.24-7.18.12-.64-.03-1.02-.47-1.44-1.76-1.68-3.49-3.39-5.23-5.08-.56-.54-1.13-1.2-.68-1.91.34-.53,1.08-.99,1.71-1.11,2.28-.42,4.58-.7,6.88-1,.78-.1,1.3-.37,1.65-1.17.95-2.11,2.04-4.16,3.04-6.25.34-.71.76-1.28,1.62-1.29.86,0,1.29.54,1.64,1.25,1,2.09,2.08,4.14,3.04,6.25.37.81.9,1.12,1.74,1.22,2.3.28,4.59.63,6.88.96.95.14,1.71.49,1.77,1.88Zm-15.06-6.64c-.88,1.77-1.71,3.25-2.36,4.81-.52,1.27-1.38,1.76-2.68,1.89-1.66.16-3.31.47-5.21.75,1.03,1,1.81,1.96,2.78,2.66,2.03,1.48,2.58,3.28,1.8,5.65-.36,1.11-.39,2.32-.61,3.71,1.76-.92,3.29-1.64,4.73-2.51,1.12-.67,2.08-.64,3.18.02,1.44.86,2.97,1.59,4.68,2.48-.3-1.82-.45-3.44-.84-4.99-.38-1.48,0-2.51,1.13-3.5,1.23-1.07,2.3-2.33,3.51-3.57-1.77-.25-3.43-.54-5.11-.72-1.25-.13-2.09-.6-2.6-1.84-.66-1.58-1.5-3.08-2.38-4.85Z"/>
    </g>
  </g>
</svg>