<?xml version="1.0" encoding="UTF-8"?>
<svg id="Layer_1" data-name="Layer 1" xmlns="http://www.w3.org/2000/svg" viewBox="0 0 100.75 97.19">
  <defs>
    <style>
      .cls-1 {
        fill: #46bfe8;
        stroke-width: 0px;
      }
    </style>
  </defs>
  <path class="cls-1" d="m0,54.48c.58-.86,1.39-1.14,2.42-1.13,5.64.03,11.28.01,16.92.02,1.87,0,2.39.53,2.4,2.4,0,1.02,0,2.03.02,3.05,0,.09.06.18.13.37h2.71c2.85,0,5.71-.03,8.56.02.72.01,1.5.19,2.14.52,3.74,1.89,7.44,3.86,11.18,5.76.47.24,1.05.38,1.58.39,4.1.03,8.21.17,12.29-.04,4.94-.25,9.27,3.81,7.95,9.63.3-.08.56-.13.81-.22,6.25-2.25,12.5-4.51,18.75-6.77,2.28-.82,4.6-1.36,7.03-.91,3.13.59,5.15,2.59,5.74,5.58.55,2.8-.68,5.78-3.32,7.31-2.6,1.51-5.25,3-8.04,4.1-9.37,3.71-18.81,7.24-28.23,10.84-.09.04-.2.05-.28.09-3.97,2.28-8.32,1.59-12.58,1.63-.44,0-.89-.21-1.31-.37-6.57-2.53-13.14-5.05-19.69-7.62-1.77-.7-3.54-.28-5.44-.45,0,1.33.01,2.53,0,3.73-.02,1.59-.62,2.19-2.22,2.19-5.71,0-11.41-.02-17.12.02-1.05,0-1.84-.3-2.4-1.17v-38.97Zm21.81,30.73c.79,0,1.51.04,2.22,0,1.71-.13,3.28.26,4.86.89,5.23,2.09,10.52,4.01,15.74,6.13,2.53,1.03,5.07,1.46,7.8,1.51,2.76.06,5.19-.71,7.67-1.67,9.37-3.62,18.78-7.14,28.13-10.83,2.51-.99,4.88-2.38,7.25-3.7,1.45-.81,2.03-2.42,1.7-3.98-.29-1.35-1.38-2.32-3.01-2.57-.67-.1-1.41-.19-2.04-.02-1.73.46-3.44,1.01-5.13,1.61-5.84,2.05-11.66,4.14-17.49,6.21-1.82.64-3.64,1.74-5.48,1.8-7.5.21-15.02.1-22.52.08-.92,0-1.57-.8-1.57-1.7,0-.87.59-1.56,1.48-1.67.39-.05.79-.04,1.18-.04,6.29-.03,12.59-.01,18.88-.11,2.51-.04,4.16-2.53,3.46-4.95-.52-1.8-1.99-2.85-4.1-2.86-4.43,0-8.85.05-13.28.01-.72,0-1.5-.19-2.15-.52-3.74-1.89-7.44-3.86-11.18-5.77-.5-.26-1.11-.4-1.68-.41-3.25-.04-6.49-.02-9.74-.02h-1.02v22.57Zm-18.29,5.82h14.69v-34.12H3.52v34.12Z"/>
  <path class="cls-1" d="m59.58,53.64c-14.76-.01-26.76-12.03-26.77-26.81C32.8,12.06,44.79.03,59.56,0c14.77-.03,26.85,12.06,26.83,26.85-.02,14.76-12.06,26.8-26.8,26.79Zm23.34-26.78c.06-12.81-10.36-23.31-23.19-23.37-12.92-.06-23.46,10.39-23.49,23.29-.03,12.8,10.42,23.33,23.21,23.38,12.95.05,23.41-10.34,23.47-23.29Z"/>
  <path class="cls-1" d="m47.2,41.19c-.58-.41-1.23-.63-1.44-1.07-.23-.48-.16-1.18-.04-1.74.07-.33.48-.61.75-.88,7.93-7.93,15.86-15.86,23.79-23.79.23-.23.46-.47.72-.66.7-.52,1.65-.44,2.24.15.61.62.68,1.51.15,2.24-.17.24-.39.44-.6.65-7.97,7.98-15.95,15.96-23.94,23.92-.44.44-1.01.74-1.64,1.19Z"/>
  <path class="cls-1" d="m57.7,18.95c-.03,3.36-2.74,6.03-6.1,6-3.34-.03-6-2.75-5.97-6.13.02-3.34,2.79-6.06,6.1-6.01,3.36.05,6,2.77,5.97,6.14Zm-5.99,2.51c1.42-.02,2.56-1.17,2.56-2.57,0-1.43-1.21-2.61-2.65-2.59-1.4.02-2.56,1.2-2.56,2.59,0,1.44,1.19,2.6,2.65,2.58Z"/>
  <path class="cls-1" d="m73.59,34.72c.02,3.34-2.68,6.07-6.03,6.1-3.32.03-6.08-2.7-6.1-6.03-.02-3.33,2.7-6.08,6.04-6.09,3.35-.01,6.07,2.69,6.09,6.03Zm-6.01-2.54c-1.46-.02-2.64,1.13-2.64,2.58,0,1.41,1.14,2.56,2.54,2.59,1.45.03,2.62-1.13,2.62-2.59,0-1.44-1.09-2.56-2.53-2.58Z"/>
</svg>