<?xml version="1.0" encoding="UTF-8"?>
<svg id="Layer_1" data-name="Layer 1" xmlns="http://www.w3.org/2000/svg" viewBox="0 0 362.74 352.27">
  <defs>
    <style>
      .cls-1 {
        fill: #46bfe8;
        stroke-width: 0px;
      }
    </style>
  </defs>
  <path class="cls-1" d="m345.99,332.59h-185.88v-13.19h171.87c1.96-39.38-15.37-79.3-53.34-100.47-8.28,7.86-17.57,14.52-28.44,18.52-33.1,12.17-63.23,6.84-90.07-16.08-2.39-2.04-3.98-2.56-6.47-.57-2.9,2.32-6.08,4.28-9.02,6.55-2.83,2.18-5.52,4.55-8.3,6.86-3.12-3-6.24-5.99-9.6-9.23,9.84-9.62,20.9-16.81,32.87-23.28,1.86,1.95,3.61,3.81,5.38,5.64,29.28,30.19,75.47,30.52,105.21.75q6.48-6.49,14.42-1.76c40.53,24.09,59.86,60.37,61.36,106.86.2,6.38.03,12.77.03,19.38Z"/>
  <path class="cls-1" d="m217.83,54.59c43.71-.17,79.41,35.46,79.47,79.33.07,43.87-35.28,79.41-79.21,79.63-43.55.22-79.53-35.64-79.61-79.34-.08-43.67,35.57-79.45,79.35-79.62Zm65.92,79.62c.08-36.32-29.22-65.86-65.54-66.09-36.06-.22-65.99,29.45-66.15,65.58-.16,36.37,29.59,66.33,65.86,66.32,36.26,0,65.75-29.49,65.83-65.81Z"/>
  <path class="cls-1" d="m79,193.19c17.92,17.15,35.51,33.94,53.01,50.83.78.75,1.19,2.58.88,3.65-2.78,9.71-2.84,9.7-13.06,9.7h-13.01c1.1,26.65,11.03,47.91,33.3,63.03-1.46,3.5-2.75,6.95-4.37,10.23-.4.82-2,1.75-2.82,1.57-34.69-7.51-62.54-24.06-76.47-58.64-1.65-4.09-2.96-8.37-3.9-12.67-.63-2.88-1.93-3.66-4.67-3.57-5.15.17-10.3-.07-15.45.09-2.61.08-4.06-.59-5.1-3.26-3.32-8.55-3.45-8.48,3.22-14.84,15.02-14.32,30.01-28.65,45.02-42.98,1.02-.98,2.08-1.92,3.41-3.15Zm-32.49,49.66c.12.33.24.66.36.99,4.22,0,8.44.15,12.65-.05,2.87-.14,3.84.82,4.23,3.75,3.72,27.66,17.35,48.55,42.52,61.39.91.47,1.92.75,3.81,1.47-14.34-20.48-17.67-42.71-17.11-66.57h19.35c-11.77-11.25-22.53-21.55-33.41-31.95-11.04,10.56-21.72,20.77-32.4,30.99Z"/>
  <path class="cls-1" d="m178.82,48.77c-3.98,1.95-7.67,3.76-11.66,5.7-7.41-13.64-18.25-22.86-33.2-26.64-10.85-2.74-21.59-1.91-31.94,2.45-20.44,8.62-33.39,30.78-30.53,52.2,1.78,13.32,7.66,24.49,18.01,33.1,10.33,8.6,22.42,12.25,36.16,11.71.28,4.52.55,8.73.81,12.91-21.51,3.38-56.66-10.26-66.64-46.9-8.97-32.91,9.73-67.21,42.64-77.57,34.55-10.87,65.86,9.03,76.33,33.03Z"/>
  <path class="cls-1" d="m29.44,213.92c-4.43-.68-8.61-1.32-12.77-1.96,2.68-30.7,22.61-65.98,56.86-81.98,15.36,18.35,34.85,25.94,59.24,21.08,1.11,4.15,2.19,8.21,3.46,12.99-24.94,5.41-46.53-.19-65.49-17.17-24.33,15.76-36.65,38.87-41.31,67.04Z"/>
</svg>