<?xml version="1.0" encoding="UTF-8"?>
<svg id="Layer_1" data-name="Layer 1" xmlns="http://www.w3.org/2000/svg" viewBox="0 0 362.74 352.27">
  <defs>
    <style>
      .cls-1 {
        fill: #46bfe8;
        stroke-width: 0px;
      }
    </style>
  </defs>
  <path class="cls-1" d="m181.34,337.39c-78.52-.17-144.83-56.03-158.78-133.76C7.32,118.74,63.32,35.93,147.89,18.22c27.21-5.7,54.09-4.57,80.67,3.52,6.28,1.91,9.74,7.24,8.55,13.04-1.43,6.99-7.77,10.62-15.1,8.44-14.51-4.31-29.29-6.29-44.45-5.98-55.44,1.12-106.21,36.78-125.96,88.65-29.56,77.59,13.15,162.23,93.1,184.48,76.58,21.31,156.89-27.88,172.57-105.62,3.76-18.67,3.87-37.28.26-55.95-1.32-6.84,2.58-12.59,9.24-13.77,6.05-1.07,11.67,3.13,12.92,9.65,14.28,74.21-23.62,147.69-92.12,178.51-21.05,9.47-43.17,14.1-66.24,14.2Z"/>
  <path class="cls-1" d="m192.36,245.47c-.92,12.46-4.2,17.24-11.55,17.19-7.27-.05-10.26-4.49-11.42-17.15-1.57-.46-3.24-.9-4.88-1.44-15.46-5.1-24.57-15.8-27.51-31.71-1.35-7.29,2.65-13.27,9.11-14.27,6.62-1.02,11.91,3.25,13.17,10.62,1.49,8.72,7.93,14.4,16.73,14.64,3.52.1,7.04.1,10.56,0,8.57-.27,15.57-6.45,16.51-14.48,1.05-8.91-3.76-16.31-12.45-18.68-7.91-2.16-15.92-3.97-23.84-6.07-18.42-4.89-30.2-19.98-30.13-38.44.08-18.42,12.09-33.42,30.52-38.12.68-.17,1.34-.39,2.47-.73,0-1.99-.1-4.07.02-6.13.37-6.27,5.1-10.91,11.09-10.97,5.92-.07,10.8,4.54,11.3,10.79.16,1.98.02,3.98.02,6.16,1.29.36,2.37.68,3.47.97,16.59,4.49,26.47,15.29,29.8,32.05,1.47,7.44-2.5,13.52-9.14,14.56-6.53,1.03-11.84-3.31-13.1-10.71-1.48-8.69-8.07-14.41-16.79-14.54-3.52-.05-7.04-.07-10.56,0-8.31.17-15.35,6.27-16.42,14.15-1.2,8.82,3.66,16.56,12.16,18.89,8.14,2.22,16.38,4.05,24.53,6.23,18.36,4.91,30.09,20.4,29.74,39.08-.34,18.13-12.69,33.07-30.93,37.43-.78.19-1.55.42-2.48.67Z"/>
  <path class="cls-1" d="m312.66,54.31c0,3.13,0,6.27,0,9.4,0,12.2.04,24.41-.02,36.61-.03,7.16-4.47,11.93-10.98,12.03-6.63.1-11.46-4.78-11.51-11.96-.1-14.08-.03-28.16-.03-42.25,0-1.27,0-2.53,0-4.84-4,3.98-7.25,7.41-10.71,10.62-6.6,6.09-16.79,2.88-18.72-5.85-.85-3.83.17-7.3,2.88-10.05,9.98-10.1,19.99-20.17,30.14-30.1,4.43-4.34,11.1-4.33,15.57.05,10.14,9.93,20.19,19.97,30.11,30.13,4.32,4.42,4.06,11.33-.13,15.59-4.34,4.42-11.15,4.61-15.81.15-3.38-3.23-6.44-6.78-9.64-10.19l-1.13.68Z"/>
</svg>