<svg xmlns="http://www.w3.org/2000/svg" xmlns:xlink="http://www.w3.org/1999/xlink" version="1.1" id="Layer_1" x="0px" y="0px" viewBox="-3 -3 1506 666" style="enable-background:new 0 0 1500 660;" xml:space="preserve"><g id="deeditor_bgCarrier" stroke-width="0">
    <rect id="dee_c_e" x="-3" y="-3" width="1506" height="666" rx="0" fill="#0d1821" strokewidth="0"/>
  </g>
<style type="text/css">
	.st0{fill:#ffffff;}
	.st1{fill:#ffffff;}
	.st2{display:none;}
	.st3{display:inline;fill:#ffffff;}
	.st4{font-family:'Causten-SemiBold';}
	.st5{font-size:81px;}
	.st6{letter-spacing:21;}
</style>
<path class="st0" d="M546.7,118.7h55.2l148.2,224.1l9.2-14.5l-25.8-39.5l25.8-39.5l25.6,38.4l8.3-11.5L726,177.8h56.4l63.2,100  l-95.2,144L546.7,118.7z M751.8,236.9l-51.1-77.5h224.1l28.5-42.1H614.8l108.5,161.2L751.8,236.9z M749.1,45  c-52.9,0-100.3,23.6-132.2,60.9H651c26.4-21.1,60.3-33.8,97.3-33.8c37,0,70.9,12.7,97.3,33.8h35.7C849.4,68.7,802,45,749.1,45z   M589.6,200.2L589.6,200.2l-11.9-17.7c-15.8,102.3,39.1,148.7,39.1,148.7C570.4,265.1,589.3,201.1,589.6,200.2z M692.1,353.7  c-85.2-36.5-88.9-119.6-89-133.3l-8.7-12.9c-19.2,151,120.6,181.1,120.6,181.1L692.1,353.7z M880.5,331.2c0,0,55-46.4,39.1-148.7  l-11.9,17.7v0C908,201.1,926.9,265.1,880.5,331.2z M782.2,388.6c0,0,139.8-30.1,120.6-181.1l-8.7,12.9c0,13.7-3.8,96.8-89,133.3  L782.2,388.6z M882.4,223.6l34.6-46.4H796.2l29.2,46.4H882.4z" fill="#ffffff"/>
<path class="st1" d="M245.8,472l-44.7,133.9h-19.6l-28.8-86.5l-28.6,86.5h-19.6L59.8,472h24.3l30.5,92.1l30.3-92.1h16.9l29.9,89.2  l29.9-89.2H245.8z M315.8,605.9V472h22.9v133.9H315.8z M523.4,472v133.9h-22.2l-61.6-94.1v94.1h-22.9V472H439l61.6,94.1V472H523.4z   M703.2,515c0,27.4-19.8,42.8-40,42.8h-38.7v48h-22.9V472h61.6C683.5,472,703.2,487.4,703.2,515z M680.4,515  c0-12.4-9.3-20.8-20.6-20.8h-35.2v41.4h34.8C670.9,535.6,680.4,527.2,680.4,515z M856.7,605.9l-31.1-48h-25.3v48h-22.9V472h63.2  c20.2,0,40,15.4,40,43c0,22.5-13.4,37.1-29.5,41.4l32.1,49.4H856.7z M800.3,535.6h36.9c11.5,0,20.6-8.4,20.6-20.6  c0-12.4-9.1-20.8-20.6-20.8h-36.9V535.6z M953.3,538.9c0-39.8,27.6-68.6,67.4-68.6c39.8,0,66.9,28.8,66.9,68.6s-27.2,68.6-66.9,68.6  C980.9,607.5,953.3,578.7,953.3,538.9z M1064.5,538.9c0-26.4-17.3-45.7-43.9-45.7c-26.6,0-44.5,19.4-44.5,45.7s17.9,45.7,44.5,45.7  C1047.2,584.6,1064.5,565.3,1064.5,538.9z M1185.4,493.6v37.7h63v21.6h-63v52.9h-22.9V472h89.8v21.6H1185.4z M1394.9,538.9  l45.3,66.9h-26.6l-31.9-47.4l-32.1,47.4H1323l45.3-66.9L1323,472h26.6l32.1,47.4l31.9-47.4h26.6L1394.9,538.9z" fill="#ffffff"/>
<g class="st2">
	<text transform="matrix(1 0 0 1 469.9563 554.6027)" class="st3 st4 st5 st6" fill="#ffffff">WinProFX</text>
</g>
</svg>