<?xml version="1.0" encoding="UTF-8"?>
<svg id="Layer_1" data-name="Layer 1" xmlns="http://www.w3.org/2000/svg" xmlns:xlink="http://www.w3.org/1999/xlink" viewBox="0 0 1388.6 1477.29">
  <defs>
    <style>
      .cls-1 {
        fill: url(#linear-gradient);
      }

      .cls-1, .cls-2, .cls-3, .cls-4 {
        stroke-width: 0px;
      }

      .cls-5 {
        filter: url(#drop-shadow-1);
      }

      .cls-6 {
        stroke-dasharray: 0 0 3 3;
      }

      .cls-6, .cls-7, .cls-8, .cls-9, .cls-10 {
        fill: none;
        stroke-miterlimit: 10;
      }

      .cls-6, .cls-8, .cls-9, .cls-10 {
        stroke: #46c0e9;
      }

      .cls-7 {
        stroke: #eceeee;
      }

      .cls-9 {
        stroke-dasharray: 0 0 3 3;
      }

      .cls-10 {
        stroke-dasharray: 0 0 3.03 3.03;
      }

      .cls-2 {
        fill: #46c0e9;
      }

      .cls-3 {
        fill: #183c63;
      }

      .cls-4 {
        fill: #fff;
      }
    </style>
    <filter id="drop-shadow-1" filterUnits="userSpaceOnUse">
      <feOffset dx="7" dy="7"/>
      <feGaussianBlur result="blur" stdDeviation="12"/>
      <feFlood flood-color="#000" flood-opacity=".37"/>
      <feComposite in2="blur" operator="in"/>
      <feComposite in="SourceGraphic"/>
    </filter>
    <linearGradient id="linear-gradient" x1="0" y1="815.92" x2="1388.6" y2="815.92" gradientTransform="translate(1388.6 1631.84) rotate(-180)" gradientUnits="userSpaceOnUse">
      <stop offset=".18" stop-color="#0d1428"/>
      <stop offset=".43" stop-color="#0b1c34"/>
      <stop offset=".72" stop-color="#092b49"/>
      <stop offset=".97" stop-color="#014e7c"/>
      <stop offset="1" stop-color="#015384"/>
    </linearGradient>
  </defs>
  <g class="cls-5">
    <path class="cls-1" d="m83.61,231.17h1221.37c46.15,0,83.61,37.46,83.61,83.61v1085.9H0V314.78c0-46.15,37.46-83.61,83.61-83.61Z" transform="translate(1388.6 1631.84) rotate(180)"/>
    <path class="cls-2" d="m80.9,0h1226.8c44.65,0,80.9,36.25,80.9,80.9v208.85H0V80.9C0,36.25,36.25,0,80.9,0Z"/>
  </g>
  <g>
    <path class="cls-3" d="m431.19,187.85l-20.03-61.22h14.69l17.4,54.22h-7.35l18.19-54.22h13.12l17.49,54.22h-7.08l17.84-54.22h13.56l-20.03,61.22h-15.22l-15.48-47.57h4.02l-15.92,47.57h-15.22Z"/>
    <path class="cls-3" d="m516.89,187.85v-61.22h14.17v61.22h-14.17Z"/>
    <path class="cls-3" d="m558.26,187.85v-49.67h-19.59v-11.54h53.35v11.54h-19.59v49.67h-14.17Z"/>
    <path class="cls-3" d="m613.79,187.85h-14.17v-61.22h14.17v61.22Zm28.86-25.1h-29.91v-11.98h29.91v11.98Zm-1.05-36.12h14.17v61.22h-14.17v-61.22Z"/>
    <path class="cls-3" d="m695.03,187.85v-61.22h29.91c7.7,0,13.48,1.46,17.36,4.37,3.88,2.92,5.82,6.76,5.82,11.54,0,3.21-.79,5.99-2.36,8.35-1.57,2.36-3.73,4.18-6.47,5.47-2.74,1.28-5.89,1.92-9.45,1.92l1.66-3.59c3.85,0,7.26.63,10.23,1.88,2.97,1.25,5.29,3.1,6.95,5.55,1.66,2.45,2.49,5.45,2.49,9.01,0,5.25-2.07,9.34-6.21,12.29-4.14,2.94-10.23,4.42-18.28,4.42h-31.66Zm14.08-10.67h16.53c3.67,0,6.46-.6,8.35-1.79,1.9-1.19,2.84-3.1,2.84-5.73s-.95-4.47-2.84-5.73c-1.9-1.25-4.68-1.88-8.35-1.88h-17.58v-10.32h15.13c3.44,0,6.08-.6,7.91-1.79,1.84-1.19,2.76-3.02,2.76-5.47s-.92-4.18-2.76-5.38c-1.84-1.19-4.47-1.79-7.91-1.79h-14.08v39.88Z"/>
    <path class="cls-3" d="m791.66,188.9c-4.84,0-9.31-.79-13.42-2.36s-7.67-3.79-10.67-6.65c-3-2.86-5.33-6.21-7-10.06-1.66-3.85-2.49-8.05-2.49-12.59s.83-8.74,2.49-12.59c1.66-3.85,4.01-7.2,7.04-10.06,3.03-2.86,6.59-5.07,10.67-6.65,4.08-1.57,8.51-2.36,13.29-2.36s9.28.79,13.34,2.36,7.58,3.79,10.58,6.65c3,2.86,5.35,6.2,7.04,10.01s2.54,8.03,2.54,12.64-.85,8.76-2.54,12.64c-1.69,3.88-4.04,7.23-7.04,10.06-3,2.83-6.53,5.03-10.58,6.6s-8.47,2.36-13.25,2.36Zm-.09-12.07c2.74,0,5.26-.47,7.56-1.4,2.3-.93,4.33-2.27,6.08-4.02,1.75-1.75,3.11-3.82,4.07-6.21.96-2.39,1.44-5.04,1.44-7.96s-.48-5.57-1.44-7.96c-.96-2.39-2.3-4.46-4.02-6.21-1.72-1.75-3.75-3.09-6.08-4.02-2.33-.93-4.87-1.4-7.61-1.4s-5.26.47-7.56,1.4c-2.3.93-4.33,2.27-6.08,4.02-1.75,1.75-3.11,3.82-4.07,6.21-.96,2.39-1.44,5.04-1.44,7.96s.48,5.5,1.44,7.92c.96,2.42,2.3,4.5,4.02,6.25,1.72,1.75,3.75,3.09,6.08,4.02,2.33.93,4.87,1.4,7.61,1.4Z"/>
    <path class="cls-3" d="m835.74,187.85v-61.22h11.72l36.12,44.08h-5.68v-44.08h13.99v61.22h-11.63l-36.21-44.08h5.68v44.08h-13.99Z"/>
    <path class="cls-3" d="m933.6,188.9c-8.69,0-15.48-2.42-20.38-7.26-4.9-4.84-7.35-11.75-7.35-20.73v-34.28h14.17v33.76c0,5.83,1.19,10.03,3.58,12.59,2.39,2.57,5.74,3.85,10.06,3.85s7.67-1.28,10.06-3.85c2.39-2.57,3.58-6.76,3.58-12.59v-33.76h13.99v34.28c0,8.98-2.45,15.89-7.35,20.73-4.9,4.84-11.69,7.26-20.38,7.26Z"/>
    <path class="cls-3" d="m995.42,188.9c-4.9,0-9.59-.66-14.08-1.97s-8.1-3.02-10.84-5.12l4.81-10.67c2.62,1.87,5.73,3.4,9.31,4.59,3.59,1.2,7.22,1.79,10.89,1.79,2.8,0,5.06-.28,6.78-.83,1.72-.55,2.99-1.32,3.8-2.32.82-.99,1.22-2.13,1.22-3.41,0-1.63-.64-2.93-1.92-3.89-1.28-.96-2.98-1.75-5.07-2.36-2.1-.61-4.42-1.19-6.95-1.75-2.53-.55-5.07-1.24-7.61-2.06-2.54-.82-4.85-1.87-6.95-3.15-2.1-1.28-3.81-2.97-5.12-5.07-1.31-2.1-1.97-4.78-1.97-8.05,0-3.5.95-6.69,2.84-9.58,1.89-2.89,4.75-5.19,8.57-6.91,3.82-1.72,8.61-2.58,14.39-2.58,3.85,0,7.64.45,11.37,1.36,3.73.9,7.02,2.26,9.88,4.07l-4.37,10.76c-2.86-1.63-5.71-2.84-8.57-3.63-2.86-.79-5.66-1.18-8.4-1.18s-4.99.32-6.73.96c-1.75.64-3,1.47-3.76,2.49s-1.14,2.2-1.14,3.54c0,1.57.64,2.84,1.92,3.8,1.28.96,2.97,1.74,5.07,2.32,2.1.58,4.42,1.17,6.95,1.75,2.54.58,5.07,1.25,7.61,2.01,2.54.76,4.85,1.78,6.95,3.06,2.1,1.28,3.8,2.97,5.12,5.07s1.97,4.75,1.97,7.96c0,3.44-.96,6.59-2.89,9.44-1.92,2.86-4.8,5.16-8.61,6.91-3.82,1.75-8.64,2.62-14.47,2.62Z"/>
  </g>
  <g>
    <path class="cls-4" d="m400.8,401.75v-35.26h17.23c4.43,0,7.77.84,10,2.52,2.23,1.68,3.35,3.9,3.35,6.65,0,1.85-.45,3.45-1.36,4.81s-2.15,2.41-3.73,3.15c-1.58.74-3.39,1.11-5.44,1.11l.96-2.07c2.22,0,4.18.36,5.89,1.08,1.71.72,3.05,1.79,4,3.2s1.44,3.14,1.44,5.19c0,3.02-1.19,5.38-3.58,7.08-2.38,1.7-5.89,2.54-10.53,2.54h-18.23Zm8.11-6.15h9.52c2.12,0,3.72-.34,4.81-1.03,1.09-.69,1.64-1.79,1.64-3.3s-.55-2.58-1.64-3.3c-1.09-.72-2.69-1.08-4.81-1.08h-10.13v-5.94h8.72c1.98,0,3.5-.34,4.56-1.03,1.06-.69,1.59-1.74,1.59-3.15s-.53-2.41-1.59-3.1c-1.06-.69-2.58-1.03-4.56-1.03h-8.11v22.97Z"/>
    <path class="cls-4" d="m456.01,402.36c-5,0-8.92-1.39-11.74-4.18-2.82-2.79-4.23-6.77-4.23-11.94v-19.75h8.16v19.44c0,3.36.69,5.78,2.06,7.25,1.38,1.48,3.31,2.22,5.79,2.22s4.42-.74,5.79-2.22c1.38-1.48,2.07-3.89,2.07-7.25v-19.44h8.06v19.75c0,5.17-1.41,9.15-4.23,11.94s-6.73,4.18-11.74,4.18Z"/>
    <path class="cls-4" d="m489.31,401.75v-14.41l1.86,4.94-15.52-25.79h8.66l11.89,19.8h-4.99l11.94-19.8h8.01l-15.51,25.79,1.81-4.94v14.41h-8.16Z"/>
    <path class="cls-2" d="m534.09,401.75v-32.24l3.53,3.53h-10.58v-6.55h15.21v35.26h-8.16Z"/>
    <path class="cls-2" d="m554.04,402.16c-1.34,0-2.49-.46-3.45-1.39s-1.43-2.11-1.43-3.55.48-2.61,1.43-3.5c.96-.89,2.11-1.33,3.45-1.33s2.54.45,3.48,1.33c.94.89,1.41,2.06,1.41,3.5s-.47,2.63-1.41,3.55c-.94.92-2.1,1.39-3.48,1.39Z"/>
    <path class="cls-2" d="m578.72,402.36c-2.96,0-5.54-.45-7.76-1.34s-3.95-2.15-5.19-3.78c-1.24-1.63-1.86-3.53-1.86-5.72s.61-4.04,1.84-5.57c1.23-1.53,2.95-2.69,5.16-3.48,2.22-.79,4.82-1.18,7.81-1.18s5.65.39,7.88,1.18c2.23.79,3.96,1.95,5.19,3.48,1.23,1.53,1.84,3.38,1.84,5.57s-.62,4.09-1.86,5.72c-1.24,1.63-2.98,2.89-5.21,3.78s-4.84,1.34-7.83,1.34Zm0-16.93c-2.72,0-5.1-.37-7.13-1.11-2.03-.74-3.61-1.82-4.73-3.25-1.13-1.43-1.69-3.13-1.69-5.11,0-2.08.57-3.87,1.71-5.36s2.74-2.65,4.79-3.48c2.05-.82,4.4-1.23,7.05-1.23s5.1.41,7.13,1.23c2.03.82,3.63,1.98,4.78,3.48,1.16,1.49,1.74,3.28,1.74,5.36s-.56,3.69-1.69,5.11c-1.13,1.43-2.71,2.51-4.76,3.25s-4.45,1.11-7.2,1.11Zm0,10.93c2.05,0,3.67-.45,4.86-1.36,1.19-.91,1.79-2.15,1.79-3.73s-.6-2.81-1.79-3.7c-1.19-.89-2.81-1.34-4.86-1.34s-3.61.45-4.79,1.34c-1.17.89-1.76,2.12-1.76,3.7s.59,2.82,1.76,3.73c1.18.91,2.77,1.36,4.79,1.36Zm0-15.72c1.71,0,3.06-.39,4.05-1.16.99-.77,1.49-1.83,1.49-3.17,0-1.41-.51-2.5-1.54-3.27-1.03-.77-2.36-1.16-4-1.16s-2.92.39-3.93,1.16c-1.01.77-1.51,1.86-1.51,3.27s.49,2.4,1.46,3.17c.97.77,2.3,1.16,3.98,1.16Z"/>
    <path class="cls-2" d="m613.48,402.36c-2.89,0-5.47-.71-7.76-2.14-2.28-1.43-4.08-3.5-5.39-6.22-1.31-2.72-1.96-6.01-1.96-9.87s.66-7.15,1.96-9.87c1.31-2.72,3.11-4.79,5.39-6.22,2.28-1.43,4.87-2.14,7.76-2.14s5.52.71,7.78,2.14,4.05,3.5,5.36,6.22c1.31,2.72,1.96,6.01,1.96,9.87s-.65,7.15-1.96,9.87c-1.31,2.72-3.1,4.79-5.36,6.22-2.27,1.43-4.86,2.14-7.78,2.14Zm0-6.9c1.38,0,2.58-.39,3.6-1.16,1.02-.77,1.83-2,2.42-3.68.59-1.68.88-3.84.88-6.5s-.3-4.82-.88-6.5c-.59-1.68-1.39-2.9-2.42-3.68-1.02-.77-2.22-1.16-3.6-1.16s-2.53.39-3.55,1.16c-1.03.77-1.83,2-2.42,3.68-.59,1.68-.88,3.85-.88,6.5s.29,4.82.88,6.5c.59,1.68,1.39,2.91,2.42,3.68,1.02.77,2.21,1.16,3.55,1.16Z"/>
    <path class="cls-4" d="m650.5,401.75v-37.38h7.86v37.38h-7.86Z"/>
    <path class="cls-4" d="m679.57,402.16c-2.89,0-5.45-.6-7.68-1.81-2.24-1.21-4-2.86-5.29-4.96s-1.94-4.49-1.94-7.18.65-5.13,1.94-7.23c1.29-2.1,3.05-3.74,5.29-4.94,2.23-1.19,4.79-1.79,7.68-1.79s5.41.6,7.66,1.79c2.25,1.19,4.01,2.83,5.29,4.91,1.27,2.08,1.91,4.5,1.91,7.25s-.64,5.08-1.91,7.18c-1.28,2.1-3.04,3.75-5.29,4.96s-4.8,1.81-7.66,1.81Zm0-6.45c1.31,0,2.48-.3,3.53-.91s1.86-1.47,2.47-2.59c.6-1.13.91-2.46.91-4s-.3-2.92-.91-4.03c-.61-1.11-1.43-1.96-2.47-2.57s-2.22-.91-3.53-.91-2.49.3-3.53.91-1.87,1.46-2.49,2.57-.93,2.45-.93,4.03.31,2.88.93,4,1.45,1.99,2.49,2.59,2.22.91,3.53.91Z"/>
    <path class="cls-4" d="m697.45,381.3v-6.04h18.79v6.04h-18.79Zm14.31,20.85c-3.19,0-5.68-.81-7.46-2.44-1.78-1.63-2.67-4.05-2.67-7.28v-23.78h7.86v23.68c0,1.14.3,2.02.91,2.65.6.62,1.43.93,2.47.93,1.24,0,2.3-.34,3.17-1.01l2.12,5.54c-.81.57-1.77,1-2.9,1.28-1.13.29-2.29.43-3.5.43Z"/>
    <path class="cls-4" d="m732.71,402.16c-2.32,0-4.54-.28-6.67-.83-2.13-.55-3.82-1.25-5.06-2.09l2.62-5.64c1.24.77,2.71,1.4,4.41,1.89,1.69.49,3.37.73,5.01.73,1.81,0,3.1-.22,3.85-.66.76-.44,1.13-1.04,1.13-1.81,0-.64-.3-1.12-.88-1.44-.59-.32-1.37-.56-2.34-.73-.97-.17-2.04-.34-3.2-.5-1.16-.17-2.33-.39-3.5-.68-1.17-.29-2.25-.71-3.22-1.28-.98-.57-1.76-1.34-2.34-2.32-.59-.97-.88-2.23-.88-3.78,0-1.71.49-3.22,1.48-4.53.99-1.31,2.43-2.34,4.31-3.1,1.88-.76,4.13-1.13,6.75-1.13,1.85,0,3.73.2,5.64.6s3.51.99,4.78,1.76l-2.62,5.59c-1.31-.77-2.63-1.3-3.95-1.59s-2.61-.43-3.85-.43c-1.75,0-3.02.24-3.83.71-.8.47-1.21,1.07-1.21,1.81,0,.67.29,1.18.88,1.51.59.34,1.37.6,2.34.81.97.2,2.04.38,3.2.53,1.16.15,2.32.38,3.5.68s2.24.73,3.2,1.28c.96.55,1.74,1.31,2.34,2.27.6.96.91,2.21.91,3.75,0,1.68-.5,3.17-1.51,4.46-1.01,1.29-2.46,2.31-4.36,3.05s-4.21,1.11-6.93,1.11Z"/>
    <path class="cls-4" d="m775.27,395.2h19.19v6.55h-27.3v-35.26h26.65v6.55h-18.54v22.16Zm-.61-14.51h16.98v6.35h-16.98v-6.35Z"/>
    <path class="cls-4" d="m817.64,402.36c-5,0-8.92-1.39-11.74-4.18-2.82-2.79-4.23-6.77-4.23-11.94v-19.75h8.16v19.44c0,3.36.69,5.78,2.06,7.25,1.38,1.48,3.31,2.22,5.79,2.22s4.42-.74,5.79-2.22c1.38-1.48,2.07-3.89,2.07-7.25v-19.44h8.06v19.75c0,5.17-1.41,9.15-4.23,11.94s-6.73,4.18-11.74,4.18Z"/>
    <path class="cls-4" d="m842.67,401.75v-35.26h15.26c3.16,0,5.88.51,8.16,1.54,2.28,1.02,4.05,2.49,5.29,4.41,1.24,1.91,1.86,4.2,1.86,6.85s-.62,4.88-1.86,6.78c-1.24,1.9-3.01,3.35-5.29,4.36-2.29,1.01-5.01,1.51-8.16,1.51h-10.73l3.63-3.58v13.4h-8.16Zm8.16-12.49l-3.63-3.83h10.28c2.52,0,4.4-.55,5.64-1.64s1.86-2.6,1.86-4.51-.62-3.46-1.86-4.53-3.12-1.61-5.64-1.61h-10.28l3.63-3.88v20Zm14.25,12.49l-8.82-12.79h8.72l8.92,12.79h-8.82Z"/>
    <path class="cls-4" d="m896.37,402.36c-5,0-8.92-1.39-11.74-4.18-2.82-2.79-4.23-6.77-4.23-11.94v-19.75h8.16v19.44c0,3.36.69,5.78,2.06,7.25,1.38,1.48,3.31,2.22,5.79,2.22s4.42-.74,5.79-2.22c1.38-1.48,2.07-3.89,2.07-7.25v-19.44h8.06v19.75c0,5.17-1.41,9.15-4.23,11.94-2.82,2.79-6.73,4.18-11.74,4.18Z"/>
    <path class="cls-4" d="m932.99,402.36c-2.82,0-5.52-.38-8.11-1.13-2.59-.76-4.67-1.74-6.25-2.95l2.77-6.15c1.51,1.07,3.3,1.96,5.36,2.64,2.07.69,4.16,1.03,6.27,1.03,1.61,0,2.91-.16,3.9-.48.99-.32,1.72-.76,2.19-1.33s.71-1.23.71-1.97c0-.94-.37-1.69-1.11-2.24-.74-.55-1.71-1.01-2.92-1.36-1.21-.35-2.54-.69-4-1.01-1.46-.32-2.92-.71-4.38-1.18-1.46-.47-2.79-1.07-4-1.81-1.21-.74-2.19-1.71-2.95-2.92-.76-1.21-1.13-2.75-1.13-4.63,0-2.02.54-3.85,1.64-5.52,1.09-1.66,2.74-2.99,4.94-3.98s4.96-1.49,8.29-1.49c2.21,0,4.4.26,6.55.78,2.15.52,4.05,1.3,5.69,2.34l-2.52,6.2c-1.65-.94-3.29-1.64-4.94-2.09-1.65-.45-3.26-.68-4.84-.68s-2.87.18-3.88.55c-1.01.37-1.73.85-2.17,1.44-.44.59-.65,1.27-.65,2.04,0,.91.37,1.64,1.11,2.19.74.55,1.71,1,2.92,1.34,1.21.34,2.54.67,4,1.01,1.46.34,2.92.72,4.38,1.16,1.46.44,2.8,1.02,4,1.76,1.21.74,2.19,1.71,2.95,2.92.76,1.21,1.13,2.74,1.13,4.58,0,1.98-.55,3.8-1.66,5.44-1.11,1.65-2.76,2.97-4.96,3.98-2.2,1.01-4.98,1.51-8.34,1.51Z"/>
    <path class="cls-4" d="m954.55,401.75v-35.26h16.02c3.83,0,7.2.73,10.12,2.19s5.2,3.5,6.85,6.12c1.64,2.62,2.47,5.73,2.47,9.32s-.82,6.66-2.47,9.29c-1.65,2.64-3.93,4.68-6.85,6.15-2.92,1.46-6.3,2.19-10.12,2.19h-16.02Zm8.16-6.7h7.46c2.35,0,4.39-.45,6.12-1.34,1.73-.89,3.07-2.16,4.03-3.8s1.44-3.58,1.44-5.79-.48-4.19-1.44-5.82-2.3-2.89-4.03-3.78-3.77-1.34-6.12-1.34h-7.46v21.86Z"/>
  </g>
  <g>
    <g>
      <polygon class="cls-4" points="337.2 713.74 334.96 713.74 334.96 740.66 325.6 740.66 325.6 795.21 334.96 795.21 334.96 808.98 337.2 808.98 337.2 795.21 346.56 795.21 346.56 740.66 337.2 740.66 337.2 713.74"/>
      <polygon class="cls-4" points="379.63 713.74 377.38 713.74 377.38 724.95 368.21 724.95 368.21 735 377.38 735 377.38 771.07 379.63 771.07 379.63 735 389.16 735 389.16 724.95 379.63 724.95 379.63 713.74"/>
      <polygon class="cls-2" points="422.06 641.15 419.81 641.15 419.81 657.7 410.46 657.7 410.46 724.95 419.81 724.95 419.81 761.36 422.06 761.36 422.06 724.95 431.41 724.95 431.41 657.7 422.06 657.7 422.06 641.15"/>
      <polygon class="cls-2" points="465.01 621.79 462.76 621.79 462.76 643 453.41 643 453.41 653.48 462.76 653.48 462.76 691.33 465.01 691.33 465.01 653.48 474.37 653.48 474.37 643 465.01 643 465.01 621.79"/>
      <polygon class="cls-4" points="506.56 518.04 504.31 518.04 504.31 598.2 494.96 598.2 494.96 641.15 504.31 641.15 504.31 654.45 506.56 654.45 506.56 641.15 515.91 641.15 515.91 598.2 506.56 598.2 506.56 518.04"/>
      <polygon class="cls-2" points="549.16 549.02 546.91 549.02 546.91 598.2 537.56 598.2 537.56 604.19 546.91 604.19 546.91 637.55 549.16 637.55 549.16 604.19 558.51 604.19 558.51 598.2 549.16 598.2 549.16 549.02"/>
      <polygon class="cls-2" points="600.76 531.3 591.41 531.3 591.41 493.16 589.16 493.16 589.16 531.3 579.81 531.3 579.81 591.86 589.16 591.86 589.16 605.84 591.41 605.84 591.41 591.86 600.76 591.86 600.76 531.3"/>
    </g>
    <g>
      <line class="cls-8" x1="614.57" y1="527.73" x2="616.07" y2="527.73"/>
      <line class="cls-6" x1="619.06" y1="527.73" x2="881.19" y2="527.73"/>
      <polyline class="cls-8" points="882.69 527.73 884.19 527.73 884.19 529.23"/>
      <line class="cls-10" x1="884.19" y1="532.26" x2="884.19" y2="718.89"/>
      <polyline class="cls-8" points="884.19 720.4 884.19 721.9 882.69 721.9"/>
      <line class="cls-9" x1="879.69" y1="721.9" x2="449.36" y2="721.9"/>
      <line class="cls-8" x1="447.86" y1="721.9" x2="446.36" y2="721.9"/>
    </g>
    <g>
      <path class="cls-4" d="m661.69,515.12c-1.78,0-3.37-.36-4.76-1.09-1.39-.73-2.48-1.73-3.27-3.02-.79-1.29-1.18-2.75-1.18-4.39s.39-3.13,1.18-4.4c.79-1.28,1.88-2.28,3.27-3.01,1.39-.73,2.98-1.09,4.76-1.09s3.25.36,4.54,1.09c1.29.73,2.24,1.76,2.85,3.12l-3.71,1.99c-.43-.78-.97-1.35-1.61-1.72s-1.35-.55-2.1-.55c-.82,0-1.56.18-2.21.55-.66.37-1.17.89-1.55,1.57s-.57,1.49-.57,2.46.19,1.78.57,2.45c.38.68.89,1.2,1.55,1.57.65.37,1.39.55,2.21.55.76,0,1.46-.18,2.1-.54s1.18-.94,1.61-1.73l3.71,2.03c-.61,1.33-1.56,2.36-2.85,3.08-1.29.73-2.8,1.09-4.54,1.09Z"/>
      <path class="cls-4" d="m672.34,514.88v-22.77h4.79v22.77h-4.79Z"/>
      <path class="cls-4" d="m690.05,515.12c-1.76,0-3.32-.37-4.68-1.1-1.36-.74-2.44-1.74-3.22-3.02-.79-1.28-1.18-2.74-1.18-4.37s.39-3.13,1.18-4.4c.79-1.28,1.86-2.28,3.22-3.01,1.36-.73,2.92-1.09,4.68-1.09s3.29.36,4.66,1.09c1.37.73,2.45,1.72,3.22,2.99.78,1.27,1.17,2.74,1.17,4.42s-.39,3.09-1.17,4.37c-.78,1.28-1.85,2.29-3.22,3.02-1.37.74-2.92,1.1-4.66,1.1Zm0-3.93c.8,0,1.51-.18,2.15-.55.63-.37,1.14-.89,1.5-1.58.37-.69.55-1.5.55-2.44s-.18-1.78-.55-2.46c-.37-.68-.87-1.2-1.5-1.57-.64-.37-1.35-.55-2.15-.55s-1.51.18-2.15.55c-.63.37-1.14.89-1.52,1.57s-.57,1.49-.57,2.46.19,1.75.57,2.44.88,1.21,1.52,1.58c.64.37,1.35.55,2.15.55Z"/>
      <path class="cls-4" d="m708.46,515.12c-1.41,0-2.77-.17-4.07-.51-1.3-.34-2.33-.76-3.08-1.27l1.6-3.44c.76.47,1.65.85,2.69,1.15,1.03.3,2.05.45,3.05.45,1.11,0,1.89-.13,2.35-.4.46-.27.69-.63.69-1.11,0-.39-.18-.68-.54-.87-.36-.19-.83-.34-1.43-.45s-1.24-.2-1.95-.31-1.42-.24-2.13-.41c-.72-.17-1.37-.43-1.96-.78-.59-.35-1.07-.82-1.43-1.41s-.54-1.36-.54-2.3c0-1.04.3-1.96.9-2.76s1.48-1.43,2.63-1.89c1.14-.46,2.52-.69,4.11-.69,1.12,0,2.27.12,3.44.37,1.17.25,2.14.6,2.92,1.07l-1.6,3.41c-.8-.47-1.6-.79-2.41-.97-.81-.17-1.59-.26-2.35-.26-1.06,0-1.84.14-2.33.43-.49.29-.74.66-.74,1.1,0,.41.18.72.54.92s.83.37,1.43.49c.59.12,1.24.23,1.95.32s1.42.23,2.13.41,1.37.45,1.95.78c.58.34,1.06.8,1.43,1.38.37.58.55,1.35.55,2.29,0,1.02-.31,1.93-.92,2.72-.62.79-1.5,1.41-2.66,1.86-1.16.45-2.56.67-4.22.67Z"/>
      <path class="cls-4" d="m728.02,515.12c-1.88,0-3.53-.37-4.96-1.1-1.42-.74-2.52-1.74-3.3-3.02-.78-1.28-1.17-2.74-1.17-4.37s.38-3.13,1.15-4.4c.77-1.28,1.82-2.28,3.15-3.01s2.83-1.09,4.51-1.09,3.07.34,4.37,1.03c1.3.69,2.33,1.67,3.08,2.95.76,1.28,1.14,2.81,1.14,4.59,0,.18-.01.39-.03.63s-.04.46-.06.66h-13.41v-2.79h10.9l-1.84.83c0-.86-.17-1.61-.52-2.24-.35-.63-.83-1.13-1.44-1.49-.62-.36-1.33-.54-2.15-.54s-1.54.18-2.16.54c-.62.36-1.11.86-1.46,1.5-.35.64-.52,1.41-.52,2.29v.74c0,.9.2,1.69.6,2.38s.96,1.21,1.69,1.57,1.58.54,2.56.54c.88,0,1.65-.13,2.32-.4.66-.26,1.27-.66,1.82-1.2l2.55,2.76c-.76.86-1.71,1.52-2.85,1.98s-2.47.69-3.96.69Z"/>
      <path class="cls-4" d="m751.4,514.88v-19.64l2.15,2.15h-6.44v-3.99h9.27v21.48h-4.97Z"/>
      <path class="cls-4" d="m763.56,515.12c-.82,0-1.52-.28-2.1-.84-.58-.56-.87-1.28-.87-2.16s.29-1.59.87-2.13c.58-.54,1.28-.81,2.1-.81s1.54.27,2.12.81c.57.54.86,1.25.86,2.13s-.29,1.6-.86,2.16c-.57.56-1.28.84-2.12.84Z"/>
      <path class="cls-4" d="m776.67,515.25c-1.49,0-2.98-.2-4.45-.6-1.47-.4-2.72-.97-3.75-1.7l1.93-3.81c.82.59,1.77,1.06,2.85,1.41,1.09.35,2.18.52,3.29.52,1.25,0,2.23-.25,2.95-.74.72-.49,1.07-1.17,1.07-2.03s-.32-1.46-.95-1.93c-.63-.47-1.66-.71-3.07-.71h-2.27v-3.28l5.99-6.78.55,1.78h-11.26v-3.99h15.04v3.22l-5.95,6.78-2.52-1.44h1.44c2.64,0,4.63.59,5.99,1.78,1.35,1.19,2.03,2.71,2.03,4.57,0,1.21-.32,2.34-.95,3.39-.64,1.05-1.61,1.91-2.92,2.56-1.31.66-2.99.98-5.03.98Z"/>
      <path class="cls-4" d="m797.69,515.25c-1.76,0-3.34-.43-4.73-1.3-1.39-.87-2.49-2.13-3.29-3.79-.8-1.66-1.2-3.66-1.2-6.02s.4-4.36,1.2-6.02c.8-1.66,1.89-2.92,3.29-3.79,1.39-.87,2.97-1.3,4.73-1.3s3.36.43,4.74,1.3c1.38.87,2.47,2.13,3.27,3.79.8,1.66,1.2,3.66,1.2,6.02s-.4,4.36-1.2,6.02c-.8,1.66-1.89,2.92-3.27,3.79-1.38.87-2.96,1.3-4.74,1.3Zm0-4.2c.84,0,1.57-.24,2.19-.71s1.11-1.22,1.47-2.24c.36-1.02.54-2.34.54-3.96s-.18-2.94-.54-3.96c-.36-1.02-.85-1.77-1.47-2.24s-1.35-.71-2.19-.71-1.54.24-2.16.71-1.11,1.22-1.47,2.24c-.36,1.02-.54,2.34-.54,3.96s.18,2.94.54,3.96c.36,1.02.85,1.77,1.47,2.24s1.35.71,2.16.71Z"/>
      <path class="cls-4" d="m813.13,514.88v-19.64l2.15,2.15h-6.44v-3.99h9.27v21.48h-4.97Z"/>
      <path class="cls-4" d="m831.67,515.25c-1.76,0-3.34-.43-4.73-1.3-1.39-.87-2.49-2.13-3.29-3.79-.8-1.66-1.2-3.66-1.2-6.02s.4-4.36,1.2-6.02c.8-1.66,1.89-2.92,3.29-3.79,1.39-.87,2.97-1.3,4.73-1.3s3.36.43,4.74,1.3c1.38.87,2.47,2.13,3.27,3.79.8,1.66,1.2,3.66,1.2,6.02s-.4,4.36-1.2,6.02c-.8,1.66-1.89,2.92-3.27,3.79-1.38.87-2.96,1.3-4.74,1.3Zm0-4.2c.84,0,1.57-.24,2.19-.71s1.11-1.22,1.47-2.24c.36-1.02.54-2.34.54-3.96s-.18-2.94-.54-3.96c-.36-1.02-.85-1.77-1.47-2.24s-1.35-.71-2.19-.71-1.54.24-2.16.71-1.11,1.22-1.47,2.24c-.36,1.02-.54,2.34-.54,3.96s.18,2.94.54,3.96c.36,1.02.85,1.77,1.47,2.24s1.35.71,2.16.71Z"/>
      <path class="cls-4" d="m853.12,515.25c-1.76,0-3.34-.43-4.73-1.3-1.39-.87-2.49-2.13-3.29-3.79-.8-1.66-1.2-3.66-1.2-6.02s.4-4.36,1.2-6.02c.8-1.66,1.89-2.92,3.29-3.79,1.39-.87,2.97-1.3,4.73-1.3s3.36.43,4.74,1.3c1.38.87,2.47,2.13,3.27,3.79.8,1.66,1.2,3.66,1.2,6.02s-.4,4.36-1.2,6.02c-.8,1.66-1.89,2.92-3.27,3.79-1.38.87-2.96,1.3-4.74,1.3Zm0-4.2c.84,0,1.57-.24,2.19-.71s1.11-1.22,1.47-2.24c.36-1.02.54-2.34.54-3.96s-.18-2.94-.54-3.96c-.36-1.02-.85-1.77-1.47-2.24s-1.35-.71-2.19-.71-1.54.24-2.16.71-1.11,1.22-1.47,2.24c-.36,1.02-.54,2.34-.54,3.96s.18,2.94.54,3.96c.36,1.02.85,1.77,1.47,2.24s1.35.71,2.16.71Z"/>
    </g>
    <g>
      <path class="cls-4" d="m657.99,706.83c-1.76,0-3.32-.37-4.68-1.1-1.36-.74-2.44-1.74-3.22-3.02-.79-1.28-1.18-2.74-1.18-4.37s.39-3.13,1.18-4.4c.79-1.28,1.86-2.28,3.22-3.01,1.36-.73,2.92-1.09,4.68-1.09s3.29.36,4.66,1.09c1.37.73,2.45,1.72,3.22,2.99.78,1.27,1.17,2.74,1.17,4.42s-.39,3.09-1.17,4.37c-.78,1.28-1.85,2.29-3.22,3.02-1.37.74-2.92,1.1-4.66,1.1Zm0-3.93c.8,0,1.51-.18,2.15-.55.63-.37,1.14-.89,1.5-1.58.37-.69.55-1.5.55-2.44s-.18-1.78-.55-2.46c-.37-.68-.87-1.2-1.5-1.57-.64-.37-1.35-.55-2.15-.55s-1.51.18-2.15.55c-.63.37-1.14.89-1.52,1.57s-.57,1.49-.57,2.46.19,1.75.57,2.44.88,1.21,1.52,1.58c.64.37,1.35.55,2.15.55Z"/>
      <path class="cls-4" d="m670.85,712.54v-22.47h4.57v3.38l-.09,4.91.31,4.88v9.3h-4.79Zm9.76-5.71c-1.39,0-2.61-.31-3.65-.92-1.04-.61-1.86-1.55-2.44-2.81-.58-1.26-.88-2.85-.88-4.77s.28-3.54.83-4.79c.55-1.25,1.35-2.18,2.4-2.79,1.04-.61,2.29-.92,3.74-.92,1.56,0,2.95.35,4.19,1.06,1.24.71,2.22,1.69,2.95,2.96.73,1.27,1.09,2.76,1.09,4.48s-.36,3.24-1.09,4.51-1.71,2.25-2.95,2.95c-1.24.7-2.63,1.04-4.19,1.04Zm-.83-3.93c.8,0,1.51-.18,2.13-.55.62-.37,1.12-.89,1.5-1.58s.57-1.5.57-2.44-.19-1.78-.57-2.46-.88-1.2-1.5-1.57-1.34-.55-2.13-.55-1.51.18-2.15.55c-.64.37-1.14.89-1.51,1.57s-.55,1.49-.55,2.46.18,1.75.55,2.44.87,1.21,1.51,1.58c.63.37,1.35.55,2.15.55Z"/>
      <path class="cls-4" d="m700.84,706.83c-1.88,0-3.53-.37-4.96-1.1-1.42-.74-2.52-1.74-3.3-3.02-.78-1.28-1.17-2.74-1.17-4.37s.38-3.13,1.15-4.4c.77-1.28,1.82-2.28,3.15-3.01s2.83-1.09,4.51-1.09,3.07.34,4.37,1.03c1.3.69,2.33,1.67,3.08,2.95.76,1.28,1.14,2.81,1.14,4.59,0,.18-.01.39-.03.63s-.04.46-.06.66h-13.41v-2.79h10.9l-1.84.83c0-.86-.17-1.61-.52-2.24-.35-.63-.83-1.13-1.44-1.49-.62-.36-1.33-.54-2.15-.54s-1.54.18-2.16.54c-.62.36-1.11.86-1.46,1.5-.35.64-.52,1.41-.52,2.29v.74c0,.9.2,1.69.6,2.38s.96,1.21,1.69,1.57,1.58.54,2.56.54c.88,0,1.65-.13,2.32-.4.66-.26,1.27-.66,1.82-1.2l2.55,2.76c-.76.86-1.71,1.52-2.85,1.98s-2.47.69-3.96.69Z"/>
      <path class="cls-4" d="m722.66,689.82c1.31,0,2.48.26,3.52.78,1.03.52,1.85,1.32,2.44,2.39.59,1.07.89,2.45.89,4.13v9.45h-4.79v-8.72c0-1.33-.29-2.31-.88-2.95-.58-.63-1.41-.95-2.47-.95-.76,0-1.44.16-2.04.48s-1.07.8-1.41,1.46c-.34.66-.51,1.49-.51,2.52v8.16h-4.79v-16.51h4.57v4.57l-.86-1.38c.59-1.1,1.44-1.95,2.55-2.55,1.1-.59,2.36-.89,3.77-.89Z"/>
      <path class="cls-4" d="m746.05,706.58v-19.64l2.15,2.15h-6.44v-3.99h9.27v21.48h-4.97Z"/>
      <path class="cls-4" d="m758.2,706.83c-.82,0-1.52-.28-2.1-.84-.58-.56-.87-1.28-.87-2.16s.29-1.59.87-2.13c.58-.54,1.28-.81,2.1-.81s1.54.27,2.12.81c.57.54.86,1.25.86,2.13s-.29,1.6-.86,2.16c-.57.56-1.28.84-2.12.84Z"/>
      <path class="cls-4" d="m771.31,706.95c-1.49,0-2.98-.2-4.45-.6-1.47-.4-2.72-.97-3.75-1.7l1.93-3.81c.82.59,1.77,1.06,2.85,1.41,1.09.35,2.18.52,3.29.52,1.25,0,2.23-.25,2.95-.74.72-.49,1.07-1.17,1.07-2.03s-.32-1.46-.95-1.93c-.63-.47-1.66-.71-3.07-.71h-2.27v-3.28l5.99-6.78.55,1.78h-11.26v-3.99h15.04v3.22l-5.95,6.78-2.52-1.44h1.44c2.64,0,4.63.59,5.99,1.78,1.35,1.19,2.03,2.71,2.03,4.57,0,1.21-.32,2.34-.95,3.39-.64,1.05-1.61,1.91-2.92,2.56-1.31.66-2.99.98-5.03.98Z"/>
      <path class="cls-4" d="m792.33,706.95c-1.76,0-3.34-.43-4.73-1.3-1.39-.87-2.49-2.13-3.29-3.79-.8-1.66-1.2-3.66-1.2-6.02s.4-4.36,1.2-6.02c.8-1.66,1.89-2.92,3.29-3.79,1.39-.87,2.97-1.3,4.73-1.3s3.36.43,4.74,1.3c1.38.87,2.47,2.13,3.27,3.79.8,1.66,1.2,3.66,1.2,6.02s-.4,4.36-1.2,6.02c-.8,1.66-1.89,2.92-3.27,3.79-1.38.87-2.96,1.3-4.74,1.3Zm0-4.2c.84,0,1.57-.24,2.19-.71s1.11-1.22,1.47-2.24c.36-1.02.54-2.34.54-3.96s-.18-2.94-.54-3.96c-.36-1.02-.85-1.77-1.47-2.24s-1.35-.71-2.19-.71-1.54.24-2.16.71-1.11,1.22-1.47,2.24c-.36,1.02-.54,2.34-.54,3.96s.18,2.94.54,3.96c.36,1.02.85,1.77,1.47,2.24s1.35.71,2.16.71Z"/>
      <path class="cls-4" d="m813.79,706.95c-1.76,0-3.34-.43-4.73-1.3-1.39-.87-2.49-2.13-3.29-3.79-.8-1.66-1.2-3.66-1.2-6.02s.4-4.36,1.2-6.02c.8-1.66,1.89-2.92,3.29-3.79,1.39-.87,2.97-1.3,4.73-1.3s3.36.43,4.74,1.3c1.38.87,2.47,2.13,3.27,3.79.8,1.66,1.2,3.66,1.2,6.02s-.4,4.36-1.2,6.02c-.8,1.66-1.89,2.92-3.27,3.79-1.38.87-2.96,1.3-4.74,1.3Zm0-4.2c.84,0,1.57-.24,2.19-.71s1.11-1.22,1.47-2.24c.36-1.02.54-2.34.54-3.96s-.18-2.94-.54-3.96c-.36-1.02-.85-1.77-1.47-2.24s-1.35-.71-2.19-.71-1.54.24-2.16.71-1.11,1.22-1.47,2.24c-.36,1.02-.54,2.34-.54,3.96s.18,2.94.54,3.96c.36,1.02.85,1.77,1.47,2.24s1.35.71,2.16.71Z"/>
      <path class="cls-4" d="m835.24,706.95c-1.76,0-3.34-.43-4.73-1.3-1.39-.87-2.49-2.13-3.29-3.79-.8-1.66-1.2-3.66-1.2-6.02s.4-4.36,1.2-6.02c.8-1.66,1.89-2.92,3.29-3.79,1.39-.87,2.97-1.3,4.73-1.3s3.36.43,4.74,1.3c1.38.87,2.47,2.13,3.27,3.79.8,1.66,1.2,3.66,1.2,6.02s-.4,4.36-1.2,6.02c-.8,1.66-1.89,2.92-3.27,3.79-1.38.87-2.96,1.3-4.74,1.3Zm0-4.2c.84,0,1.57-.24,2.19-.71s1.11-1.22,1.47-2.24c.36-1.02.54-2.34.54-3.96s-.18-2.94-.54-3.96c-.36-1.02-.85-1.77-1.47-2.24s-1.35-.71-2.19-.71-1.54.24-2.16.71-1.11,1.22-1.47,2.24c-.36,1.02-.54,2.34-.54,3.96s.18,2.94.54,3.96c.36,1.02.85,1.77,1.47,2.24s1.35.71,2.16.71Z"/>
      <path class="cls-4" d="m856.69,706.95c-1.76,0-3.34-.43-4.73-1.3-1.39-.87-2.49-2.13-3.29-3.79-.8-1.66-1.2-3.66-1.2-6.02s.4-4.36,1.2-6.02c.8-1.66,1.89-2.92,3.29-3.79,1.39-.87,2.97-1.3,4.73-1.3s3.36.43,4.74,1.3c1.38.87,2.47,2.13,3.27,3.79.8,1.66,1.2,3.66,1.2,6.02s-.4,4.36-1.2,6.02c-.8,1.66-1.89,2.92-3.27,3.79-1.38.87-2.96,1.3-4.74,1.3Zm0-4.2c.84,0,1.57-.24,2.19-.71s1.11-1.22,1.47-2.24c.36-1.02.54-2.34.54-3.96s-.18-2.94-.54-3.96c-.36-1.02-.85-1.77-1.47-2.24s-1.35-.71-2.19-.71-1.54.24-2.16.71-1.11,1.22-1.47,2.24c-.36,1.02-.54,2.34-.54,3.96s.18,2.94.54,3.96c.36,1.02.85,1.77,1.47,2.24s1.35.71,2.16.71Z"/>
    </g>
    <path class="cls-2" d="m916.78,618.94v-3.75h14.61v3.75h-14.61Zm0,7.61v-3.74h14.61v3.74h-14.61Z"/>
    <g>
      <path class="cls-2" d="m959.71,613.07v-21.48h9.3c1.92,0,3.58.31,4.97.94,1.39.62,2.46,1.52,3.22,2.69.76,1.17,1.14,2.56,1.14,4.17s-.38,2.98-1.14,4.14c-.76,1.17-1.83,2.06-3.22,2.69-1.39.62-3.05.94-4.97.94h-6.54l2.21-2.24v8.16h-4.97Zm4.97-7.61l-2.21-2.36h6.26c1.53,0,2.68-.33,3.44-.98s1.14-1.57,1.14-2.73-.38-2.11-1.14-2.76c-.76-.65-1.9-.98-3.44-.98h-6.26l2.21-2.36v12.18Z"/>
      <path class="cls-2" d="m982.14,613.07v-16.51h4.57v4.67l-.64-1.35c.49-1.17,1.28-2.05,2.36-2.66,1.09-.6,2.4-.9,3.96-.9v4.42c-.2-.02-.39-.04-.55-.05-.16,0-.34-.01-.52-.01-1.31,0-2.37.37-3.18,1.12s-1.21,1.91-1.21,3.48v7.8h-4.79Z"/>
      <path class="cls-2" d="m1003.57,613.31c-1.76,0-3.32-.37-4.68-1.1-1.36-.74-2.44-1.74-3.22-3.02-.79-1.28-1.18-2.74-1.18-4.37s.39-3.13,1.18-4.4c.79-1.28,1.86-2.28,3.22-3.01,1.36-.73,2.92-1.09,4.68-1.09s3.29.36,4.66,1.09c1.37.73,2.45,1.72,3.22,2.99.78,1.27,1.17,2.74,1.17,4.42s-.39,3.09-1.17,4.37c-.78,1.28-1.85,2.29-3.22,3.02-1.37.74-2.92,1.1-4.66,1.1Zm0-3.93c.8,0,1.51-.18,2.15-.55.63-.37,1.14-.89,1.5-1.58.37-.69.55-1.5.55-2.44s-.18-1.78-.55-2.46c-.37-.68-.87-1.2-1.5-1.57-.64-.37-1.35-.55-2.15-.55s-1.51.18-2.15.55c-.63.37-1.14.89-1.52,1.57s-.57,1.49-.57,2.46.19,1.75.57,2.44.88,1.21,1.52,1.58c.64.37,1.35.55,2.15.55Z"/>
      <path class="cls-2" d="m1014.46,600.61v-3.68h11.45v3.68h-11.45Zm2.55,12.46v-16.88c0-1.86.55-3.35,1.66-4.47,1.11-1.11,2.68-1.67,4.73-1.67.69,0,1.37.07,2.01.21.64.14,1.19.37,1.64.68l-1.26,3.47c-.27-.18-.56-.33-.89-.43-.33-.1-.67-.15-1.04-.15-.69,0-1.23.2-1.61.6-.38.4-.57,1-.57,1.8v1.53l.12,2.06v13.26h-4.79Zm14-18.81c-.88,0-1.6-.26-2.15-.77-.55-.51-.83-1.15-.83-1.9s.28-1.39.83-1.9c.55-.51,1.27-.77,2.15-.77s1.6.24,2.15.72c.55.48.83,1.1.83,1.86,0,.8-.27,1.46-.81,1.98-.54.52-1.27.78-2.16.78Zm-2.39,18.81v-16.51h4.79v16.51h-4.79Z"/>
      <path class="cls-2" d="m1036.47,600.61v-3.68h11.45v3.68h-11.45Zm8.72,12.71c-1.94,0-3.46-.5-4.54-1.49-1.09-.99-1.63-2.47-1.63-4.43v-14.49h4.79v14.43c0,.7.18,1.23.55,1.61.37.38.87.57,1.5.57.76,0,1.4-.2,1.93-.61l1.29,3.38c-.49.35-1.08.61-1.77.78-.69.17-1.4.26-2.13.26Z"/>
      <path class="cls-2" d="m961.67,647.63v-19.64l2.15,2.15h-6.44v-3.99h9.27v21.48h-4.97Z"/>
      <path class="cls-2" d="m980.21,648c-1.76,0-3.34-.43-4.73-1.3-1.39-.87-2.49-2.13-3.29-3.79-.8-1.66-1.2-3.66-1.2-6.02s.4-4.36,1.2-6.02c.8-1.66,1.89-2.92,3.29-3.79,1.39-.87,2.97-1.3,4.73-1.3s3.36.43,4.74,1.3c1.38.87,2.47,2.13,3.27,3.79.8,1.66,1.2,3.66,1.2,6.02s-.4,4.36-1.2,6.02c-.8,1.66-1.89,2.92-3.27,3.79-1.38.87-2.96,1.3-4.74,1.3Zm0-4.2c.84,0,1.57-.24,2.19-.71s1.11-1.22,1.47-2.24c.36-1.02.54-2.34.54-3.96s-.18-2.94-.54-3.96c-.36-1.02-.85-1.77-1.47-2.24s-1.35-.71-2.19-.71-1.54.24-2.16.71-1.11,1.22-1.47,2.24c-.36,1.02-.54,2.34-.54,3.96s.18,2.94.54,3.96c.36,1.02.85,1.77,1.47,2.24s1.35.71,2.16.71Z"/>
      <path class="cls-2" d="m1002.77,653.59v-22.47h4.57v3.38l-.09,4.91.31,4.88v9.3h-4.79Zm9.76-5.71c-1.39,0-2.61-.31-3.65-.92-1.04-.61-1.86-1.55-2.44-2.81-.58-1.26-.88-2.85-.88-4.77s.28-3.54.83-4.79c.55-1.25,1.35-2.18,2.4-2.79,1.04-.61,2.29-.92,3.74-.92,1.56,0,2.95.35,4.19,1.06,1.24.71,2.22,1.69,2.95,2.96.73,1.27,1.09,2.76,1.09,4.48s-.36,3.24-1.09,4.51-1.71,2.25-2.95,2.95c-1.24.7-2.63,1.04-4.19,1.04Zm-.83-3.93c.8,0,1.51-.18,2.13-.55.62-.37,1.12-.89,1.5-1.58s.57-1.5.57-2.44-.19-1.78-.57-2.46-.88-1.2-1.5-1.57-1.34-.55-2.13-.55-1.51.18-2.15.55c-.64.37-1.14.89-1.51,1.57s-.55,1.49-.55,2.46.18,1.75.55,2.44.87,1.21,1.51,1.58c.63.37,1.35.55,2.15.55Z"/>
      <path class="cls-2" d="m1026.96,628.82c-.88,0-1.6-.26-2.15-.77-.55-.51-.83-1.15-.83-1.9s.28-1.39.83-1.9c.55-.51,1.27-.77,2.15-.77s1.6.24,2.15.72c.55.48.83,1.1.83,1.86,0,.8-.27,1.46-.81,1.98-.54.52-1.26.78-2.16.78Zm-2.4,18.81v-16.51h4.79v16.51h-4.79Z"/>
      <path class="cls-2" d="m1034.41,653.59v-22.47h4.57v3.38l-.09,4.91.31,4.88v9.3h-4.79Zm9.76-5.71c-1.39,0-2.61-.31-3.65-.92-1.04-.61-1.86-1.55-2.44-2.81-.58-1.26-.88-2.85-.88-4.77s.28-3.54.83-4.79c.55-1.25,1.35-2.18,2.4-2.79,1.04-.61,2.29-.92,3.74-.92,1.56,0,2.95.35,4.19,1.06,1.24.71,2.22,1.69,2.95,2.96.73,1.27,1.09,2.76,1.09,4.48s-.36,3.24-1.09,4.51-1.71,2.25-2.95,2.95c-1.24.7-2.63,1.04-4.19,1.04Zm-.83-3.93c.8,0,1.51-.18,2.13-.55.62-.37,1.12-.89,1.5-1.58s.57-1.5.57-2.44-.19-1.78-.57-2.46-.88-1.2-1.5-1.57-1.34-.55-2.13-.55-1.51.18-2.15.55c-.64.37-1.14.89-1.51,1.57s-.55,1.49-.55,2.46.18,1.75.55,2.44.87,1.21,1.51,1.58c.63.37,1.35.55,2.15.55Z"/>
      <path class="cls-2" d="m1061.76,647.88c-1.41,0-2.77-.17-4.07-.51-1.3-.34-2.33-.76-3.08-1.27l1.6-3.44c.76.47,1.65.85,2.69,1.15,1.03.3,2.05.45,3.05.45,1.11,0,1.89-.13,2.35-.4.46-.27.69-.63.69-1.11,0-.39-.18-.68-.54-.87-.36-.19-.83-.34-1.43-.45s-1.24-.2-1.95-.31-1.42-.24-2.13-.41c-.72-.17-1.37-.43-1.96-.78-.59-.35-1.07-.82-1.43-1.41s-.54-1.36-.54-2.3c0-1.04.3-1.96.9-2.76s1.48-1.43,2.63-1.89c1.14-.46,2.52-.69,4.11-.69,1.12,0,2.27.12,3.44.37,1.17.25,2.14.6,2.92,1.07l-1.6,3.41c-.8-.47-1.6-.79-2.41-.97-.81-.17-1.59-.26-2.35-.26-1.06,0-1.84.14-2.33.43-.49.29-.74.66-.74,1.1,0,.41.18.72.54.92s.83.37,1.43.49c.59.12,1.24.23,1.95.32s1.42.23,2.13.41,1.37.45,1.95.78c.58.34,1.06.8,1.43,1.38.37.58.55,1.35.55,2.29,0,1.02-.31,1.93-.92,2.72-.62.79-1.5,1.41-2.66,1.86-1.16.45-2.56.67-4.22.67Z"/>
    </g>
  </g>
  <line class="cls-7" x1="112.08" y1="859.72" x2="1280.9" y2="861.91"/>
  <g>
    <path class="cls-4" d="m122.69,981.87v-26.06h11.84c2.83,0,5.32.54,7.48,1.62s3.85,2.59,5.06,4.52c1.22,1.94,1.82,4.23,1.82,6.89s-.61,4.92-1.82,6.87-2.9,3.46-5.06,4.54-4.65,1.62-7.48,1.62h-11.84Zm6.03-4.95h5.51c1.74,0,3.25-.33,4.52-.99,1.28-.66,2.27-1.59,2.98-2.81s1.06-2.64,1.06-4.28-.35-3.1-1.06-4.3-1.7-2.14-2.98-2.79c-1.28-.66-2.79-.99-4.52-.99h-5.51v16.16Z"/>
    <path class="cls-4" d="m163.72,982.16c-2.28,0-4.29-.45-6.01-1.34-1.73-.89-3.06-2.12-4-3.67-.94-1.55-1.42-3.32-1.42-5.31s.47-3.79,1.4-5.34c.93-1.55,2.2-2.77,3.81-3.65,1.61-.88,3.44-1.32,5.47-1.32s3.73.42,5.31,1.25c1.58.83,2.82,2.02,3.74,3.57.92,1.55,1.38,3.41,1.38,5.57,0,.22-.01.48-.04.76s-.05.55-.07.8h-16.27v-3.39h13.22l-2.23,1.01c0-1.04-.21-1.95-.63-2.72-.42-.77-1.01-1.37-1.75-1.81-.74-.43-1.61-.65-2.61-.65s-1.87.22-2.63.65c-.76.43-1.35,1.04-1.77,1.82-.42.78-.63,1.71-.63,2.77v.89c0,1.09.24,2.05.73,2.88.48.83,1.17,1.47,2.05,1.9.88.43,1.92.65,3.11.65,1.07,0,2-.16,2.81-.48.81-.32,1.55-.81,2.22-1.45l3.09,3.35c-.92,1.04-2.07,1.84-3.46,2.4s-2.99.84-4.8.84Z"/>
    <path class="cls-4" d="m178.02,989.09v-27.25h5.55v4.1l-.11,5.96.37,5.92v11.28h-5.81Zm11.84-6.92c-1.69,0-3.16-.37-4.43-1.12-1.27-.74-2.25-1.88-2.96-3.41s-1.06-3.46-1.06-5.79.33-4.29,1.01-5.81,1.64-2.64,2.9-3.39,2.78-1.12,4.54-1.12c1.89,0,3.58.43,5.08,1.28,1.5.86,2.69,2.05,3.58,3.59.88,1.54,1.32,3.35,1.32,5.44s-.44,3.93-1.32,5.47c-.88,1.54-2.07,2.73-3.58,3.57-1.5.84-3.2,1.27-5.08,1.27Zm-1.01-4.77c.97,0,1.83-.22,2.59-.67.76-.45,1.36-1.09,1.82-1.92.46-.83.69-1.82.69-2.96s-.23-2.16-.69-2.98c-.46-.82-1.07-1.45-1.82-1.9-.76-.45-1.62-.67-2.59-.67s-1.84.22-2.61.67c-.77.45-1.38,1.08-1.82,1.9-.45.82-.67,1.81-.67,2.98s.22,2.13.67,2.96,1.06,1.47,1.82,1.92,1.64.67,2.61.67Z"/>
    <path class="cls-4" d="m213.99,982.16c-2.14,0-4.03-.45-5.68-1.34-1.65-.89-2.95-2.12-3.91-3.67-.96-1.55-1.43-3.32-1.43-5.31s.48-3.79,1.43-5.34c.96-1.55,2.26-2.77,3.91-3.65,1.65-.88,3.54-1.32,5.68-1.32s4,.44,5.66,1.32c1.66.88,2.97,2.09,3.91,3.63.94,1.54,1.41,3.33,1.41,5.36s-.47,3.75-1.41,5.31c-.94,1.55-2.25,2.77-3.91,3.67-1.66.89-3.55,1.34-5.66,1.34Zm0-4.77c.97,0,1.84-.22,2.61-.67.77-.45,1.38-1.09,1.82-1.92.45-.83.67-1.82.67-2.96s-.22-2.16-.67-2.98c-.45-.82-1.05-1.45-1.82-1.9-.77-.45-1.64-.67-2.61-.67s-1.84.22-2.61.67c-.77.45-1.38,1.08-1.84,1.9-.46.82-.69,1.81-.69,2.98s.23,2.13.69,2.96c.46.83,1.07,1.47,1.84,1.92s1.64.67,2.61.67Z"/>
    <path class="cls-4" d="m236.32,982.16c-1.71,0-3.36-.21-4.93-.62-1.58-.41-2.82-.92-3.74-1.55l1.94-4.17c.92.57,2,1.04,3.26,1.4,1.25.36,2.49.54,3.71.54,1.34,0,2.29-.16,2.85-.48.56-.32.84-.77.84-1.34,0-.47-.22-.83-.65-1.06-.43-.24-1.01-.42-1.73-.54-.72-.12-1.51-.25-2.37-.37-.85-.12-1.72-.29-2.59-.5-.87-.21-1.66-.53-2.38-.95-.72-.42-1.3-.99-1.73-1.71-.43-.72-.65-1.65-.65-2.79,0-1.27.37-2.38,1.1-3.35s1.79-1.73,3.18-2.29c1.39-.56,3.05-.84,4.99-.84,1.37,0,2.76.15,4.17.45,1.41.3,2.59.73,3.54,1.3l-1.94,4.13c-.97-.57-1.94-.96-2.92-1.17s-1.93-.32-2.85-.32c-1.29,0-2.23.17-2.83.52-.6.35-.89.79-.89,1.34,0,.5.22.87.65,1.12.43.25,1.01.45,1.73.6.72.15,1.51.28,2.36.39.86.11,1.72.28,2.59.5.87.22,1.66.54,2.36.95.71.41,1.29.97,1.73,1.68.45.71.67,1.63.67,2.77,0,1.24-.37,2.34-1.12,3.3-.75.96-1.82,1.71-3.22,2.25-1.4.55-3.11.82-5.12.82Z"/>
    <path class="cls-4" d="m253.01,959.04c-1.07,0-1.94-.31-2.61-.93-.67-.62-1.01-1.39-1.01-2.31s.33-1.69,1.01-2.31,1.54-.93,2.61-.93,1.93.29,2.61.88,1.01,1.33,1.01,2.25c0,.97-.33,1.77-.99,2.4s-1.53.95-2.62.95Zm-2.9,22.82v-20.03h5.81v20.03h-5.81Z"/>
    <path class="cls-4" d="m259.67,966.75v-4.47h13.89v4.47h-13.89Zm10.58,15.41c-2.36,0-4.2-.6-5.51-1.81-1.32-1.2-1.97-3-1.97-5.38v-17.57h5.81v17.5c0,.84.22,1.5.67,1.95.45.46,1.05.69,1.82.69.92,0,1.7-.25,2.35-.74l1.56,4.1c-.59.42-1.31.74-2.14.95-.83.21-1.69.32-2.59.32Z"/>
    <path class="cls-4" d="m288.3,982.16c-2.28,0-4.29-.45-6.01-1.34-1.73-.89-3.06-2.12-4-3.67-.94-1.55-1.42-3.32-1.42-5.31s.47-3.79,1.4-5.34c.93-1.55,2.2-2.77,3.81-3.65,1.61-.88,3.44-1.32,5.47-1.32s3.73.42,5.31,1.25c1.58.83,2.82,2.02,3.74,3.57.92,1.55,1.38,3.41,1.38,5.57,0,.22-.01.48-.04.76s-.05.55-.07.8h-16.27v-3.39h13.22l-2.23,1.01c0-1.04-.21-1.95-.63-2.72-.42-.77-1.01-1.37-1.75-1.81-.74-.43-1.61-.65-2.61-.65s-1.87.22-2.63.65c-.76.43-1.35,1.04-1.77,1.82-.42.78-.63,1.71-.63,2.77v.89c0,1.09.24,2.05.73,2.88.48.83,1.17,1.47,2.05,1.9.88.43,1.92.65,3.11.65,1.07,0,2-.16,2.81-.48.81-.32,1.55-.81,2.22-1.45l3.09,3.35c-.92,1.04-2.07,1.84-3.46,2.4s-2.99.84-4.8.84Z"/>
    <path class="cls-4" d="m311.2,982.16c-1.89,0-3.59-.43-5.1-1.28s-2.71-2.05-3.59-3.59c-.88-1.54-1.32-3.35-1.32-5.44s.44-3.93,1.32-5.47c.88-1.54,2.08-2.73,3.59-3.57,1.51-.84,3.21-1.27,5.1-1.27,1.69,0,3.16.37,4.43,1.12,1.27.74,2.24,1.87,2.94,3.39s1.04,3.45,1.04,5.81-.33,4.26-1.01,5.79c-.67,1.53-1.63,2.66-2.88,3.41-1.25.75-2.76,1.12-4.52,1.12Zm1.01-4.77c.94,0,1.8-.22,2.57-.67.77-.45,1.38-1.09,1.84-1.92.46-.83.69-1.82.69-2.96s-.23-2.16-.69-2.98c-.46-.82-1.07-1.45-1.84-1.9-.77-.45-1.63-.67-2.57-.67s-1.84.22-2.61.67c-.77.45-1.38,1.08-1.84,1.9-.46.82-.69,1.81-.69,2.98s.23,2.13.69,2.96c.46.83,1.07,1.47,1.84,1.92.77.45,1.64.67,2.61.67Zm5.25,4.47v-4.1l.11-5.96-.37-5.92v-11.65h5.81v27.63h-5.55Z"/>
    <path class="cls-4" d="m128.72,1033.95h-6.03v-26.06h19.7v4.84h-13.67v21.22Zm-.45-14.33h12.51v4.84h-12.51v-4.84Z"/>
    <path class="cls-4" d="m146.45,1033.95v-20.03h5.55v5.66l-.78-1.64c.6-1.41,1.55-2.49,2.87-3.22s2.92-1.1,4.8-1.1v5.36c-.25-.02-.47-.04-.67-.06-.2-.01-.41-.02-.63-.02-1.59,0-2.87.45-3.85,1.36-.98.91-1.47,2.31-1.47,4.23v9.46h-5.81Z"/>
    <path class="cls-4" d="m172.84,1034.25c-2.28,0-4.29-.45-6.01-1.34-1.73-.89-3.06-2.12-4-3.67-.94-1.55-1.42-3.32-1.42-5.31s.47-3.79,1.4-5.34c.93-1.55,2.2-2.77,3.81-3.65,1.61-.88,3.44-1.32,5.47-1.32s3.73.42,5.31,1.25c1.58.83,2.82,2.02,3.74,3.57.92,1.55,1.38,3.41,1.38,5.57,0,.22-.01.48-.04.76s-.05.55-.07.8h-16.27v-3.39h13.22l-2.23,1.01c0-1.04-.21-1.95-.63-2.72-.42-.77-1.01-1.37-1.75-1.81-.74-.43-1.61-.65-2.61-.65s-1.87.22-2.63.65c-.76.43-1.35,1.04-1.77,1.82-.42.78-.63,1.71-.63,2.77v.89c0,1.09.24,2.05.73,2.88.48.83,1.17,1.47,2.05,1.9.88.43,1.92.65,3.11.65,1.07,0,2-.16,2.81-.48.81-.32,1.55-.81,2.22-1.45l3.09,3.35c-.92,1.04-2.07,1.84-3.46,2.4s-2.99.84-4.8.84Z"/>
    <path class="cls-4" d="m197.08,1034.25c-2.28,0-4.29-.45-6.01-1.34-1.73-.89-3.06-2.12-4-3.67-.94-1.55-1.42-3.32-1.42-5.31s.47-3.79,1.4-5.34c.93-1.55,2.2-2.77,3.81-3.65,1.61-.88,3.44-1.32,5.47-1.32s3.73.42,5.31,1.25c1.58.83,2.82,2.02,3.74,3.57.92,1.55,1.38,3.41,1.38,5.57,0,.22-.01.48-.04.76s-.05.55-.07.8h-16.27v-3.39h13.22l-2.23,1.01c0-1.04-.21-1.95-.63-2.72-.42-.77-1.01-1.37-1.75-1.81-.74-.43-1.61-.65-2.61-.65s-1.87.22-2.63.65c-.76.43-1.35,1.04-1.77,1.82-.42.78-.63,1.71-.63,2.77v.89c0,1.09.24,2.05.73,2.88.48.83,1.17,1.47,2.05,1.9.88.43,1.92.65,3.11.65,1.07,0,2-.16,2.81-.48.81-.32,1.55-.81,2.22-1.45l3.09,3.35c-.92,1.04-2.07,1.84-3.46,2.4s-2.99.84-4.8.84Z"/>
    <path class="cls-4" d="m223.07,1033.95v-26.06h4.99l11.1,18.39h-2.64l10.91-18.39h4.95l.07,26.06h-5.66l-.04-17.39h1.04l-8.71,14.63h-2.72l-8.9-14.63h1.27v17.39h-5.66Z"/>
    <path class="cls-4" d="m265.14,1034.25c-1.56,0-2.9-.27-4.02-.8s-1.97-1.26-2.57-2.18c-.59-.92-.89-1.95-.89-3.09s.29-2.23.88-3.13c.58-.89,1.51-1.59,2.77-2.1,1.27-.51,2.92-.76,4.95-.76h5.32v3.39h-4.69c-1.36,0-2.3.22-2.81.67-.51.45-.76,1.01-.76,1.68,0,.75.29,1.33.88,1.77.58.43,1.38.65,2.4.65s1.84-.23,2.61-.69c.77-.46,1.33-1.14,1.67-2.03l.89,2.68c-.42,1.29-1.19,2.27-2.31,2.94-1.12.67-2.56,1.01-4.32,1.01Zm6.11-.3v-3.91l-.37-.86v-7c0-1.24-.38-2.21-1.14-2.9-.76-.69-1.92-1.04-3.48-1.04-1.07,0-2.12.17-3.15.5-1.03.34-1.91.79-2.63,1.36l-2.08-4.06c1.09-.77,2.41-1.36,3.95-1.79,1.54-.42,3.1-.63,4.69-.63,3.05,0,5.42.72,7.11,2.16,1.69,1.44,2.53,3.69,2.53,6.74v11.43h-5.44Z"/>
    <path class="cls-4" d="m282.68,1033.95v-20.03h5.55v5.66l-.78-1.64c.6-1.41,1.55-2.49,2.87-3.22s2.92-1.1,4.8-1.1v5.36c-.25-.02-.47-.04-.67-.06-.2-.01-.41-.02-.63-.02-1.59,0-2.87.45-3.85,1.36-.98.91-1.47,2.31-1.47,4.23v9.46h-5.81Z"/>
    <path class="cls-4" d="m307.66,1032.99c-1.86,0-3.54-.4-5.05-1.21s-2.71-1.94-3.61-3.39c-.91-1.45-1.36-3.15-1.36-5.08s.45-3.67,1.36-5.12c.9-1.45,2.11-2.58,3.61-3.37s3.18-1.19,5.05-1.19c1.69,0,3.18.34,4.47,1.02,1.29.68,2.3,1.74,3.02,3.16.72,1.43,1.08,3.26,1.08,5.49s-.36,4.03-1.08,5.45c-.72,1.43-1.72,2.49-3.02,3.18-1.29.69-2.78,1.04-4.47,1.04Zm.89,8.49c-1.89,0-3.71-.23-5.45-.69-1.75-.46-3.21-1.15-4.38-2.07l2.31-4.17c.84.69,1.92,1.25,3.22,1.66,1.3.41,2.59.62,3.85.62,2.06,0,3.55-.46,4.49-1.38.93-.92,1.4-2.28,1.4-4.1v-3.02l.37-5.03-.07-5.06v-4.32h5.51v16.68c0,3.72-.97,6.47-2.9,8.23-1.94,1.76-4.72,2.64-8.34,2.64Zm.26-13.25c1.02,0,1.92-.21,2.72-.62.79-.41,1.41-.99,1.86-1.73.45-.74.67-1.6.67-2.57s-.22-1.86-.67-2.59c-.45-.73-1.07-1.3-1.86-1.71-.8-.41-1.7-.61-2.72-.61s-1.92.21-2.72.61c-.8.41-1.42.98-1.88,1.71-.46.73-.69,1.6-.69,2.59s.23,1.82.69,2.57c.46.74,1.09,1.32,1.88,1.73.79.41,1.7.62,2.72.62Z"/>
    <path class="cls-4" d="m328.85,1011.13c-1.07,0-1.94-.31-2.61-.93-.67-.62-1.01-1.39-1.01-2.31s.33-1.69,1.01-2.31,1.54-.93,2.61-.93,1.93.29,2.61.88,1.01,1.33,1.01,2.25c0,.97-.33,1.77-.99,2.4s-1.53.95-2.62.95Zm-2.9,22.82v-20.03h5.81v20.03h-5.81Z"/>
    <path class="cls-4" d="m350.07,1013.62c1.59,0,3.01.32,4.26.95,1.25.63,2.24,1.6,2.96,2.9.72,1.3,1.08,2.97,1.08,5.01v11.47h-5.81v-10.57c0-1.61-.35-2.8-1.06-3.57s-1.71-1.15-3-1.15c-.92,0-1.74.19-2.48.58s-1.3.97-1.71,1.77c-.41.8-.62,1.81-.62,3.05v9.9h-5.81v-20.03h5.55v5.55l-1.04-1.68c.72-1.34,1.75-2.37,3.09-3.09s2.87-1.08,4.58-1.08Z"/>
    <path class="cls-4" d="m122.69,1086.04v-26.06h6.03v21.15h13.07v4.91h-19.1Z"/>
    <path class="cls-4" d="m155.31,1086.34c-2.28,0-4.29-.45-6.01-1.34-1.73-.89-3.06-2.12-4-3.67-.94-1.55-1.42-3.32-1.42-5.31s.47-3.79,1.4-5.34c.93-1.55,2.2-2.77,3.81-3.65,1.61-.88,3.44-1.32,5.47-1.32s3.73.42,5.31,1.25c1.58.83,2.82,2.02,3.74,3.57.92,1.55,1.38,3.41,1.38,5.57,0,.22-.01.48-.04.76s-.05.55-.07.8h-16.27v-3.39h13.22l-2.23,1.01c0-1.04-.21-1.95-.63-2.72-.42-.77-1.01-1.37-1.75-1.81-.74-.43-1.61-.65-2.61-.65s-1.87.22-2.63.65c-.76.43-1.35,1.04-1.77,1.82-.42.78-.63,1.71-.63,2.77v.89c0,1.09.24,2.05.73,2.88.48.83,1.17,1.47,2.05,1.9.88.43,1.92.65,3.11.65,1.07,0,2-.16,2.81-.48.81-.32,1.55-.81,2.22-1.45l3.09,3.35c-.92,1.04-2.07,1.84-3.46,2.4s-2.99.84-4.8.84Z"/>
    <path class="cls-4" d="m174.67,1086.04l-8.41-20.03h5.99l7,17.24h-2.98l7.26-17.24h5.58l-8.45,20.03h-5.99Z"/>
    <path class="cls-4" d="m201.62,1086.34c-2.28,0-4.29-.45-6.01-1.34-1.73-.89-3.06-2.12-4-3.67-.94-1.55-1.42-3.32-1.42-5.31s.47-3.79,1.4-5.34c.93-1.55,2.2-2.77,3.81-3.65,1.61-.88,3.44-1.32,5.47-1.32s3.73.42,5.31,1.25c1.58.83,2.82,2.02,3.74,3.57.92,1.55,1.38,3.41,1.38,5.57,0,.22-.01.48-.04.76s-.05.55-.07.8h-16.27v-3.39h13.22l-2.23,1.01c0-1.04-.21-1.95-.63-2.72-.42-.77-1.01-1.37-1.75-1.81-.74-.43-1.61-.65-2.61-.65s-1.87.22-2.63.65c-.76.43-1.35,1.04-1.77,1.82-.42.78-.63,1.71-.63,2.77v.89c0,1.09.24,2.05.73,2.88.48.83,1.17,1.47,2.05,1.9.88.43,1.92.65,3.11.65,1.07,0,2-.16,2.81-.48.81-.32,1.55-.81,2.22-1.45l3.09,3.35c-.92,1.04-2.07,1.84-3.46,2.4s-2.99.84-4.8.84Z"/>
    <path class="cls-4" d="m215.92,1086.04v-20.03h5.55v5.66l-.78-1.64c.6-1.41,1.55-2.49,2.87-3.22s2.92-1.1,4.8-1.1v5.36c-.25-.02-.47-.04-.67-.06-.2-.01-.41-.02-.63-.02-1.59,0-2.87.45-3.85,1.36-.98.91-1.47,2.31-1.47,4.23v9.46h-5.81Z"/>
    <path class="cls-4" d="m237.44,1086.34c-1.56,0-2.9-.27-4.02-.8s-1.97-1.26-2.57-2.18c-.59-.92-.89-1.95-.89-3.09s.29-2.23.88-3.13c.58-.89,1.51-1.59,2.77-2.1,1.27-.51,2.92-.76,4.95-.76h5.32v3.39h-4.69c-1.36,0-2.3.22-2.81.67-.51.45-.76,1.01-.76,1.68,0,.75.29,1.33.88,1.77.58.43,1.38.65,2.4.65s1.84-.23,2.61-.69c.77-.46,1.33-1.14,1.67-2.03l.89,2.68c-.42,1.29-1.19,2.27-2.31,2.94-1.12.67-2.56,1.01-4.32,1.01Zm6.11-.3v-3.91l-.37-.86v-7c0-1.24-.38-2.21-1.14-2.9-.76-.69-1.92-1.04-3.48-1.04-1.07,0-2.12.17-3.15.5-1.03.34-1.91.79-2.63,1.36l-2.08-4.06c1.09-.77,2.41-1.36,3.95-1.79,1.54-.42,3.1-.63,4.69-.63,3.05,0,5.42.72,7.11,2.16,1.69,1.44,2.53,3.69,2.53,6.74v11.43h-5.44Z"/>
    <path class="cls-4" d="m263.65,1085.07c-1.86,0-3.54-.4-5.05-1.21s-2.71-1.94-3.61-3.39c-.91-1.45-1.36-3.15-1.36-5.08s.45-3.67,1.36-5.12c.9-1.45,2.11-2.58,3.61-3.37s3.18-1.19,5.05-1.19c1.69,0,3.18.34,4.47,1.02,1.29.68,2.3,1.74,3.02,3.16.72,1.43,1.08,3.26,1.08,5.49s-.36,4.03-1.08,5.45c-.72,1.43-1.72,2.49-3.02,3.18-1.29.69-2.78,1.04-4.47,1.04Zm.89,8.49c-1.89,0-3.71-.23-5.45-.69-1.75-.46-3.21-1.15-4.38-2.07l2.31-4.17c.84.69,1.92,1.25,3.22,1.66,1.3.41,2.59.62,3.85.62,2.06,0,3.55-.46,4.49-1.38.93-.92,1.4-2.28,1.4-4.1v-3.02l.37-5.03-.07-5.06v-4.32h5.51v16.68c0,3.72-.97,6.47-2.9,8.23-1.94,1.76-4.72,2.64-8.34,2.64Zm.26-13.25c1.02,0,1.92-.21,2.72-.62.79-.41,1.41-.99,1.86-1.73.45-.74.67-1.6.67-2.57s-.22-1.86-.67-2.59c-.45-.73-1.07-1.3-1.86-1.71-.8-.41-1.7-.61-2.72-.61s-1.92.21-2.72.61c-.8.41-1.42.98-1.88,1.71-.46.73-.69,1.6-.69,2.59s.23,1.82.69,2.57c.46.74,1.09,1.32,1.88,1.73.79.41,1.7.62,2.72.62Z"/>
    <path class="cls-4" d="m291.88,1086.34c-2.28,0-4.29-.45-6.01-1.34-1.73-.89-3.06-2.12-4-3.67-.94-1.55-1.42-3.32-1.42-5.31s.47-3.79,1.4-5.34c.93-1.55,2.2-2.77,3.81-3.65,1.61-.88,3.44-1.32,5.47-1.32s3.73.42,5.31,1.25c1.58.83,2.82,2.02,3.74,3.57.92,1.55,1.38,3.41,1.38,5.57,0,.22-.01.48-.04.76s-.05.55-.07.8h-16.27v-3.39h13.22l-2.23,1.01c0-1.04-.21-1.95-.63-2.72-.42-.77-1.01-1.37-1.75-1.81-.74-.43-1.61-.65-2.61-.65s-1.87.22-2.63.65c-.76.43-1.35,1.04-1.77,1.82-.42.78-.63,1.71-.63,2.77v.89c0,1.09.24,2.05.73,2.88.48.83,1.17,1.47,2.05,1.9.88.43,1.92.65,3.11.65,1.07,0,2-.16,2.81-.48.81-.32,1.55-.81,2.22-1.45l3.09,3.35c-.92,1.04-2.07,1.84-3.46,2.4s-2.99.84-4.8.84Z"/>
    <path class="cls-4" d="m130.51,1138.13l-11.24-26.06h6.51l9.83,23.08h-3.84l9.98-23.08h5.99l-11.28,26.06h-5.96Z"/>
    <path class="cls-4" d="m158.29,1138.43c-2.14,0-4.03-.45-5.68-1.34-1.65-.89-2.95-2.12-3.91-3.67-.96-1.55-1.43-3.32-1.43-5.31s.48-3.79,1.43-5.34c.96-1.55,2.26-2.77,3.91-3.65,1.65-.88,3.54-1.32,5.68-1.32s4,.44,5.66,1.32c1.66.88,2.97,2.09,3.91,3.63.94,1.54,1.41,3.33,1.41,5.36s-.47,3.75-1.41,5.31c-.94,1.55-2.25,2.77-3.91,3.67-1.66.89-3.55,1.34-5.66,1.34Zm0-4.77c.97,0,1.84-.22,2.61-.67.77-.45,1.38-1.09,1.82-1.92.45-.83.67-1.82.67-2.96s-.22-2.16-.67-2.98c-.45-.82-1.05-1.45-1.82-1.9-.77-.45-1.64-.67-2.61-.67s-1.84.22-2.61.67c-.77.45-1.38,1.08-1.84,1.9-.46.82-.69,1.81-.69,2.98s.23,2.13.69,2.96c.46.83,1.07,1.47,1.84,1.92s1.64.67,2.61.67Z"/>
    <path class="cls-4" d="m173.89,1138.13v-27.63h5.81v27.63h-5.81Z"/>
    <path class="cls-4" d="m194.29,1138.43c-1.66,0-3.15-.32-4.45-.97-1.3-.65-2.32-1.63-3.03-2.96-.72-1.33-1.08-3.02-1.08-5.08v-11.32h5.81v10.46c0,1.66.35,2.89,1.06,3.67.71.78,1.71,1.17,3,1.17.89,0,1.69-.19,2.38-.58.69-.38,1.24-.98,1.64-1.79s.6-1.82.6-3.03v-9.9h5.81v20.03h-5.51v-5.51l1.01,1.6c-.67,1.39-1.66,2.44-2.96,3.15-1.3.71-2.72,1.06-4.26,1.06Z"/>
    <path class="cls-4" d="m237.82,1117.8c1.59,0,3,.32,4.23.95,1.23.63,2.2,1.6,2.9,2.9.71,1.3,1.06,2.97,1.06,5.01v11.47h-5.81v-10.57c0-1.61-.33-2.8-1.01-3.57-.67-.77-1.61-1.15-2.83-1.15-.85,0-1.6.19-2.27.58-.67.38-1.19.96-1.56,1.73-.37.77-.56,1.75-.56,2.94v10.05h-5.81v-10.57c0-1.61-.33-2.8-.98-3.57-.66-.77-1.6-1.15-2.81-1.15-.85,0-1.6.19-2.27.58-.67.38-1.19.96-1.56,1.73-.37.77-.56,1.75-.56,2.94v10.05h-5.81v-20.03h5.55v5.47l-1.04-1.6c.69-1.36,1.68-2.4,2.96-3.11,1.28-.71,2.74-1.06,4.37-1.06,1.84,0,3.45.47,4.82,1.4,1.38.93,2.29,2.35,2.74,4.26l-2.05-.56c.67-1.56,1.74-2.8,3.22-3.72,1.48-.92,3.17-1.38,5.08-1.38Z"/>
    <path class="cls-4" d="m262.05,1138.43c-2.28,0-4.29-.45-6.01-1.34-1.73-.89-3.06-2.12-4-3.67-.94-1.55-1.42-3.32-1.42-5.31s.47-3.79,1.4-5.34c.93-1.55,2.2-2.77,3.81-3.65,1.61-.88,3.44-1.32,5.47-1.32s3.73.42,5.31,1.25c1.58.83,2.82,2.02,3.74,3.57.92,1.55,1.38,3.41,1.38,5.57,0,.22-.01.48-.04.76s-.05.55-.07.8h-16.27v-3.39h13.22l-2.23,1.01c0-1.04-.21-1.95-.63-2.72-.42-.77-1.01-1.37-1.75-1.81-.74-.43-1.61-.65-2.61-.65s-1.87.22-2.63.65c-.76.43-1.35,1.04-1.77,1.82-.42.78-.63,1.71-.63,2.77v.89c0,1.09.24,2.05.73,2.88.48.83,1.17,1.47,2.05,1.9.88.43,1.92.65,3.11.65,1.07,0,2-.16,2.81-.48.81-.32,1.55-.81,2.22-1.45l3.09,3.35c-.92,1.04-2.07,1.84-3.46,2.4s-2.99.84-4.8.84Z"/>
    <path class="cls-4" d="m122.69,1190.22v-26.06h11.28c2.33,0,4.34.38,6.03,1.14s2.99,1.84,3.91,3.26,1.38,3.1,1.38,5.06-.46,3.61-1.38,5.03-2.22,2.5-3.91,3.26-3.7,1.14-6.03,1.14h-7.93l2.68-2.72v9.9h-6.03Zm6.03-9.23l-2.68-2.87h7.6c1.86,0,3.25-.4,4.17-1.19s1.38-1.9,1.38-3.31-.46-2.56-1.38-3.35-2.31-1.19-4.17-1.19h-7.6l2.68-2.87v14.78Z"/>
    <path class="cls-4" d="m149.91,1190.22v-20.03h5.55v5.66l-.78-1.64c.6-1.41,1.55-2.49,2.87-3.22s2.92-1.1,4.8-1.1v5.36c-.25-.02-.47-.04-.67-.06-.2-.01-.41-.02-.63-.02-1.59,0-2.87.45-3.85,1.36-.98.91-1.47,2.31-1.47,4.23v9.46h-5.81Z"/>
    <path class="cls-4" d="m169.46,1167.39c-1.07,0-1.94-.31-2.61-.93-.67-.62-1.01-1.39-1.01-2.31s.33-1.69,1.01-2.31,1.54-.93,2.61-.93,1.93.29,2.61.88,1.01,1.33,1.01,2.25c0,.97-.33,1.77-.99,2.4s-1.53.95-2.62.95Zm-2.9,22.82v-20.03h5.81v20.03h-5.81Z"/>
    <path class="cls-4" d="m188.18,1190.52c-2.16,0-4.08-.44-5.77-1.32-1.69-.88-3.01-2.1-3.97-3.67-.96-1.56-1.43-3.34-1.43-5.32s.48-3.79,1.43-5.34c.96-1.55,2.28-2.77,3.97-3.65,1.69-.88,3.61-1.32,5.77-1.32s3.95.44,5.51,1.32c1.56.88,2.72,2.14,3.46,3.78l-4.5,2.42c-.52-.94-1.17-1.64-1.95-2.08-.78-.45-1.63-.67-2.55-.67-.99,0-1.89.22-2.68.67-.8.45-1.42,1.08-1.88,1.9-.46.82-.69,1.81-.69,2.98s.23,2.16.69,2.98c.46.82,1.09,1.45,1.88,1.9.79.45,1.69.67,2.68.67.92,0,1.77-.22,2.55-.65.78-.43,1.43-1.14,1.95-2.1l4.5,2.46c-.75,1.61-1.9,2.86-3.46,3.74-1.56.88-3.4,1.32-5.51,1.32Z"/>
    <path class="cls-4" d="m210.93,1190.52c-2.28,0-4.29-.45-6.01-1.34-1.73-.89-3.06-2.12-4-3.67-.94-1.55-1.42-3.32-1.42-5.31s.47-3.79,1.4-5.34c.93-1.55,2.2-2.77,3.81-3.65,1.61-.88,3.44-1.32,5.47-1.32s3.73.42,5.31,1.25c1.58.83,2.82,2.02,3.74,3.57.92,1.55,1.38,3.41,1.38,5.57,0,.22-.01.48-.04.76s-.05.55-.07.8h-16.27v-3.39h13.22l-2.23,1.01c0-1.04-.21-1.95-.63-2.72-.42-.77-1.01-1.37-1.75-1.81-.74-.43-1.61-.65-2.61-.65s-1.87.22-2.63.65c-.76.43-1.35,1.04-1.77,1.82-.42.78-.63,1.71-.63,2.77v.89c0,1.09.24,2.05.73,2.88.48.83,1.17,1.47,2.05,1.9.88.43,1.92.65,3.11.65,1.07,0,2-.16,2.81-.48.81-.32,1.55-.81,2.22-1.45l3.09,3.35c-.92,1.04-2.07,1.84-3.46,2.4s-2.99.84-4.8.84Z"/>
    <path class="cls-4" d="m236.92,1190.22v-26.06h11.28c2.33,0,4.34.38,6.03,1.14s2.99,1.84,3.91,3.26,1.38,3.1,1.38,5.06-.46,3.61-1.38,5.03-2.22,2.5-3.91,3.26-3.7,1.14-6.03,1.14h-7.93l2.68-2.72v9.9h-6.03Zm6.03-9.23l-2.68-2.87h7.6c1.86,0,3.25-.4,4.17-1.19s1.38-1.9,1.38-3.31-.46-2.56-1.38-3.35-2.31-1.19-4.17-1.19h-7.6l2.68-2.87v14.78Z"/>
    <path class="cls-4" d="m274.04,1190.52c-2.28,0-4.29-.45-6.01-1.34-1.73-.89-3.06-2.12-4-3.67-.94-1.55-1.42-3.32-1.42-5.31s.47-3.79,1.4-5.34c.93-1.55,2.2-2.77,3.81-3.65,1.61-.88,3.44-1.32,5.47-1.32s3.73.42,5.31,1.25c1.58.83,2.82,2.02,3.74,3.57.92,1.55,1.38,3.41,1.38,5.57,0,.22-.01.48-.04.76s-.05.55-.07.8h-16.27v-3.39h13.22l-2.23,1.01c0-1.04-.21-1.95-.63-2.72-.42-.77-1.01-1.37-1.75-1.81-.74-.43-1.61-.65-2.61-.65s-1.87.22-2.63.65c-.76.43-1.35,1.04-1.77,1.82-.42.78-.63,1.71-.63,2.77v.89c0,1.09.24,2.05.73,2.88.48.83,1.17,1.47,2.05,1.9.88.43,1.92.65,3.11.65,1.07,0,2-.16,2.81-.48.81-.32,1.55-.81,2.22-1.45l3.09,3.35c-.92,1.04-2.07,1.84-3.46,2.4s-2.99.84-4.8.84Z"/>
    <path class="cls-4" d="m288.34,1190.22v-20.03h5.55v5.66l-.78-1.64c.6-1.41,1.55-2.49,2.87-3.22s2.92-1.1,4.8-1.1v5.36c-.25-.02-.47-.04-.67-.06-.2-.01-.41-.02-.63-.02-1.59,0-2.87.45-3.85,1.36-.98.91-1.47,2.31-1.47,4.23v9.46h-5.81Z"/>
    <path class="cls-4" d="m316.82,1190.22v-26.06h11.28c2.33,0,4.34.38,6.03,1.14s2.99,1.84,3.91,3.26,1.38,3.1,1.38,5.06-.46,3.61-1.38,5.03-2.22,2.5-3.91,3.26-3.7,1.14-6.03,1.14h-7.93l2.68-2.72v9.9h-6.03Zm6.03-9.23l-2.68-2.87h7.6c1.86,0,3.25-.4,4.17-1.19s1.38-1.9,1.38-3.31-.46-2.56-1.38-3.35-2.31-1.19-4.17-1.19h-7.6l2.68-2.87v14.78Z"/>
    <path class="cls-4" d="m347.32,1167.39c-1.07,0-1.94-.31-2.61-.93-.67-.62-1.01-1.39-1.01-2.31s.33-1.69,1.01-2.31,1.54-.93,2.61-.93,1.93.29,2.61.88,1.01,1.33,1.01,2.25c0,.97-.33,1.77-.99,2.4s-1.53.95-2.62.95Zm-2.9,22.82v-20.03h5.81v20.03h-5.81Z"/>
    <path class="cls-4" d="m356.36,1197.44v-27.25h5.55v4.1l-.11,5.96.37,5.92v11.28h-5.81Zm11.84-6.92c-1.69,0-3.16-.37-4.43-1.12-1.27-.74-2.25-1.88-2.96-3.41s-1.06-3.46-1.06-5.79.33-4.29,1.01-5.81,1.64-2.64,2.9-3.39,2.78-1.12,4.54-1.12c1.89,0,3.58.43,5.08,1.28,1.5.86,2.69,2.05,3.58,3.59.88,1.54,1.32,3.35,1.32,5.44s-.44,3.93-1.32,5.47c-.88,1.54-2.07,2.73-3.58,3.57-1.5.84-3.2,1.27-5.08,1.27Zm-1.01-4.77c.97,0,1.83-.22,2.59-.67.76-.45,1.36-1.09,1.82-1.92.46-.83.69-1.82.69-2.96s-.23-2.16-.69-2.98c-.46-.82-1.07-1.45-1.82-1.9-.76-.45-1.62-.67-2.59-.67s-1.84.22-2.61.67c-.77.45-1.38,1.08-1.82,1.9-.45.82-.67,1.81-.67,2.98s.22,2.13.67,2.96,1.06,1.47,1.82,1.92,1.64.67,2.61.67Z"/>
  </g>
  <g>
    <path class="cls-4" d="m1065.99,982.31c-2.09,0-4.08-.28-5.99-.84-1.91-.56-3.45-1.28-4.62-2.18l2.05-4.54c1.12.79,2.44,1.45,3.97,1.95,1.53.51,3.07.76,4.64.76,1.19,0,2.15-.12,2.88-.35s1.27-.56,1.62-.99.52-.91.52-1.45c0-.69-.28-1.25-.82-1.66-.55-.41-1.27-.75-2.16-1.01-.89-.26-1.88-.51-2.96-.75s-2.16-.53-3.24-.88c-1.08-.35-2.07-.79-2.96-1.34-.89-.55-1.62-1.27-2.18-2.16-.56-.89-.84-2.03-.84-3.42,0-1.49.4-2.85,1.21-4.08.81-1.23,2.02-2.21,3.65-2.94s3.67-1.1,6.12-1.1c1.64,0,3.25.19,4.84.58s2.99.96,4.21,1.73l-1.86,4.58c-1.22-.69-2.43-1.21-3.65-1.55-1.22-.34-2.41-.5-3.58-.5s-2.12.14-2.87.41c-.75.27-1.28.63-1.6,1.06-.32.43-.48.94-.48,1.51,0,.67.27,1.21.82,1.62s1.27.74,2.16.99c.89.25,1.88.5,2.96.75s2.16.53,3.24.86c1.08.32,2.07.76,2.96,1.3.89.55,1.62,1.27,2.18,2.16.56.89.84,2.02.84,3.39,0,1.47-.41,2.8-1.23,4.02s-2.04,2.2-3.67,2.94c-1.63.74-3.68,1.12-6.16,1.12Zm-1.34,4.02v-35h3.72v35h-3.72Z"/>
    <path class="cls-4" d="m1088.59,982.31c-1.81,0-3.61-.24-5.4-.73-1.79-.48-3.3-1.17-4.54-2.07l2.35-4.62c.99.72,2.15,1.29,3.46,1.71s2.64.63,3.98.63c1.51,0,2.7-.3,3.57-.89s1.3-1.42,1.3-2.46-.38-1.77-1.15-2.35c-.77-.57-2.01-.86-3.72-.86h-2.76v-3.98l7.26-8.23.67,2.16h-13.67v-4.84h18.24v3.91l-7.22,8.23-3.05-1.75h1.75c3.2,0,5.62.72,7.26,2.16,1.64,1.44,2.46,3.29,2.46,5.55,0,1.47-.38,2.84-1.15,4.11-.77,1.28-1.95,2.32-3.54,3.11-1.59.79-3.63,1.19-6.11,1.19Z"/>
    <path class="cls-4" d="m1114.09,982.31c-2.14,0-4.05-.53-5.73-1.58-1.69-1.05-3.02-2.59-3.98-4.6-.97-2.01-1.45-4.44-1.45-7.3s.48-5.29,1.45-7.3c.97-2.01,2.29-3.54,3.98-4.6,1.69-1.06,3.6-1.58,5.73-1.58s4.08.53,5.75,1.58c1.68,1.06,3,2.59,3.97,4.6s1.45,4.44,1.45,7.3-.48,5.29-1.45,7.3-2.29,3.54-3.97,4.6c-1.67,1.06-3.59,1.58-5.75,1.58Zm0-5.1c1.02,0,1.9-.29,2.66-.86.76-.57,1.35-1.48,1.79-2.72.43-1.24.65-2.84.65-4.8s-.22-3.56-.65-4.8c-.43-1.24-1.03-2.15-1.79-2.72-.76-.57-1.64-.86-2.66-.86s-1.87.29-2.62.86c-.76.57-1.35,1.48-1.79,2.72s-.65,2.84-.65,4.8.22,3.56.65,4.8,1.03,2.15,1.79,2.72c.76.57,1.63.86,2.62.86Z"/>
    <path class="cls-4" d="m1140.12,982.31c-2.14,0-4.05-.53-5.73-1.58-1.69-1.05-3.02-2.59-3.98-4.6s-1.45-4.44-1.45-7.3.48-5.29,1.45-7.3,2.29-3.54,3.98-4.6c1.69-1.06,3.6-1.58,5.73-1.58s4.08.53,5.75,1.58c1.68,1.06,3,2.59,3.97,4.6s1.45,4.44,1.45,7.3-.48,5.29-1.45,7.3-2.29,3.54-3.97,4.6c-1.67,1.06-3.59,1.58-5.75,1.58Zm0-5.1c1.02,0,1.9-.29,2.66-.86.76-.57,1.35-1.48,1.79-2.72.43-1.24.65-2.84.65-4.8s-.22-3.56-.65-4.8c-.43-1.24-1.03-2.15-1.79-2.72-.76-.57-1.64-.86-2.66-.86s-1.87.29-2.62.86c-.76.57-1.35,1.48-1.79,2.72s-.65,2.84-.65,4.8.22,3.56.65,4.8,1.03,2.15,1.79,2.72c.76.57,1.63.86,2.62.86Z"/>
    <path class="cls-2" d="m1167.11,971.11v-4.54h17.72v4.54h-17.72Zm6.44,6.33v-17.2h4.8v17.2h-4.8Z"/>
    <path class="cls-2" d="m1210.79,982.31c-2.09,0-4.08-.28-5.99-.84-1.91-.56-3.45-1.28-4.62-2.18l2.05-4.54c1.12.79,2.44,1.45,3.97,1.95,1.53.51,3.07.76,4.64.76,1.19,0,2.15-.12,2.88-.35s1.27-.56,1.62-.99.52-.91.52-1.45c0-.69-.28-1.25-.82-1.66-.55-.41-1.27-.75-2.16-1.01-.89-.26-1.88-.51-2.96-.75s-2.16-.53-3.24-.88c-1.08-.35-2.07-.79-2.96-1.34-.89-.55-1.62-1.27-2.18-2.16-.56-.89-.84-2.03-.84-3.42,0-1.49.4-2.85,1.21-4.08.81-1.23,2.02-2.21,3.65-2.94s3.67-1.1,6.12-1.1c1.64,0,3.25.19,4.84.58s2.99.96,4.21,1.73l-1.86,4.58c-1.22-.69-2.43-1.21-3.65-1.55-1.22-.34-2.41-.5-3.58-.5s-2.12.14-2.87.41c-.75.27-1.28.63-1.6,1.06-.32.43-.48.94-.48,1.51,0,.67.27,1.21.82,1.62s1.27.74,2.16.99c.89.25,1.88.5,2.96.75s2.16.53,3.24.86c1.08.32,2.07.76,2.96,1.3.89.55,1.62,1.27,2.18,2.16.56.89.84,2.02.84,3.39,0,1.47-.41,2.8-1.23,4.02s-2.04,2.2-3.67,2.94c-1.63.74-3.68,1.12-6.16,1.12Zm-1.34,4.02v-35h3.72v35h-3.72Z"/>
    <path class="cls-2" d="m1236.74,982.31c-2.38,0-4.45-.5-6.2-1.49-1.75-.99-3.1-2.44-4.04-4.36-.94-1.91-1.42-4.27-1.42-7.07,0-3,.56-5.55,1.69-7.63s2.69-3.67,4.69-4.77c2-1.09,4.3-1.64,6.91-1.64,1.39,0,2.72.15,3.98.45,1.27.3,2.36.75,3.28,1.34l-2.23,4.43c-.72-.5-1.49-.84-2.31-1.02-.82-.19-1.67-.28-2.57-.28-2.26,0-4.05.68-5.36,2.05-1.32,1.37-1.97,3.39-1.97,6.07,0,.45,0,.94.02,1.49.01.55.08,1.09.21,1.64l-1.68-1.56c.47-.97,1.08-1.78,1.82-2.44s1.63-1.15,2.66-1.49c1.03-.34,2.17-.5,3.41-.5,1.69,0,3.2.33,4.54,1.01,1.34.67,2.41,1.61,3.22,2.83.8,1.22,1.21,2.64,1.21,4.28,0,1.76-.44,3.29-1.32,4.6-.88,1.3-2.06,2.31-3.54,3.02-1.48.71-3.15,1.06-5.01,1.06Zm-.33-4.51c.84,0,1.59-.16,2.25-.47s1.17-.76,1.54-1.36c.37-.6.56-1.28.56-2.05,0-1.19-.4-2.14-1.21-2.85-.81-.71-1.88-1.06-3.22-1.06-.89,0-1.68.17-2.35.5s-1.2.79-1.58,1.38c-.39.58-.58,1.26-.58,2.03s.19,1.41.56,1.99c.37.58.89,1.04,1.56,1.38.67.34,1.49.5,2.46.5Z"/>
    <path class="cls-2" d="m1260.72,982.31c-2.14,0-4.05-.53-5.73-1.58-1.69-1.05-3.02-2.59-3.98-4.6s-1.45-4.44-1.45-7.3.48-5.29,1.45-7.3,2.29-3.54,3.98-4.6c1.69-1.06,3.6-1.58,5.73-1.58s4.08.53,5.75,1.58c1.68,1.06,3,2.59,3.97,4.6s1.45,4.44,1.45,7.3-.48,5.29-1.45,7.3-2.29,3.54-3.97,4.6c-1.67,1.06-3.59,1.58-5.75,1.58Zm0-5.1c1.02,0,1.9-.29,2.66-.86.76-.57,1.35-1.48,1.79-2.72.43-1.24.65-2.84.65-4.8s-.22-3.56-.65-4.8c-.43-1.24-1.03-2.15-1.79-2.72-.76-.57-1.64-.86-2.66-.86s-1.87.29-2.62.86c-.76.57-1.35,1.48-1.79,2.72s-.65,2.84-.65,4.8.22,3.56.65,4.8,1.03,2.15,1.79,2.72c.76.57,1.63.86,2.62.86Z"/>
    <path class="cls-4" d="m1188.15,1034.4c-2.09,0-4.08-.28-5.99-.84-1.91-.56-3.45-1.28-4.62-2.18l2.05-4.54c1.12.79,2.44,1.45,3.97,1.95,1.53.51,3.07.76,4.64.76,1.19,0,2.15-.12,2.88-.35s1.27-.56,1.62-.99.52-.91.52-1.45c0-.69-.28-1.25-.82-1.66-.55-.41-1.27-.75-2.16-1.01-.89-.26-1.88-.51-2.96-.75s-2.16-.53-3.24-.88c-1.08-.35-2.07-.79-2.96-1.34-.89-.55-1.62-1.27-2.18-2.16-.56-.89-.84-2.03-.84-3.42,0-1.49.4-2.85,1.21-4.08.81-1.23,2.02-2.21,3.65-2.94s3.67-1.1,6.12-1.1c1.64,0,3.25.19,4.84.58s2.99.96,4.21,1.73l-1.86,4.58c-1.22-.69-2.43-1.21-3.65-1.55-1.22-.34-2.41-.5-3.58-.5s-2.12.14-2.87.41c-.75.27-1.28.63-1.6,1.06-.32.43-.48.94-.48,1.51,0,.67.27,1.21.82,1.62s1.27.74,2.16.99c.89.25,1.88.5,2.96.75s2.16.53,3.24.86c1.08.32,2.07.76,2.96,1.3.89.55,1.62,1.27,2.18,2.16.56.89.84,2.02.84,3.39,0,1.47-.41,2.8-1.23,4.02s-2.04,2.2-3.67,2.94c-1.63.74-3.68,1.12-6.16,1.12Zm-1.34,4.02v-35h3.72v35h-3.72Z"/>
    <path class="cls-4" d="m1210.75,1034.4c-1.81,0-3.61-.24-5.4-.73-1.79-.48-3.3-1.17-4.54-2.07l2.35-4.62c.99.72,2.15,1.29,3.46,1.71s2.64.63,3.98.63c1.51,0,2.7-.3,3.57-.89s1.3-1.42,1.3-2.46-.38-1.77-1.15-2.35c-.77-.57-2.01-.86-3.72-.86h-2.76v-3.98l7.26-8.23.67,2.16h-13.67v-4.84h18.24v3.91l-7.22,8.23-3.05-1.75h1.75c3.2,0,5.62.72,7.26,2.16,1.64,1.44,2.46,3.29,2.46,5.55,0,1.47-.38,2.84-1.15,4.11-.77,1.28-1.95,2.32-3.54,3.11-1.59.79-3.63,1.19-6.11,1.19Z"/>
    <path class="cls-4" d="m1236.74,1034.4c-2.38,0-4.45-.5-6.2-1.49-1.75-.99-3.1-2.44-4.04-4.36-.94-1.91-1.42-4.27-1.42-7.07,0-3,.56-5.55,1.69-7.63s2.69-3.67,4.69-4.77c2-1.09,4.3-1.64,6.91-1.64,1.39,0,2.72.15,3.98.45,1.27.3,2.36.75,3.28,1.34l-2.23,4.43c-.72-.5-1.49-.84-2.31-1.02-.82-.19-1.67-.28-2.57-.28-2.26,0-4.05.68-5.36,2.05-1.32,1.37-1.97,3.39-1.97,6.07,0,.45,0,.94.02,1.49.01.55.08,1.09.21,1.64l-1.68-1.56c.47-.97,1.08-1.78,1.82-2.44s1.63-1.15,2.66-1.49c1.03-.34,2.17-.5,3.41-.5,1.69,0,3.2.33,4.54,1.01,1.34.67,2.41,1.61,3.22,2.83.8,1.22,1.21,2.64,1.21,4.28,0,1.76-.44,3.29-1.32,4.6-.88,1.3-2.06,2.31-3.54,3.02-1.48.71-3.15,1.06-5.01,1.06Zm-.33-4.51c.84,0,1.59-.16,2.25-.47s1.17-.76,1.54-1.36c.37-.6.56-1.28.56-2.05,0-1.19-.4-2.14-1.21-2.85-.81-.71-1.88-1.06-3.22-1.06-.89,0-1.68.17-2.35.5s-1.2.79-1.58,1.38c-.39.58-.58,1.26-.58,2.03s.19,1.41.56,1.99c.37.58.89,1.04,1.56,1.38.67.34,1.49.5,2.46.5Z"/>
    <path class="cls-4" d="m1260.72,1034.4c-2.14,0-4.05-.53-5.73-1.58-1.69-1.05-3.02-2.59-3.98-4.6s-1.45-4.44-1.45-7.3.48-5.29,1.45-7.3,2.29-3.54,3.98-4.6c1.69-1.06,3.6-1.58,5.73-1.58s4.08.53,5.75,1.58c1.68,1.06,3,2.59,3.97,4.6s1.45,4.44,1.45,7.3-.48,5.29-1.45,7.3-2.29,3.54-3.97,4.6c-1.67,1.06-3.59,1.58-5.75,1.58Zm0-5.1c1.02,0,1.9-.29,2.66-.86.76-.57,1.35-1.48,1.79-2.72.43-1.24.65-2.84.65-4.8s-.22-3.56-.65-4.8c-.43-1.24-1.03-2.15-1.79-2.72-.76-.57-1.64-.86-2.66-.86s-1.87.29-2.62.86c-.76.57-1.35,1.48-1.79,2.72s-.65,2.84-.65,4.8.22,3.56.65,4.8,1.03,2.15,1.79,2.72c.76.57,1.63.86,2.62.86Z"/>
    <path class="cls-4" d="m1183.64,1086.49c-1.81,0-3.6-.24-5.38-.73s-3.29-1.17-4.56-2.07l2.38-4.62c.99.72,2.14,1.29,3.44,1.71s2.63.63,3.97.63c1.51,0,2.71-.3,3.58-.89.87-.6,1.3-1.43,1.3-2.49,0-.67-.17-1.27-.52-1.79s-.96-.92-1.84-1.19c-.88-.27-2.12-.41-3.71-.41h-6.67l1.34-14.67h15.9v4.84h-13.74l3.13-2.75-.93,10.46-3.13-2.75h5.51c2.58,0,4.66.35,6.24,1.06,1.58.71,2.72,1.67,3.45,2.89.72,1.22,1.08,2.59,1.08,4.13s-.38,2.96-1.15,4.26c-.77,1.3-1.95,2.36-3.56,3.16-1.6.81-3.64,1.21-6.12,1.21Z"/>
    <path class="cls-4" d="m1208.85,1086.49c-2.14,0-4.05-.53-5.73-1.58-1.69-1.05-3.02-2.59-3.98-4.6s-1.45-4.44-1.45-7.3.48-5.29,1.45-7.3,2.29-3.54,3.98-4.6c1.69-1.06,3.6-1.58,5.73-1.58s4.08.53,5.75,1.58c1.68,1.06,3,2.59,3.97,4.6s1.45,4.44,1.45,7.3-.48,5.29-1.45,7.3-2.29,3.54-3.97,4.6c-1.67,1.06-3.59,1.58-5.75,1.58Zm0-5.1c1.02,0,1.9-.29,2.66-.86.76-.57,1.35-1.48,1.79-2.72.43-1.24.65-2.84.65-4.8s-.22-3.56-.65-4.8c-.43-1.24-1.03-2.15-1.79-2.72-.76-.57-1.64-.86-2.66-.86s-1.87.29-2.62.86c-.76.57-1.35,1.48-1.79,2.72s-.65,2.84-.65,4.8.22,3.56.65,4.8,1.03,2.15,1.79,2.72c.76.57,1.63.86,2.62.86Z"/>
    <path class="cls-4" d="m1234.88,1086.49c-2.14,0-4.05-.53-5.73-1.58-1.69-1.05-3.02-2.59-3.98-4.6s-1.45-4.44-1.45-7.3.48-5.29,1.45-7.3,2.29-3.54,3.98-4.6c1.69-1.06,3.6-1.58,5.73-1.58s4.08.53,5.75,1.58c1.68,1.06,3,2.59,3.97,4.6s1.45,4.44,1.45,7.3-.48,5.29-1.45,7.3-2.29,3.54-3.97,4.6c-1.67,1.06-3.59,1.58-5.75,1.58Zm0-5.1c1.02,0,1.9-.29,2.66-.86.76-.57,1.35-1.48,1.79-2.72.43-1.24.65-2.84.65-4.8s-.22-3.56-.65-4.8c-.43-1.24-1.03-2.15-1.79-2.72-.76-.57-1.64-.86-2.66-.86s-1.87.29-2.62.86c-.76.57-1.35,1.48-1.79,2.72s-.65,2.84-.65,4.8.22,3.56.65,4.8,1.03,2.15,1.79,2.72c.76.57,1.63.86,2.62.86Z"/>
    <path class="cls-4" d="m1253.16,1072.97c-.99,0-1.84-.34-2.55-1.02-.71-.68-1.06-1.56-1.06-2.62s.35-1.93,1.06-2.59c.71-.66,1.56-.99,2.55-.99s1.87.33,2.57.99,1.04,1.52,1.04,2.59-.35,1.94-1.04,2.62c-.69.68-1.55,1.02-2.57,1.02Zm0,13.37c-.99,0-1.84-.34-2.55-1.02-.71-.68-1.06-1.56-1.06-2.63s.35-1.93,1.06-2.59c.71-.66,1.56-.99,2.55-.99s1.87.33,2.57.99c.69.66,1.04,1.52,1.04,2.59s-.35,1.94-1.04,2.63-1.55,1.02-2.57,1.02Z"/>
    <path class="cls-4" d="m1264.25,1086.04v-23.83l2.61,2.61h-7.82v-4.84h11.24v26.06h-6.03Z"/>
    <path class="cls-4" d="m1116.22,1138.13v-23.83l2.61,2.61h-7.82v-4.84h11.24v26.06h-6.03Z"/>
    <path class="cls-4" d="m1130.96,1138.43c-.99,0-1.84-.34-2.55-1.02-.71-.68-1.06-1.56-1.06-2.63s.35-1.93,1.06-2.59c.71-.66,1.56-.99,2.55-.99s1.87.33,2.57.99c.69.66,1.04,1.52,1.04,2.59s-.35,1.94-1.04,2.63-1.55,1.02-2.57,1.02Z"/>
    <path class="cls-4" d="m1149.2,1138.58c-2.18,0-4.1-.33-5.73-.99-1.64-.66-2.92-1.59-3.83-2.79-.92-1.2-1.38-2.61-1.38-4.23s.45-2.98,1.36-4.11c.9-1.13,2.18-1.99,3.81-2.57,1.64-.58,3.56-.88,5.77-.88s4.18.29,5.83.88c1.65.58,2.93,1.44,3.84,2.57.9,1.13,1.36,2.5,1.36,4.11s-.46,3.02-1.38,4.23c-.92,1.21-2.2,2.14-3.85,2.79-1.65.66-3.58.99-5.79.99Zm0-12.51c-2.01,0-3.77-.27-5.27-.82-1.5-.55-2.67-1.35-3.5-2.4-.83-1.05-1.25-2.31-1.25-3.78,0-1.54.42-2.86,1.27-3.97.84-1.1,2.02-1.96,3.54-2.57,1.51-.61,3.25-.91,5.21-.91s3.77.3,5.27.91c1.5.61,2.68,1.47,3.54,2.57.86,1.11,1.28,2.43,1.28,3.97s-.42,2.73-1.25,3.78c-.83,1.06-2.01,1.86-3.52,2.4-1.51.55-3.29.82-5.32.82Zm0,8.08c1.51,0,2.71-.34,3.59-1.01.88-.67,1.32-1.59,1.32-2.75s-.44-2.08-1.32-2.74c-.88-.66-2.08-.99-3.59-.99s-2.67.33-3.54.99c-.87.66-1.3,1.57-1.3,2.74s.43,2.08,1.3,2.75c.87.67,2.05,1.01,3.54,1.01Zm0-11.62c1.27,0,2.27-.29,3-.86.73-.57,1.1-1.35,1.1-2.35,0-1.04-.38-1.85-1.14-2.42-.76-.57-1.74-.86-2.96-.86s-2.16.29-2.9.86c-.74.57-1.12,1.38-1.12,2.42s.36,1.77,1.08,2.35c.72.57,1.7.86,2.94.86Z"/>
    <path class="cls-4" d="m1174.89,1138.58c-2.14,0-4.05-.53-5.73-1.58-1.69-1.05-3.02-2.59-3.98-4.6s-1.45-4.44-1.45-7.3.48-5.29,1.45-7.3,2.29-3.54,3.98-4.6c1.69-1.06,3.6-1.58,5.73-1.58s4.08.53,5.75,1.58c1.68,1.06,3,2.59,3.97,4.6s1.45,4.44,1.45,7.3-.48,5.29-1.45,7.3-2.29,3.54-3.97,4.6c-1.67,1.06-3.59,1.58-5.75,1.58Zm0-5.1c1.02,0,1.9-.29,2.66-.86.76-.57,1.35-1.48,1.79-2.72.43-1.24.65-2.84.65-4.8s-.22-3.56-.65-4.8c-.43-1.24-1.03-2.15-1.79-2.72-.76-.57-1.64-.86-2.66-.86s-1.87.29-2.62.86c-.76.57-1.35,1.48-1.79,2.72s-.65,2.84-.65,4.8.22,3.56.65,4.8,1.03,2.15,1.79,2.72c.76.57,1.63.86,2.62.86Z"/>
    <path class="cls-4" d="m1202.26,1138.13v-27.63h5.81v27.63h-5.81Z"/>
    <path class="cls-4" d="m1223.75,1138.43c-2.14,0-4.03-.45-5.68-1.34-1.65-.89-2.95-2.12-3.91-3.67-.96-1.55-1.43-3.32-1.43-5.31s.48-3.79,1.43-5.34c.96-1.55,2.26-2.77,3.91-3.65,1.65-.88,3.54-1.32,5.68-1.32s4,.44,5.66,1.32c1.66.88,2.97,2.09,3.91,3.63.94,1.54,1.41,3.33,1.41,5.36s-.47,3.75-1.41,5.31c-.94,1.55-2.25,2.77-3.91,3.67-1.66.89-3.55,1.34-5.66,1.34Zm0-4.77c.97,0,1.84-.22,2.61-.67.77-.45,1.38-1.09,1.82-1.92.45-.83.67-1.82.67-2.96s-.22-2.16-.67-2.98c-.45-.82-1.05-1.45-1.82-1.9-.77-.45-1.64-.67-2.61-.67s-1.84.22-2.61.67c-.77.45-1.38,1.08-1.84,1.9-.46.82-.69,1.81-.69,2.98s.23,2.13.69,2.96c.46.83,1.07,1.47,1.84,1.92s1.64.67,2.61.67Z"/>
    <path class="cls-4" d="m1236.96,1123.01v-4.47h13.89v4.47h-13.89Zm10.58,15.41c-2.36,0-4.2-.6-5.51-1.81-1.32-1.2-1.97-3-1.97-5.38v-17.57h5.81v17.5c0,.84.22,1.5.67,1.95.45.46,1.05.69,1.82.69.92,0,1.7-.25,2.35-.74l1.56,4.1c-.59.42-1.31.74-2.14.95-.83.21-1.69.32-2.59.32Z"/>
    <path class="cls-4" d="m1263.02,1138.43c-1.71,0-3.36-.21-4.93-.62-1.58-.41-2.82-.92-3.74-1.55l1.94-4.17c.92.57,2,1.04,3.26,1.4,1.25.36,2.49.54,3.71.54,1.34,0,2.29-.16,2.85-.48.56-.32.84-.77.84-1.34,0-.47-.22-.83-.65-1.06-.43-.24-1.01-.42-1.73-.54-.72-.12-1.51-.25-2.37-.37-.85-.12-1.72-.29-2.59-.5-.87-.21-1.66-.53-2.38-.95-.72-.42-1.3-.99-1.73-1.71-.43-.72-.65-1.65-.65-2.79,0-1.27.37-2.38,1.1-3.35s1.79-1.73,3.18-2.29c1.39-.56,3.05-.84,4.99-.84,1.37,0,2.76.15,4.17.45,1.41.3,2.59.73,3.54,1.3l-1.94,4.13c-.97-.57-1.94-.96-2.92-1.17s-1.93-.32-2.85-.32c-1.29,0-2.23.17-2.83.52-.6.35-.89.79-.89,1.34,0,.5.22.87.65,1.12.43.25,1.01.45,1.73.6.72.15,1.51.28,2.36.39.86.11,1.72.28,2.59.5.87.22,1.66.54,2.36.95.71.41,1.29.97,1.73,1.68.45.71.67,1.63.67,2.77,0,1.24-.37,2.34-1.12,3.3-.75.96-1.82,1.71-3.22,2.25-1.4.55-3.11.82-5.12.82Z"/>
    <path class="cls-4" d="m1220.28,1190.66c-2.09,0-4.08-.28-5.99-.84-1.91-.56-3.45-1.28-4.62-2.18l2.05-4.54c1.12.79,2.44,1.45,3.97,1.95,1.53.51,3.07.76,4.64.76,1.19,0,2.15-.12,2.88-.35s1.27-.56,1.62-.99.52-.91.52-1.45c0-.69-.28-1.25-.82-1.66-.55-.41-1.27-.75-2.16-1.01-.89-.26-1.88-.51-2.96-.75s-2.16-.53-3.24-.88c-1.08-.35-2.07-.79-2.96-1.34-.89-.55-1.62-1.27-2.18-2.16-.56-.89-.84-2.03-.84-3.42,0-1.49.4-2.85,1.21-4.08.81-1.23,2.02-2.21,3.65-2.94s3.67-1.1,6.12-1.1c1.64,0,3.25.19,4.84.58s2.99.96,4.21,1.73l-1.86,4.58c-1.22-.69-2.43-1.21-3.65-1.55-1.22-.34-2.41-.5-3.58-.5s-2.12.14-2.87.41c-.75.27-1.28.63-1.6,1.06-.32.43-.48.94-.48,1.51,0,.67.27,1.21.82,1.62s1.27.74,2.16.99c.89.25,1.88.5,2.96.75s2.16.53,3.24.86c1.08.32,2.07.76,2.96,1.3.89.55,1.62,1.27,2.18,2.16.56.89.84,2.02.84,3.39,0,1.47-.41,2.8-1.23,4.02s-2.04,2.2-3.67,2.94c-1.63.74-3.68,1.12-6.16,1.12Zm-1.34,4.02v-35h3.72v35h-3.72Z"/>
    <path class="cls-4" d="m1238.23,1190.22v-23.83l2.61,2.61h-7.82v-4.84h11.24v26.06h-6.03Z"/>
    <path class="cls-4" d="m1260.72,1190.66c-2.14,0-4.05-.53-5.73-1.58-1.69-1.05-3.02-2.59-3.98-4.6s-1.45-4.44-1.45-7.3.48-5.29,1.45-7.3,2.29-3.54,3.98-4.6c1.69-1.06,3.6-1.58,5.73-1.58s4.08.53,5.75,1.58c1.68,1.06,3,2.59,3.97,4.6s1.45,4.44,1.45,7.3-.48,5.29-1.45,7.3-2.29,3.54-3.97,4.6c-1.67,1.06-3.59,1.58-5.75,1.58Zm0-5.1c1.02,0,1.9-.29,2.66-.86.76-.57,1.35-1.48,1.79-2.72.43-1.24.65-2.84.65-4.8s-.22-3.56-.65-4.8c-.43-1.24-1.03-2.15-1.79-2.72-.76-.57-1.64-.86-2.66-.86s-1.87.29-2.62.86c-.76.57-1.35,1.48-1.79,2.72s-.65,2.84-.65,4.8.22,3.56.65,4.8,1.03,2.15,1.79,2.72c.76.57,1.63.86,2.62.86Z"/>
  </g>
  <g>
    <rect class="cls-2" x="378.97" y="1280.25" width="703.9" height="197.04" rx="26.58" ry="26.58"/>
    <g>
      <path class="cls-3" d="m500.07,1383.14v-47.17h20.42c4.22,0,7.86.68,10.92,2.06s5.41,3.34,7.08,5.9c1.66,2.56,2.49,5.62,2.49,9.16s-.83,6.54-2.49,9.1c-1.66,2.56-4.02,4.53-7.08,5.9-3.05,1.37-6.69,2.06-10.92,2.06h-14.35l4.85-4.92v17.92h-10.92Zm10.92-16.71l-4.85-5.19h13.75c3.37,0,5.88-.72,7.55-2.16,1.66-1.44,2.49-3.44,2.49-6s-.83-4.63-2.49-6.06c-1.66-1.44-4.18-2.16-7.55-2.16h-13.75l4.85-5.19v26.75Z"/>
      <path class="cls-3" d="m548.72,1383.14v-47.17h20.42c4.22,0,7.86.68,10.92,2.06s5.41,3.34,7.08,5.9c1.66,2.56,2.49,5.62,2.49,9.16s-.83,6.53-2.49,9.06c-1.66,2.54-4.02,4.48-7.08,5.83-3.05,1.35-6.69,2.02-10.92,2.02h-14.35l4.85-4.78v17.92h-10.92Zm10.92-16.71l-4.85-5.12h13.75c3.37,0,5.88-.73,7.55-2.19,1.66-1.46,2.49-3.47,2.49-6.03s-.83-4.63-2.49-6.06c-1.66-1.44-4.18-2.16-7.55-2.16h-13.75l4.85-5.19v26.75Zm19.07,16.71l-11.79-17.12h11.66l11.93,17.12h-11.79Z"/>
      <path class="cls-3" d="m621.15,1383.95c-3.73,0-7.18-.61-10.34-1.82-3.17-1.21-5.91-2.92-8.22-5.12-2.32-2.2-4.11-4.78-5.39-7.75-1.28-2.97-1.92-6.2-1.92-9.7s.64-6.74,1.92-9.7,3.09-5.55,5.42-7.75,5.08-3.91,8.22-5.12c3.14-1.21,6.56-1.82,10.24-1.82s7.15.61,10.28,1.82c3.12,1.21,5.84,2.92,8.15,5.12s4.12,4.77,5.42,7.72c1.3,2.94,1.95,6.19,1.95,9.74s-.65,6.75-1.95,9.74c-1.3,2.99-3.11,5.57-5.42,7.75-2.31,2.18-5.03,3.88-8.15,5.09-3.12,1.21-6.53,1.82-10.21,1.82Zm-.07-9.3c2.11,0,4.05-.36,5.83-1.08,1.77-.72,3.34-1.75,4.68-3.1,1.35-1.35,2.39-2.94,3.13-4.78.74-1.84,1.11-3.89,1.11-6.13s-.37-4.29-1.11-6.13c-.74-1.84-1.77-3.44-3.1-4.78-1.32-1.35-2.89-2.38-4.68-3.1-1.8-.72-3.75-1.08-5.86-1.08s-4.05.36-5.83,1.08c-1.77.72-3.34,1.75-4.68,3.1-1.35,1.35-2.39,2.94-3.13,4.78-.74,1.84-1.11,3.89-1.11,6.13s.37,4.23,1.11,6.1c.74,1.86,1.77,3.47,3.1,4.82,1.32,1.35,2.89,2.38,4.68,3.1,1.8.72,3.75,1.08,5.86,1.08Z"/>
      <path class="cls-3" d="m666.03,1383.14h-10.92v-47.17h35.65v8.76h-24.73v38.41Zm-.81-25.94h22.64v8.76h-22.64v-8.76Z"/>
      <path class="cls-3" d="m698.17,1383.14v-47.17h10.92v47.17h-10.92Z"/>
      <path class="cls-3" d="m730.05,1383.14v-38.27h-15.09v-8.89h41.11v8.89h-15.09v38.27h-10.92Z"/>
      <path class="cls-3" d="m796.49,1383.95c-3.77,0-7.39-.51-10.85-1.52-3.46-1.01-6.25-2.32-8.36-3.94l3.71-8.22c2.02,1.44,4.41,2.62,7.18,3.54,2.76.92,5.56,1.38,8.39,1.38,2.16,0,3.9-.21,5.22-.64,1.32-.43,2.3-1.02,2.93-1.79.63-.76.94-1.64.94-2.63,0-1.26-.49-2.26-1.48-3s-2.29-1.35-3.91-1.82-3.4-.92-5.36-1.35c-1.95-.43-3.91-.95-5.86-1.58-1.95-.63-3.74-1.44-5.36-2.43-1.62-.99-2.93-2.29-3.94-3.91-1.01-1.62-1.52-3.68-1.52-6.2,0-2.7.73-5.15,2.19-7.38,1.46-2.22,3.66-4,6.6-5.32,2.94-1.32,6.64-1.99,11.09-1.99,2.96,0,5.88.35,8.76,1.05,2.87.7,5.41,1.74,7.61,3.13l-3.37,8.29c-2.2-1.26-4.4-2.19-6.6-2.8-2.2-.61-4.36-.91-6.47-.91s-3.84.25-5.19.74-2.31,1.13-2.9,1.92c-.59.79-.88,1.7-.88,2.73,0,1.21.49,2.19,1.48,2.93s2.29,1.34,3.91,1.79c1.62.45,3.4.9,5.36,1.35,1.95.45,3.91.97,5.86,1.55,1.95.58,3.74,1.37,5.36,2.36,1.62.99,2.93,2.29,3.94,3.91,1.01,1.62,1.51,3.66,1.51,6.13,0,2.65-.74,5.08-2.22,7.28-1.48,2.2-3.7,3.98-6.64,5.32-2.94,1.35-6.66,2.02-11.15,2.02Zm-2.42,7.28v-63.34h6.74v63.34h-6.74Z"/>
      <path class="cls-3" d="m827.62,1383.14v-43.13l4.72,4.72h-14.15v-8.76h20.35v47.17h-10.92Z"/>
      <path class="cls-3" d="m866.3,1383.95c-3.95,0-7.41-.6-10.38-1.79-2.97-1.19-5.28-2.87-6.94-5.05-1.66-2.18-2.49-4.73-2.49-7.65s.82-5.4,2.46-7.45c1.64-2.04,3.94-3.59,6.91-4.65,2.96-1.06,6.45-1.58,10.45-1.58s7.56.53,10.55,1.58c2.99,1.06,5.3,2.61,6.94,4.65,1.64,2.04,2.46,4.53,2.46,7.45s-.83,5.47-2.49,7.65c-1.66,2.18-3.99,3.86-6.98,5.05-2.99,1.19-6.48,1.79-10.48,1.79Zm0-22.64c-3.64,0-6.82-.49-9.54-1.48-2.72-.99-4.83-2.44-6.33-4.35-1.51-1.91-2.26-4.19-2.26-6.84,0-2.79.76-5.18,2.29-7.18,1.53-2,3.66-3.55,6.4-4.65,2.74-1.1,5.88-1.65,9.43-1.65s6.82.55,9.53,1.65c2.72,1.1,4.85,2.65,6.4,4.65,1.55,2,2.32,4.39,2.32,7.18s-.75,4.93-2.26,6.84c-1.51,1.91-3.63,3.36-6.37,4.35-2.74.99-5.95,1.48-9.63,1.48Zm0,14.62c2.74,0,4.91-.61,6.5-1.82,1.59-1.21,2.39-2.87,2.39-4.99s-.8-3.76-2.39-4.95c-1.59-1.19-3.76-1.79-6.5-1.79s-4.83.6-6.4,1.79c-1.57,1.19-2.36,2.84-2.36,4.95s.79,3.77,2.36,4.99c1.57,1.21,3.71,1.82,6.4,1.82Zm0-21.02c2.29,0,4.1-.52,5.42-1.55,1.32-1.03,1.99-2.45,1.99-4.25,0-1.89-.68-3.35-2.06-4.38-1.37-1.03-3.16-1.55-5.36-1.55s-3.91.52-5.26,1.55c-1.35,1.03-2.02,2.49-2.02,4.38s.65,3.21,1.95,4.25c1.3,1.03,3.08,1.55,5.32,1.55Z"/>
      <path class="cls-3" d="m911.44,1383.95c-3.86,0-7.32-.95-10.38-2.86-3.06-1.91-5.46-4.68-7.21-8.32-1.75-3.64-2.63-8.04-2.63-13.21s.88-9.57,2.63-13.21c1.75-3.64,4.15-6.41,7.21-8.32,3.05-1.91,6.51-2.86,10.38-2.86s7.38.96,10.41,2.86c3.03,1.91,5.42,4.68,7.18,8.32,1.75,3.64,2.63,8.04,2.63,13.21s-.88,9.57-2.63,13.21c-1.75,3.64-4.14,6.41-7.18,8.32-3.03,1.91-6.5,2.86-10.41,2.86Zm0-9.23c1.84,0,3.45-.52,4.82-1.55,1.37-1.03,2.45-2.67,3.24-4.92.78-2.25,1.18-5.14,1.18-8.69s-.39-6.45-1.18-8.69c-.79-2.25-1.87-3.89-3.24-4.92-1.37-1.03-2.98-1.55-4.82-1.55s-3.38.52-4.75,1.55c-1.37,1.03-2.45,2.67-3.24,4.92-.79,2.25-1.18,5.14-1.18,8.69s.39,6.45,1.18,8.69c.79,2.25,1.86,3.89,3.24,4.92,1.37,1.03,2.95,1.55,4.75,1.55Z"/>
    </g>
    <polygon class="cls-3" points="1012.64 1380.68 992.26 1392.44 971.88 1404.21 971.88 1380.68 971.88 1357.14 992.26 1368.91 1012.64 1380.68"/>
    <g>
      <path class="cls-3" d="m513.09,1428.13c-2.24,0-4.33-.37-6.26-1.1s-3.6-1.78-5.01-3.14c-1.41-1.36-2.52-2.95-3.31-4.78-.79-1.83-1.19-3.84-1.19-6.03s.39-4.2,1.19-6.03c.79-1.83,1.9-3.42,3.33-4.78,1.43-1.36,3.1-2.4,5.01-3.14,1.91-.73,4.01-1.1,6.28-1.1,2.52,0,4.8.44,6.84,1.31,2.04.87,3.75,2.16,5.14,3.85l-4.32,3.99c-1-1.14-2.11-1.99-3.33-2.56-1.22-.57-2.55-.85-3.99-.85-1.36,0-2.61.22-3.74.67s-2.12,1.08-2.95,1.91c-.83.83-1.48,1.82-1.93,2.95-.46,1.14-.69,2.4-.69,3.78s.23,2.65.69,3.79c.46,1.14,1.1,2.12,1.93,2.95.83.83,1.82,1.47,2.95,1.91s2.38.67,3.74.67c1.44,0,2.77-.28,3.99-.85,1.22-.57,2.33-1.43,3.33-2.6l4.32,3.99c-1.39,1.69-3.1,2.98-5.14,3.87-2.04.89-4.33,1.33-6.88,1.33Z"/>
      <path class="cls-3" d="m529.65,1427.64v-29.11h6.74v23.62h14.6v5.49h-21.33Z"/>
      <path class="cls-3" d="m551.11,1427.64l12.97-29.11h6.65l13.02,29.11h-7.07l-10.65-25.7h2.66l-10.69,25.7h-6.9Zm6.49-6.24l1.79-5.12h14.97l1.83,5.12h-18.59Z"/>
      <path class="cls-3" d="m586.79,1427.64v-29.11h6.74v29.11h-6.74Z"/>
      <path class="cls-3" d="m600.43,1427.64v-29.11h5.57l12.39,20.54h-2.95l12.19-20.54h5.53l.08,29.11h-6.32l-.04-19.42h1.17l-9.73,16.34h-3.03l-9.94-16.34h1.41v19.42h-6.32Z"/>
      <path class="cls-3" d="m651.92,1427.64v-29.11h14.22c3.66,0,6.41.69,8.26,2.08,1.84,1.39,2.77,3.22,2.77,5.49,0,1.53-.38,2.85-1.12,3.97-.75,1.12-1.77,1.99-3.08,2.6-1.3.61-2.8.91-4.49.91l.79-1.7c1.83,0,3.45.3,4.86.89s2.52,1.48,3.31,2.64c.79,1.16,1.19,2.59,1.19,4.28,0,2.5-.98,4.44-2.95,5.84s-4.86,2.1-8.69,2.1h-15.06Zm6.7-5.07h7.86c1.75,0,3.07-.28,3.97-.85.9-.57,1.35-1.48,1.35-2.72s-.45-2.13-1.35-2.72-2.22-.89-3.97-.89h-8.36v-4.91h7.2c1.64,0,2.89-.28,3.76-.85s1.31-1.44,1.31-2.6-.44-1.99-1.31-2.56c-.87-.57-2.13-.85-3.76-.85h-6.7v18.96Z"/>
      <path class="cls-3" d="m697.87,1428.13c-2.3,0-4.43-.37-6.38-1.12-1.95-.75-3.65-1.8-5.07-3.16-1.43-1.36-2.54-2.95-3.33-4.78-.79-1.83-1.19-3.83-1.19-5.99s.39-4.16,1.19-5.99c.79-1.83,1.9-3.42,3.35-4.78s3.13-2.41,5.07-3.16c1.94-.75,4.05-1.12,6.32-1.12s4.42.37,6.34,1.12,3.6,1.8,5.03,3.16c1.43,1.36,2.54,2.95,3.35,4.76.8,1.82,1.21,3.82,1.21,6.01s-.4,4.17-1.21,6.01c-.8,1.84-1.92,3.44-3.35,4.78-1.43,1.35-3.11,2.39-5.03,3.14-1.93.75-4.03,1.12-6.3,1.12Zm-.04-5.74c1.3,0,2.5-.22,3.6-.67,1.09-.44,2.06-1.08,2.89-1.91.83-.83,1.48-1.82,1.93-2.95s.69-2.4.69-3.79-.23-2.65-.69-3.78c-.46-1.14-1.1-2.12-1.91-2.95s-1.78-1.47-2.89-1.91-2.32-.67-3.62-.67-2.5.22-3.6.67c-1.1.44-2.06,1.08-2.89,1.91-.83.83-1.48,1.82-1.93,2.95-.46,1.14-.69,2.4-.69,3.78s.23,2.61.69,3.76c.46,1.15,1.09,2.14,1.91,2.97.82.83,1.78,1.47,2.89,1.91,1.11.44,2.31.67,3.62.67Z"/>
      <path class="cls-3" d="m718.83,1427.64v-29.11h5.57l17.18,20.96h-2.7v-20.96h6.65v29.11h-5.53l-17.22-20.96h2.7v20.96h-6.65Z"/>
      <path class="cls-3" d="m765.37,1428.13c-4.13,0-7.36-1.15-9.69-3.45-2.33-2.3-3.49-5.59-3.49-9.86v-16.3h6.74v16.05c0,2.77.57,4.77,1.71,5.99,1.14,1.22,2.73,1.83,4.78,1.83s3.64-.61,4.78-1.83c1.14-1.22,1.71-3.22,1.71-5.99v-16.05h6.65v16.3c0,4.27-1.17,7.56-3.49,9.86s-5.56,3.45-9.69,3.45Z"/>
      <path class="cls-3" d="m794.77,1428.13c-2.33,0-4.56-.31-6.7-.94s-3.85-1.43-5.16-2.43l2.29-5.07c1.25.89,2.72,1.62,4.43,2.18,1.71.57,3.43.85,5.18.85,1.33,0,2.4-.13,3.22-.39.82-.26,1.42-.63,1.81-1.1s.58-1.01.58-1.62c0-.78-.3-1.39-.91-1.85-.61-.46-1.41-.83-2.41-1.12-1-.29-2.1-.57-3.31-.83-1.21-.26-2.41-.59-3.62-.98-1.21-.39-2.31-.89-3.31-1.5-1-.61-1.81-1.41-2.43-2.41-.62-1-.94-2.27-.94-3.83,0-1.66.45-3.18,1.35-4.55s2.26-2.47,4.08-3.29c1.82-.82,4.1-1.23,6.84-1.23,1.83,0,3.63.22,5.41.64,1.77.43,3.34,1.07,4.7,1.93l-2.08,5.11c-1.36-.78-2.72-1.35-4.08-1.73-1.36-.37-2.69-.56-3.99-.56s-2.37.15-3.2.46c-.83.31-1.43.7-1.79,1.19s-.54,1.05-.54,1.68c0,.75.3,1.35.92,1.81.61.46,1.41.83,2.41,1.1s2.1.55,3.31.83c1.21.28,2.41.6,3.62.96s2.31.85,3.31,1.45c1,.61,1.81,1.41,2.43,2.41.62,1,.93,2.26.93,3.79,0,1.64-.46,3.13-1.37,4.49-.92,1.36-2.28,2.45-4.1,3.29-1.82.83-4.11,1.25-6.88,1.25Z"/>
      <path class="cls-3" d="m823.51,1427.64v-29.11h5.57l17.18,20.96h-2.7v-20.96h6.65v29.11h-5.53l-17.22-20.96h2.7v20.96h-6.65Z"/>
      <path class="cls-3" d="m871.25,1428.13c-2.3,0-4.43-.37-6.38-1.12-1.95-.75-3.65-1.8-5.07-3.16-1.43-1.36-2.54-2.95-3.33-4.78-.79-1.83-1.19-3.83-1.19-5.99s.39-4.16,1.19-5.99c.79-1.83,1.9-3.42,3.35-4.78s3.13-2.41,5.07-3.16c1.94-.75,4.05-1.12,6.32-1.12s4.42.37,6.34,1.12,3.6,1.8,5.03,3.16c1.43,1.36,2.54,2.95,3.35,4.76.8,1.82,1.21,3.82,1.21,6.01s-.4,4.17-1.21,6.01c-.8,1.84-1.92,3.44-3.35,4.78-1.43,1.35-3.11,2.39-5.03,3.14-1.93.75-4.03,1.12-6.3,1.12Zm-.04-5.74c1.3,0,2.5-.22,3.6-.67,1.09-.44,2.06-1.08,2.89-1.91.83-.83,1.48-1.82,1.93-2.95s.69-2.4.69-3.79-.23-2.65-.69-3.78c-.46-1.14-1.1-2.12-1.91-2.95s-1.78-1.47-2.89-1.91-2.32-.67-3.62-.67-2.5.22-3.6.67c-1.1.44-2.06,1.08-2.89,1.91-.83.83-1.48,1.82-1.93,2.95-.46,1.14-.69,2.4-.69,3.78s.23,2.61.69,3.76c.46,1.15,1.09,2.14,1.91,2.97.82.83,1.78,1.47,2.89,1.91,1.11.44,2.31.67,3.62.67Z"/>
      <path class="cls-3" d="m898.24,1427.64l-9.53-29.11h6.99l8.28,25.78h-3.49l8.65-25.78h6.24l8.32,25.78h-3.37l8.48-25.78h6.45l-9.52,29.11h-7.24l-7.36-22.62h1.91l-7.57,22.62h-7.24Z"/>
    </g>
  </g>
</svg>